<?xml version="1.0" encoding="utf-8" standalone="no"?>
<!DOCTYPE svg PUBLIC "-//W3C//DTD SVG 1.1//EN"
  "http://www.w3.org/Graphics/SVG/1.1/DTD/svg11.dtd">
<svg xmlns:xlink="http://www.w3.org/1999/xlink" width="608.98125pt" height="352.235585pt" viewBox="0 0 608.98125 352.235585" xmlns="http://www.w3.org/2000/svg" version="1.1">
 <metadata>
  <rdf:RDF xmlns:dc="http://purl.org/dc/elements/1.1/" xmlns:cc="http://creativecommons.org/ns#" xmlns:rdf="http://www.w3.org/1999/02/22-rdf-syntax-ns#">
   <cc:Work>
    <dc:type rdf:resource="http://purl.org/dc/dcmitype/StillImage"/>
    <dc:date>2025-02-14T17:15:15.016111</dc:date>
    <dc:format>image/svg+xml</dc:format>
    <dc:creator>
     <cc:Agent>
      <dc:title>Matplotlib v3.10.0, https://matplotlib.org/</dc:title>
     </cc:Agent>
    </dc:creator>
   </cc:Work>
  </rdf:RDF>
 </metadata>
 <defs>
  <style type="text/css">*{stroke-linejoin: round; stroke-linecap: butt}</style>
 </defs>
 <g id="figure_1">
  <g id="patch_1">
   <path d="M 0 352.235585 
L 608.98125 352.235585 
L 608.98125 0 
L 0 0 
z
" style="fill: #ffffff"/>
  </g>
  <g id="axes_1">
   <g id="patch_2">
    <path d="M 43.78125 299.518125 
L 601.78125 299.518125 
L 601.78125 22.318125 
L 43.78125 22.318125 
z
" style="fill: #ffffff"/>
   </g>
   <g id="matplotlib.axis_1">
    <g id="xtick_1">
     <g id="line2d_1">
      <path d="M 48.207489 299.518125 
L 48.207489 22.318125 
" clip-path="url(#pea76b512db)" style="fill: none; stroke: #b0b0b0; stroke-width: 0.8; stroke-linecap: square"/>
     </g>
     <g id="line2d_2">
      <defs>
       <path id="m8d19d9a982" d="M 0 0 
L 0 3.5 
" style="stroke: #000000; stroke-width: 0.8"/>
      </defs>
      <g>
       <use xlink:href="#m8d19d9a982" x="48.207489" y="299.518125" style="stroke: #000000; stroke-width: 0.8"/>
      </g>
     </g>
     <g id="text_1">
      <!-- 1992 -->
      <g transform="translate(41.160728 329.886899) rotate(-45) scale(0.1 -0.1)">
       <defs>
        <path id="DejaVuSans-31" d="M 794 531 
L 1825 531 
L 1825 4091 
L 703 3866 
L 703 4441 
L 1819 4666 
L 2450 4666 
L 2450 531 
L 3481 531 
L 3481 0 
L 794 0 
L 794 531 
z
" transform="scale(0.015625)"/>
        <path id="DejaVuSans-39" d="M 703 97 
L 703 672 
Q 941 559 1184 500 
Q 1428 441 1663 441 
Q 2288 441 2617 861 
Q 2947 1281 2994 2138 
Q 2813 1869 2534 1725 
Q 2256 1581 1919 1581 
Q 1219 1581 811 2004 
Q 403 2428 403 3163 
Q 403 3881 828 4315 
Q 1253 4750 1959 4750 
Q 2769 4750 3195 4129 
Q 3622 3509 3622 2328 
Q 3622 1225 3098 567 
Q 2575 -91 1691 -91 
Q 1453 -91 1209 -44 
Q 966 3 703 97 
z
M 1959 2075 
Q 2384 2075 2632 2365 
Q 2881 2656 2881 3163 
Q 2881 3666 2632 3958 
Q 2384 4250 1959 4250 
Q 1534 4250 1286 3958 
Q 1038 3666 1038 3163 
Q 1038 2656 1286 2365 
Q 1534 2075 1959 2075 
z
" transform="scale(0.015625)"/>
        <path id="DejaVuSans-32" d="M 1228 531 
L 3431 531 
L 3431 0 
L 469 0 
L 469 531 
Q 828 903 1448 1529 
Q 2069 2156 2228 2338 
Q 2531 2678 2651 2914 
Q 2772 3150 2772 3378 
Q 2772 3750 2511 3984 
Q 2250 4219 1831 4219 
Q 1534 4219 1204 4116 
Q 875 4013 500 3803 
L 500 4441 
Q 881 4594 1212 4672 
Q 1544 4750 1819 4750 
Q 2544 4750 2975 4387 
Q 3406 4025 3406 3419 
Q 3406 3131 3298 2873 
Q 3191 2616 2906 2266 
Q 2828 2175 2409 1742 
Q 1991 1309 1228 531 
z
" transform="scale(0.015625)"/>
       </defs>
       <use xlink:href="#DejaVuSans-31"/>
       <use xlink:href="#DejaVuSans-39" transform="translate(63.623047 0)"/>
       <use xlink:href="#DejaVuSans-39" transform="translate(127.246094 0)"/>
       <use xlink:href="#DejaVuSans-32" transform="translate(190.869141 0)"/>
      </g>
     </g>
    </g>
    <g id="xtick_2">
     <g id="line2d_3">
      <path d="M 115.289808 299.518125 
L 115.289808 22.318125 
" clip-path="url(#pea76b512db)" style="fill: none; stroke: #b0b0b0; stroke-width: 0.8; stroke-linecap: square"/>
     </g>
     <g id="line2d_4">
      <g>
       <use xlink:href="#m8d19d9a982" x="115.289808" y="299.518125" style="stroke: #000000; stroke-width: 0.8"/>
      </g>
     </g>
     <g id="text_2">
      <!-- 1996 -->
      <g transform="translate(108.243047 329.886899) rotate(-45) scale(0.1 -0.1)">
       <defs>
        <path id="DejaVuSans-36" d="M 2113 2584 
Q 1688 2584 1439 2293 
Q 1191 2003 1191 1497 
Q 1191 994 1439 701 
Q 1688 409 2113 409 
Q 2538 409 2786 701 
Q 3034 994 3034 1497 
Q 3034 2003 2786 2293 
Q 2538 2584 2113 2584 
z
M 3366 4563 
L 3366 3988 
Q 3128 4100 2886 4159 
Q 2644 4219 2406 4219 
Q 1781 4219 1451 3797 
Q 1122 3375 1075 2522 
Q 1259 2794 1537 2939 
Q 1816 3084 2150 3084 
Q 2853 3084 3261 2657 
Q 3669 2231 3669 1497 
Q 3669 778 3244 343 
Q 2819 -91 2113 -91 
Q 1303 -91 875 529 
Q 447 1150 447 2328 
Q 447 3434 972 4092 
Q 1497 4750 2381 4750 
Q 2619 4750 2861 4703 
Q 3103 4656 3366 4563 
z
" transform="scale(0.015625)"/>
       </defs>
       <use xlink:href="#DejaVuSans-31"/>
       <use xlink:href="#DejaVuSans-39" transform="translate(63.623047 0)"/>
       <use xlink:href="#DejaVuSans-39" transform="translate(127.246094 0)"/>
       <use xlink:href="#DejaVuSans-36" transform="translate(190.869141 0)"/>
      </g>
     </g>
    </g>
    <g id="xtick_3">
     <g id="line2d_5">
      <path d="M 182.372126 299.518125 
L 182.372126 22.318125 
" clip-path="url(#pea76b512db)" style="fill: none; stroke: #b0b0b0; stroke-width: 0.8; stroke-linecap: square"/>
     </g>
     <g id="line2d_6">
      <g>
       <use xlink:href="#m8d19d9a982" x="182.372126" y="299.518125" style="stroke: #000000; stroke-width: 0.8"/>
      </g>
     </g>
     <g id="text_3">
      <!-- 2000 -->
      <g transform="translate(175.325365 329.886899) rotate(-45) scale(0.1 -0.1)">
       <defs>
        <path id="DejaVuSans-30" d="M 2034 4250 
Q 1547 4250 1301 3770 
Q 1056 3291 1056 2328 
Q 1056 1369 1301 889 
Q 1547 409 2034 409 
Q 2525 409 2770 889 
Q 3016 1369 3016 2328 
Q 3016 3291 2770 3770 
Q 2525 4250 2034 4250 
z
M 2034 4750 
Q 2819 4750 3233 4129 
Q 3647 3509 3647 2328 
Q 3647 1150 3233 529 
Q 2819 -91 2034 -91 
Q 1250 -91 836 529 
Q 422 1150 422 2328 
Q 422 3509 836 4129 
Q 1250 4750 2034 4750 
z
" transform="scale(0.015625)"/>
       </defs>
       <use xlink:href="#DejaVuSans-32"/>
       <use xlink:href="#DejaVuSans-30" transform="translate(63.623047 0)"/>
       <use xlink:href="#DejaVuSans-30" transform="translate(127.246094 0)"/>
       <use xlink:href="#DejaVuSans-30" transform="translate(190.869141 0)"/>
      </g>
     </g>
    </g>
    <g id="xtick_4">
     <g id="line2d_7">
      <path d="M 249.454445 299.518125 
L 249.454445 22.318125 
" clip-path="url(#pea76b512db)" style="fill: none; stroke: #b0b0b0; stroke-width: 0.8; stroke-linecap: square"/>
     </g>
     <g id="line2d_8">
      <g>
       <use xlink:href="#m8d19d9a982" x="249.454445" y="299.518125" style="stroke: #000000; stroke-width: 0.8"/>
      </g>
     </g>
     <g id="text_4">
      <!-- 2004 -->
      <g transform="translate(242.407684 329.886899) rotate(-45) scale(0.1 -0.1)">
       <defs>
        <path id="DejaVuSans-34" d="M 2419 4116 
L 825 1625 
L 2419 1625 
L 2419 4116 
z
M 2253 4666 
L 3047 4666 
L 3047 1625 
L 3713 1625 
L 3713 1100 
L 3047 1100 
L 3047 0 
L 2419 0 
L 2419 1100 
L 313 1100 
L 313 1709 
L 2253 4666 
z
" transform="scale(0.015625)"/>
       </defs>
       <use xlink:href="#DejaVuSans-32"/>
       <use xlink:href="#DejaVuSans-30" transform="translate(63.623047 0)"/>
       <use xlink:href="#DejaVuSans-30" transform="translate(127.246094 0)"/>
       <use xlink:href="#DejaVuSans-34" transform="translate(190.869141 0)"/>
      </g>
     </g>
    </g>
    <g id="xtick_5">
     <g id="line2d_9">
      <path d="M 316.536763 299.518125 
L 316.536763 22.318125 
" clip-path="url(#pea76b512db)" style="fill: none; stroke: #b0b0b0; stroke-width: 0.8; stroke-linecap: square"/>
     </g>
     <g id="line2d_10">
      <g>
       <use xlink:href="#m8d19d9a982" x="316.536763" y="299.518125" style="stroke: #000000; stroke-width: 0.8"/>
      </g>
     </g>
     <g id="text_5">
      <!-- 2008 -->
      <g transform="translate(309.490002 329.886899) rotate(-45) scale(0.1 -0.1)">
       <defs>
        <path id="DejaVuSans-38" d="M 2034 2216 
Q 1584 2216 1326 1975 
Q 1069 1734 1069 1313 
Q 1069 891 1326 650 
Q 1584 409 2034 409 
Q 2484 409 2743 651 
Q 3003 894 3003 1313 
Q 3003 1734 2745 1975 
Q 2488 2216 2034 2216 
z
M 1403 2484 
Q 997 2584 770 2862 
Q 544 3141 544 3541 
Q 544 4100 942 4425 
Q 1341 4750 2034 4750 
Q 2731 4750 3128 4425 
Q 3525 4100 3525 3541 
Q 3525 3141 3298 2862 
Q 3072 2584 2669 2484 
Q 3125 2378 3379 2068 
Q 3634 1759 3634 1313 
Q 3634 634 3220 271 
Q 2806 -91 2034 -91 
Q 1263 -91 848 271 
Q 434 634 434 1313 
Q 434 1759 690 2068 
Q 947 2378 1403 2484 
z
M 1172 3481 
Q 1172 3119 1398 2916 
Q 1625 2713 2034 2713 
Q 2441 2713 2670 2916 
Q 2900 3119 2900 3481 
Q 2900 3844 2670 4047 
Q 2441 4250 2034 4250 
Q 1625 4250 1398 4047 
Q 1172 3844 1172 3481 
z
" transform="scale(0.015625)"/>
       </defs>
       <use xlink:href="#DejaVuSans-32"/>
       <use xlink:href="#DejaVuSans-30" transform="translate(63.623047 0)"/>
       <use xlink:href="#DejaVuSans-30" transform="translate(127.246094 0)"/>
       <use xlink:href="#DejaVuSans-38" transform="translate(190.869141 0)"/>
      </g>
     </g>
    </g>
    <g id="xtick_6">
     <g id="line2d_11">
      <path d="M 383.619082 299.518125 
L 383.619082 22.318125 
" clip-path="url(#pea76b512db)" style="fill: none; stroke: #b0b0b0; stroke-width: 0.8; stroke-linecap: square"/>
     </g>
     <g id="line2d_12">
      <g>
       <use xlink:href="#m8d19d9a982" x="383.619082" y="299.518125" style="stroke: #000000; stroke-width: 0.8"/>
      </g>
     </g>
     <g id="text_6">
      <!-- 2012 -->
      <g transform="translate(376.572321 329.886899) rotate(-45) scale(0.1 -0.1)">
       <use xlink:href="#DejaVuSans-32"/>
       <use xlink:href="#DejaVuSans-30" transform="translate(63.623047 0)"/>
       <use xlink:href="#DejaVuSans-31" transform="translate(127.246094 0)"/>
       <use xlink:href="#DejaVuSans-32" transform="translate(190.869141 0)"/>
      </g>
     </g>
    </g>
    <g id="xtick_7">
     <g id="line2d_13">
      <path d="M 450.7014 299.518125 
L 450.7014 22.318125 
" clip-path="url(#pea76b512db)" style="fill: none; stroke: #b0b0b0; stroke-width: 0.8; stroke-linecap: square"/>
     </g>
     <g id="line2d_14">
      <g>
       <use xlink:href="#m8d19d9a982" x="450.7014" y="299.518125" style="stroke: #000000; stroke-width: 0.8"/>
      </g>
     </g>
     <g id="text_7">
      <!-- 2016 -->
      <g transform="translate(443.654639 329.886899) rotate(-45) scale(0.1 -0.1)">
       <use xlink:href="#DejaVuSans-32"/>
       <use xlink:href="#DejaVuSans-30" transform="translate(63.623047 0)"/>
       <use xlink:href="#DejaVuSans-31" transform="translate(127.246094 0)"/>
       <use xlink:href="#DejaVuSans-36" transform="translate(190.869141 0)"/>
      </g>
     </g>
    </g>
    <g id="xtick_8">
     <g id="line2d_15">
      <path d="M 517.783719 299.518125 
L 517.783719 22.318125 
" clip-path="url(#pea76b512db)" style="fill: none; stroke: #b0b0b0; stroke-width: 0.8; stroke-linecap: square"/>
     </g>
     <g id="line2d_16">
      <g>
       <use xlink:href="#m8d19d9a982" x="517.783719" y="299.518125" style="stroke: #000000; stroke-width: 0.8"/>
      </g>
     </g>
     <g id="text_8">
      <!-- 2020 -->
      <g transform="translate(510.736958 329.886899) rotate(-45) scale(0.1 -0.1)">
       <use xlink:href="#DejaVuSans-32"/>
       <use xlink:href="#DejaVuSans-30" transform="translate(63.623047 0)"/>
       <use xlink:href="#DejaVuSans-32" transform="translate(127.246094 0)"/>
       <use xlink:href="#DejaVuSans-30" transform="translate(190.869141 0)"/>
      </g>
     </g>
    </g>
    <g id="xtick_9">
     <g id="line2d_17">
      <path d="M 584.866037 299.518125 
L 584.866037 22.318125 
" clip-path="url(#pea76b512db)" style="fill: none; stroke: #b0b0b0; stroke-width: 0.8; stroke-linecap: square"/>
     </g>
     <g id="line2d_18">
      <g>
       <use xlink:href="#m8d19d9a982" x="584.866037" y="299.518125" style="stroke: #000000; stroke-width: 0.8"/>
      </g>
     </g>
     <g id="text_9">
      <!-- 2024 -->
      <g transform="translate(577.819276 329.886899) rotate(-45) scale(0.1 -0.1)">
       <use xlink:href="#DejaVuSans-32"/>
       <use xlink:href="#DejaVuSans-30" transform="translate(63.623047 0)"/>
       <use xlink:href="#DejaVuSans-32" transform="translate(127.246094 0)"/>
       <use xlink:href="#DejaVuSans-34" transform="translate(190.869141 0)"/>
      </g>
     </g>
    </g>
    <g id="text_10">
     <!-- Date -->
     <g transform="translate(310.830469 342.955898) scale(0.1 -0.1)">
      <defs>
       <path id="DejaVuSans-44" d="M 1259 4147 
L 1259 519 
L 2022 519 
Q 2988 519 3436 956 
Q 3884 1394 3884 2338 
Q 3884 3275 3436 3711 
Q 2988 4147 2022 4147 
L 1259 4147 
z
M 628 4666 
L 1925 4666 
Q 3281 4666 3915 4102 
Q 4550 3538 4550 2338 
Q 4550 1131 3912 565 
Q 3275 0 1925 0 
L 628 0 
L 628 4666 
z
" transform="scale(0.015625)"/>
       <path id="DejaVuSans-61" d="M 2194 1759 
Q 1497 1759 1228 1600 
Q 959 1441 959 1056 
Q 959 750 1161 570 
Q 1363 391 1709 391 
Q 2188 391 2477 730 
Q 2766 1069 2766 1631 
L 2766 1759 
L 2194 1759 
z
M 3341 1997 
L 3341 0 
L 2766 0 
L 2766 531 
Q 2569 213 2275 61 
Q 1981 -91 1556 -91 
Q 1019 -91 701 211 
Q 384 513 384 1019 
Q 384 1609 779 1909 
Q 1175 2209 1959 2209 
L 2766 2209 
L 2766 2266 
Q 2766 2663 2505 2880 
Q 2244 3097 1772 3097 
Q 1472 3097 1187 3025 
Q 903 2953 641 2809 
L 641 3341 
Q 956 3463 1253 3523 
Q 1550 3584 1831 3584 
Q 2591 3584 2966 3190 
Q 3341 2797 3341 1997 
z
" transform="scale(0.015625)"/>
       <path id="DejaVuSans-74" d="M 1172 4494 
L 1172 3500 
L 2356 3500 
L 2356 3053 
L 1172 3053 
L 1172 1153 
Q 1172 725 1289 603 
Q 1406 481 1766 481 
L 2356 481 
L 2356 0 
L 1766 0 
Q 1100 0 847 248 
Q 594 497 594 1153 
L 594 3053 
L 172 3053 
L 172 3500 
L 594 3500 
L 594 4494 
L 1172 4494 
z
" transform="scale(0.015625)"/>
       <path id="DejaVuSans-65" d="M 3597 1894 
L 3597 1613 
L 953 1613 
Q 991 1019 1311 708 
Q 1631 397 2203 397 
Q 2534 397 2845 478 
Q 3156 559 3463 722 
L 3463 178 
Q 3153 47 2828 -22 
Q 2503 -91 2169 -91 
Q 1331 -91 842 396 
Q 353 884 353 1716 
Q 353 2575 817 3079 
Q 1281 3584 2069 3584 
Q 2775 3584 3186 3129 
Q 3597 2675 3597 1894 
z
M 3022 2063 
Q 3016 2534 2758 2815 
Q 2500 3097 2075 3097 
Q 1594 3097 1305 2825 
Q 1016 2553 972 2059 
L 3022 2063 
z
" transform="scale(0.015625)"/>
      </defs>
      <use xlink:href="#DejaVuSans-44"/>
      <use xlink:href="#DejaVuSans-61" transform="translate(77.001953 0)"/>
      <use xlink:href="#DejaVuSans-74" transform="translate(138.28125 0)"/>
      <use xlink:href="#DejaVuSans-65" transform="translate(177.490234 0)"/>
     </g>
    </g>
   </g>
   <g id="matplotlib.axis_2">
    <g id="ytick_1">
     <g id="line2d_19">
      <path d="M 43.78125 276.061406 
L 601.78125 276.061406 
" clip-path="url(#pea76b512db)" style="fill: none; stroke: #b0b0b0; stroke-width: 0.8; stroke-linecap: square"/>
     </g>
     <g id="line2d_20">
      <defs>
       <path id="me862df89bd" d="M 0 0 
L -3.5 0 
" style="stroke: #000000; stroke-width: 0.8"/>
      </defs>
      <g>
       <use xlink:href="#me862df89bd" x="43.78125" y="276.061406" style="stroke: #000000; stroke-width: 0.8"/>
      </g>
     </g>
     <g id="text_11">
      <!-- 0.6 -->
      <g transform="translate(20.878125 279.860625) scale(0.1 -0.1)">
       <defs>
        <path id="DejaVuSans-2e" d="M 684 794 
L 1344 794 
L 1344 0 
L 684 0 
L 684 794 
z
" transform="scale(0.015625)"/>
       </defs>
       <use xlink:href="#DejaVuSans-30"/>
       <use xlink:href="#DejaVuSans-2e" transform="translate(63.623047 0)"/>
       <use xlink:href="#DejaVuSans-36" transform="translate(95.410156 0)"/>
      </g>
     </g>
    </g>
    <g id="ytick_2">
     <g id="line2d_21">
      <path d="M 43.78125 240.520609 
L 601.78125 240.520609 
" clip-path="url(#pea76b512db)" style="fill: none; stroke: #b0b0b0; stroke-width: 0.8; stroke-linecap: square"/>
     </g>
     <g id="line2d_22">
      <g>
       <use xlink:href="#me862df89bd" x="43.78125" y="240.520609" style="stroke: #000000; stroke-width: 0.8"/>
      </g>
     </g>
     <g id="text_12">
      <!-- 0.7 -->
      <g transform="translate(20.878125 244.319828) scale(0.1 -0.1)">
       <defs>
        <path id="DejaVuSans-37" d="M 525 4666 
L 3525 4666 
L 3525 4397 
L 1831 0 
L 1172 0 
L 2766 4134 
L 525 4134 
L 525 4666 
z
" transform="scale(0.015625)"/>
       </defs>
       <use xlink:href="#DejaVuSans-30"/>
       <use xlink:href="#DejaVuSans-2e" transform="translate(63.623047 0)"/>
       <use xlink:href="#DejaVuSans-37" transform="translate(95.410156 0)"/>
      </g>
     </g>
    </g>
    <g id="ytick_3">
     <g id="line2d_23">
      <path d="M 43.78125 204.979811 
L 601.78125 204.979811 
" clip-path="url(#pea76b512db)" style="fill: none; stroke: #b0b0b0; stroke-width: 0.8; stroke-linecap: square"/>
     </g>
     <g id="line2d_24">
      <g>
       <use xlink:href="#me862df89bd" x="43.78125" y="204.979811" style="stroke: #000000; stroke-width: 0.8"/>
      </g>
     </g>
     <g id="text_13">
      <!-- 0.8 -->
      <g transform="translate(20.878125 208.77903) scale(0.1 -0.1)">
       <use xlink:href="#DejaVuSans-30"/>
       <use xlink:href="#DejaVuSans-2e" transform="translate(63.623047 0)"/>
       <use xlink:href="#DejaVuSans-38" transform="translate(95.410156 0)"/>
      </g>
     </g>
    </g>
    <g id="ytick_4">
     <g id="line2d_25">
      <path d="M 43.78125 169.439013 
L 601.78125 169.439013 
" clip-path="url(#pea76b512db)" style="fill: none; stroke: #b0b0b0; stroke-width: 0.8; stroke-linecap: square"/>
     </g>
     <g id="line2d_26">
      <g>
       <use xlink:href="#me862df89bd" x="43.78125" y="169.439013" style="stroke: #000000; stroke-width: 0.8"/>
      </g>
     </g>
     <g id="text_14">
      <!-- 0.9 -->
      <g transform="translate(20.878125 173.238232) scale(0.1 -0.1)">
       <use xlink:href="#DejaVuSans-30"/>
       <use xlink:href="#DejaVuSans-2e" transform="translate(63.623047 0)"/>
       <use xlink:href="#DejaVuSans-39" transform="translate(95.410156 0)"/>
      </g>
     </g>
    </g>
    <g id="ytick_5">
     <g id="line2d_27">
      <path d="M 43.78125 133.898216 
L 601.78125 133.898216 
" clip-path="url(#pea76b512db)" style="fill: none; stroke: #b0b0b0; stroke-width: 0.8; stroke-linecap: square"/>
     </g>
     <g id="line2d_28">
      <g>
       <use xlink:href="#me862df89bd" x="43.78125" y="133.898216" style="stroke: #000000; stroke-width: 0.8"/>
      </g>
     </g>
     <g id="text_15">
      <!-- 1.0 -->
      <g transform="translate(20.878125 137.697435) scale(0.1 -0.1)">
       <use xlink:href="#DejaVuSans-31"/>
       <use xlink:href="#DejaVuSans-2e" transform="translate(63.623047 0)"/>
       <use xlink:href="#DejaVuSans-30" transform="translate(95.410156 0)"/>
      </g>
     </g>
    </g>
    <g id="ytick_6">
     <g id="line2d_29">
      <path d="M 43.78125 98.357418 
L 601.78125 98.357418 
" clip-path="url(#pea76b512db)" style="fill: none; stroke: #b0b0b0; stroke-width: 0.8; stroke-linecap: square"/>
     </g>
     <g id="line2d_30">
      <g>
       <use xlink:href="#me862df89bd" x="43.78125" y="98.357418" style="stroke: #000000; stroke-width: 0.8"/>
      </g>
     </g>
     <g id="text_16">
      <!-- 1.1 -->
      <g transform="translate(20.878125 102.156637) scale(0.1 -0.1)">
       <use xlink:href="#DejaVuSans-31"/>
       <use xlink:href="#DejaVuSans-2e" transform="translate(63.623047 0)"/>
       <use xlink:href="#DejaVuSans-31" transform="translate(95.410156 0)"/>
      </g>
     </g>
    </g>
    <g id="ytick_7">
     <g id="line2d_31">
      <path d="M 43.78125 62.81662 
L 601.78125 62.81662 
" clip-path="url(#pea76b512db)" style="fill: none; stroke: #b0b0b0; stroke-width: 0.8; stroke-linecap: square"/>
     </g>
     <g id="line2d_32">
      <g>
       <use xlink:href="#me862df89bd" x="43.78125" y="62.81662" style="stroke: #000000; stroke-width: 0.8"/>
      </g>
     </g>
     <g id="text_17">
      <!-- 1.2 -->
      <g transform="translate(20.878125 66.615839) scale(0.1 -0.1)">
       <use xlink:href="#DejaVuSans-31"/>
       <use xlink:href="#DejaVuSans-2e" transform="translate(63.623047 0)"/>
       <use xlink:href="#DejaVuSans-32" transform="translate(95.410156 0)"/>
      </g>
     </g>
    </g>
    <g id="ytick_8">
     <g id="line2d_33">
      <path d="M 43.78125 27.275823 
L 601.78125 27.275823 
" clip-path="url(#pea76b512db)" style="fill: none; stroke: #b0b0b0; stroke-width: 0.8; stroke-linecap: square"/>
     </g>
     <g id="line2d_34">
      <g>
       <use xlink:href="#me862df89bd" x="43.78125" y="27.275823" style="stroke: #000000; stroke-width: 0.8"/>
      </g>
     </g>
     <g id="text_18">
      <!-- 1.3 -->
      <g transform="translate(20.878125 31.075042) scale(0.1 -0.1)">
       <defs>
        <path id="DejaVuSans-33" d="M 2597 2516 
Q 3050 2419 3304 2112 
Q 3559 1806 3559 1356 
Q 3559 666 3084 287 
Q 2609 -91 1734 -91 
Q 1441 -91 1130 -33 
Q 819 25 488 141 
L 488 750 
Q 750 597 1062 519 
Q 1375 441 1716 441 
Q 2309 441 2620 675 
Q 2931 909 2931 1356 
Q 2931 1769 2642 2001 
Q 2353 2234 1838 2234 
L 1294 2234 
L 1294 2753 
L 1863 2753 
Q 2328 2753 2575 2939 
Q 2822 3125 2822 3475 
Q 2822 3834 2567 4026 
Q 2313 4219 1838 4219 
Q 1578 4219 1281 4162 
Q 984 4106 628 3988 
L 628 4550 
Q 988 4650 1302 4700 
Q 1616 4750 1894 4750 
Q 2613 4750 3031 4423 
Q 3450 4097 3450 3541 
Q 3450 3153 3228 2886 
Q 3006 2619 2597 2516 
z
" transform="scale(0.015625)"/>
       </defs>
       <use xlink:href="#DejaVuSans-31"/>
       <use xlink:href="#DejaVuSans-2e" transform="translate(63.623047 0)"/>
       <use xlink:href="#DejaVuSans-33" transform="translate(95.410156 0)"/>
      </g>
     </g>
    </g>
    <g id="text_19">
     <!-- HirAEndRepl -->
     <g transform="translate(14.798438 191.934531) rotate(-90) scale(0.1 -0.1)">
      <defs>
       <path id="DejaVuSans-48" d="M 628 4666 
L 1259 4666 
L 1259 2753 
L 3553 2753 
L 3553 4666 
L 4184 4666 
L 4184 0 
L 3553 0 
L 3553 2222 
L 1259 2222 
L 1259 0 
L 628 0 
L 628 4666 
z
" transform="scale(0.015625)"/>
       <path id="DejaVuSans-69" d="M 603 3500 
L 1178 3500 
L 1178 0 
L 603 0 
L 603 3500 
z
M 603 4863 
L 1178 4863 
L 1178 4134 
L 603 4134 
L 603 4863 
z
" transform="scale(0.015625)"/>
       <path id="DejaVuSans-72" d="M 2631 2963 
Q 2534 3019 2420 3045 
Q 2306 3072 2169 3072 
Q 1681 3072 1420 2755 
Q 1159 2438 1159 1844 
L 1159 0 
L 581 0 
L 581 3500 
L 1159 3500 
L 1159 2956 
Q 1341 3275 1631 3429 
Q 1922 3584 2338 3584 
Q 2397 3584 2469 3576 
Q 2541 3569 2628 3553 
L 2631 2963 
z
" transform="scale(0.015625)"/>
       <path id="DejaVuSans-41" d="M 2188 4044 
L 1331 1722 
L 3047 1722 
L 2188 4044 
z
M 1831 4666 
L 2547 4666 
L 4325 0 
L 3669 0 
L 3244 1197 
L 1141 1197 
L 716 0 
L 50 0 
L 1831 4666 
z
" transform="scale(0.015625)"/>
       <path id="DejaVuSans-45" d="M 628 4666 
L 3578 4666 
L 3578 4134 
L 1259 4134 
L 1259 2753 
L 3481 2753 
L 3481 2222 
L 1259 2222 
L 1259 531 
L 3634 531 
L 3634 0 
L 628 0 
L 628 4666 
z
" transform="scale(0.015625)"/>
       <path id="DejaVuSans-6e" d="M 3513 2113 
L 3513 0 
L 2938 0 
L 2938 2094 
Q 2938 2591 2744 2837 
Q 2550 3084 2163 3084 
Q 1697 3084 1428 2787 
Q 1159 2491 1159 1978 
L 1159 0 
L 581 0 
L 581 3500 
L 1159 3500 
L 1159 2956 
Q 1366 3272 1645 3428 
Q 1925 3584 2291 3584 
Q 2894 3584 3203 3211 
Q 3513 2838 3513 2113 
z
" transform="scale(0.015625)"/>
       <path id="DejaVuSans-64" d="M 2906 2969 
L 2906 4863 
L 3481 4863 
L 3481 0 
L 2906 0 
L 2906 525 
Q 2725 213 2448 61 
Q 2172 -91 1784 -91 
Q 1150 -91 751 415 
Q 353 922 353 1747 
Q 353 2572 751 3078 
Q 1150 3584 1784 3584 
Q 2172 3584 2448 3432 
Q 2725 3281 2906 2969 
z
M 947 1747 
Q 947 1113 1208 752 
Q 1469 391 1925 391 
Q 2381 391 2643 752 
Q 2906 1113 2906 1747 
Q 2906 2381 2643 2742 
Q 2381 3103 1925 3103 
Q 1469 3103 1208 2742 
Q 947 2381 947 1747 
z
" transform="scale(0.015625)"/>
       <path id="DejaVuSans-52" d="M 2841 2188 
Q 3044 2119 3236 1894 
Q 3428 1669 3622 1275 
L 4263 0 
L 3584 0 
L 2988 1197 
Q 2756 1666 2539 1819 
Q 2322 1972 1947 1972 
L 1259 1972 
L 1259 0 
L 628 0 
L 628 4666 
L 2053 4666 
Q 2853 4666 3247 4331 
Q 3641 3997 3641 3322 
Q 3641 2881 3436 2590 
Q 3231 2300 2841 2188 
z
M 1259 4147 
L 1259 2491 
L 2053 2491 
Q 2509 2491 2742 2702 
Q 2975 2913 2975 3322 
Q 2975 3731 2742 3939 
Q 2509 4147 2053 4147 
L 1259 4147 
z
" transform="scale(0.015625)"/>
       <path id="DejaVuSans-70" d="M 1159 525 
L 1159 -1331 
L 581 -1331 
L 581 3500 
L 1159 3500 
L 1159 2969 
Q 1341 3281 1617 3432 
Q 1894 3584 2278 3584 
Q 2916 3584 3314 3078 
Q 3713 2572 3713 1747 
Q 3713 922 3314 415 
Q 2916 -91 2278 -91 
Q 1894 -91 1617 61 
Q 1341 213 1159 525 
z
M 3116 1747 
Q 3116 2381 2855 2742 
Q 2594 3103 2138 3103 
Q 1681 3103 1420 2742 
Q 1159 2381 1159 1747 
Q 1159 1113 1420 752 
Q 1681 391 2138 391 
Q 2594 391 2855 752 
Q 3116 1113 3116 1747 
z
" transform="scale(0.015625)"/>
       <path id="DejaVuSans-6c" d="M 603 4863 
L 1178 4863 
L 1178 0 
L 603 0 
L 603 4863 
z
" transform="scale(0.015625)"/>
      </defs>
      <use xlink:href="#DejaVuSans-48"/>
      <use xlink:href="#DejaVuSans-69" transform="translate(75.195312 0)"/>
      <use xlink:href="#DejaVuSans-72" transform="translate(102.978516 0)"/>
      <use xlink:href="#DejaVuSans-41" transform="translate(144.091797 0)"/>
      <use xlink:href="#DejaVuSans-45" transform="translate(212.5 0)"/>
      <use xlink:href="#DejaVuSans-6e" transform="translate(275.683594 0)"/>
      <use xlink:href="#DejaVuSans-64" transform="translate(339.0625 0)"/>
      <use xlink:href="#DejaVuSans-52" transform="translate(402.539062 0)"/>
      <use xlink:href="#DejaVuSans-65" transform="translate(467.521484 0)"/>
      <use xlink:href="#DejaVuSans-70" transform="translate(529.044922 0)"/>
      <use xlink:href="#DejaVuSans-6c" transform="translate(592.521484 0)"/>
     </g>
    </g>
    <g id="text_20">
     <!-- 1e7 -->
     <g transform="translate(43.78125 19.318125) scale(0.1 -0.1)">
      <use xlink:href="#DejaVuSans-31"/>
      <use xlink:href="#DejaVuSans-65" transform="translate(63.623047 0)"/>
      <use xlink:href="#DejaVuSans-37" transform="translate(125.146484 0)"/>
     </g>
    </g>
   </g>
   <g id="line2d_35">
    <path d="M 69.144886 86.04637 
L 73.323183 163.700241 
L 77.547394 213.149752 
L 81.771606 231.616537 
L 85.903987 168.290513 
L 90.082284 127.978327 
L 94.306495 190.291084 
L 98.530707 206.825622 
L 102.663088 149.959387 
L 106.841384 115.79025 
L 111.065596 176.983401 
L 115.289808 199.248644 
L 119.468104 139.73437 
L 123.6464 111.560114 
L 127.870612 168.893995 
L 132.094824 183.89406 
L 136.227205 122.587037 
L 140.405501 96.760144 
L 144.629713 152.08103 
L 148.853925 151.375936 
L 152.986306 110.508071 
L 157.164602 80.06855 
L 161.388814 135.96534 
L 165.613025 162.640201 
L 169.745406 98.507187 
L 173.923703 65.44369 
L 178.147914 119.035267 
L 182.372126 132.352013 
L 186.550423 75.123546 
L 190.728719 56.980537 
L 194.952931 125.575663 
L 199.177142 156.723689 
L 203.309523 117.607096 
L 207.48782 105.492375 
L 211.712031 180.98764 
L 215.936243 201.352695 
L 220.068624 148.951876 
L 224.24692 128.332598 
L 228.471132 192.893594 
L 232.695344 215.071585 
L 236.827725 174.476246 
L 241.006021 145.64189 
L 245.230233 194.534193 
L 249.454445 207.861779 
L 253.632741 153.182901 
L 257.811037 124.712164 
L 262.035249 172.226016 
L 266.259461 193.316779 
L 270.391842 133.009483 
L 274.570138 95.567892 
L 278.79435 159.862368 
L 283.018562 167.520841 
L 287.150943 116.185393 
L 291.329239 96.289761 
L 295.553451 159.49381 
L 299.777662 172.080868 
L 303.910043 120.339259 
L 308.08834 103.495054 
L 312.312551 166.319953 
L 316.536763 189.242097 
L 320.715059 157.141009 
L 324.893356 144.074257 
L 329.117568 224.50262 
L 333.341779 274.698772 
L 337.47416 252.245553 
L 341.652457 233.552516 
L 345.876668 267.527386 
L 350.10088 286.918125 
L 354.233261 231.385593 
L 358.411557 204.583176 
L 362.635769 244.574854 
L 366.859981 265.734886 
L 370.992362 213.960402 
L 375.170658 180.765333 
L 379.39487 239.743189 
L 383.619082 243.488159 
L 387.797378 196.324632 
L 391.975674 174.245089 
L 396.199886 226.227415 
L 400.424098 234.245277 
L 404.556479 180.746212 
L 408.734775 150.984028 
L 412.958987 203.925031 
L 417.183199 219.013522 
L 421.31558 157.540665 
L 425.493876 128.731224 
L 429.718088 177.10655 
L 433.942299 200.513079 
L 438.07468 138.477363 
L 442.252977 110.182979 
L 446.477188 156.373861 
L 450.7014 190.853801 
L 454.879696 129.833735 
L 459.057993 91.87037 
L 463.282205 163.181736 
L 467.506416 173.628456 
L 471.638797 117.641535 
L 475.817094 97.296845 
L 480.041305 149.213847 
L 484.265517 161.114612 
L 488.397898 104.998963 
L 492.576194 82.757531 
L 496.800406 138.979377 
L 501.024618 163.256265 
L 505.156999 103.464702 
L 509.335295 80.461063 
L 513.559507 138.685099 
L 517.783719 181.454078 
L 521.962015 254.570028 
L 526.140311 155.710776 
L 530.364523 164.892528 
L 534.588735 198.04605 
L 538.721116 101.700137 
L 542.899412 50.414979 
L 547.123624 86.553075 
L 551.347835 131.160579 
L 555.480216 70.928203 
L 559.658513 34.918125 
L 563.882725 120.918432 
L 568.106936 143.693864 
L 572.239317 105.312184 
L 576.417614 86.053407 
" clip-path="url(#pea76b512db)" style="fill: none; stroke: #1f77b4; stroke-width: 1.5; stroke-linecap: square"/>
    <defs>
     <path id="m7179ef4174" d="M 0 3 
C 0.795609 3 1.55874 2.683901 2.12132 2.12132 
C 2.683901 1.55874 3 0.795609 3 0 
C 3 -0.795609 2.683901 -1.55874 2.12132 -2.12132 
C 1.55874 -2.683901 0.795609 -3 0 -3 
C -0.795609 -3 -1.55874 -2.683901 -2.12132 -2.12132 
C -2.683901 -1.55874 -3 -0.795609 -3 0 
C -3 0.795609 -2.683901 1.55874 -2.12132 2.12132 
C -1.55874 2.683901 -0.795609 3 0 3 
z
" style="stroke: #1f77b4"/>
    </defs>
    <g clip-path="url(#pea76b512db)">
     <use xlink:href="#m7179ef4174" x="69.144886" y="86.04637" style="fill: #1f77b4; stroke: #1f77b4"/>
     <use xlink:href="#m7179ef4174" x="73.323183" y="163.700241" style="fill: #1f77b4; stroke: #1f77b4"/>
     <use xlink:href="#m7179ef4174" x="77.547394" y="213.149752" style="fill: #1f77b4; stroke: #1f77b4"/>
     <use xlink:href="#m7179ef4174" x="81.771606" y="231.616537" style="fill: #1f77b4; stroke: #1f77b4"/>
     <use xlink:href="#m7179ef4174" x="85.903987" y="168.290513" style="fill: #1f77b4; stroke: #1f77b4"/>
     <use xlink:href="#m7179ef4174" x="90.082284" y="127.978327" style="fill: #1f77b4; stroke: #1f77b4"/>
     <use xlink:href="#m7179ef4174" x="94.306495" y="190.291084" style="fill: #1f77b4; stroke: #1f77b4"/>
     <use xlink:href="#m7179ef4174" x="98.530707" y="206.825622" style="fill: #1f77b4; stroke: #1f77b4"/>
     <use xlink:href="#m7179ef4174" x="102.663088" y="149.959387" style="fill: #1f77b4; stroke: #1f77b4"/>
     <use xlink:href="#m7179ef4174" x="106.841384" y="115.79025" style="fill: #1f77b4; stroke: #1f77b4"/>
     <use xlink:href="#m7179ef4174" x="111.065596" y="176.983401" style="fill: #1f77b4; stroke: #1f77b4"/>
     <use xlink:href="#m7179ef4174" x="115.289808" y="199.248644" style="fill: #1f77b4; stroke: #1f77b4"/>
     <use xlink:href="#m7179ef4174" x="119.468104" y="139.73437" style="fill: #1f77b4; stroke: #1f77b4"/>
     <use xlink:href="#m7179ef4174" x="123.6464" y="111.560114" style="fill: #1f77b4; stroke: #1f77b4"/>
     <use xlink:href="#m7179ef4174" x="127.870612" y="168.893995" style="fill: #1f77b4; stroke: #1f77b4"/>
     <use xlink:href="#m7179ef4174" x="132.094824" y="183.89406" style="fill: #1f77b4; stroke: #1f77b4"/>
     <use xlink:href="#m7179ef4174" x="136.227205" y="122.587037" style="fill: #1f77b4; stroke: #1f77b4"/>
     <use xlink:href="#m7179ef4174" x="140.405501" y="96.760144" style="fill: #1f77b4; stroke: #1f77b4"/>
     <use xlink:href="#m7179ef4174" x="144.629713" y="152.08103" style="fill: #1f77b4; stroke: #1f77b4"/>
     <use xlink:href="#m7179ef4174" x="148.853925" y="151.375936" style="fill: #1f77b4; stroke: #1f77b4"/>
     <use xlink:href="#m7179ef4174" x="152.986306" y="110.508071" style="fill: #1f77b4; stroke: #1f77b4"/>
     <use xlink:href="#m7179ef4174" x="157.164602" y="80.06855" style="fill: #1f77b4; stroke: #1f77b4"/>
     <use xlink:href="#m7179ef4174" x="161.388814" y="135.96534" style="fill: #1f77b4; stroke: #1f77b4"/>
     <use xlink:href="#m7179ef4174" x="165.613025" y="162.640201" style="fill: #1f77b4; stroke: #1f77b4"/>
     <use xlink:href="#m7179ef4174" x="169.745406" y="98.507187" style="fill: #1f77b4; stroke: #1f77b4"/>
     <use xlink:href="#m7179ef4174" x="173.923703" y="65.44369" style="fill: #1f77b4; stroke: #1f77b4"/>
     <use xlink:href="#m7179ef4174" x="178.147914" y="119.035267" style="fill: #1f77b4; stroke: #1f77b4"/>
     <use xlink:href="#m7179ef4174" x="182.372126" y="132.352013" style="fill: #1f77b4; stroke: #1f77b4"/>
     <use xlink:href="#m7179ef4174" x="186.550423" y="75.123546" style="fill: #1f77b4; stroke: #1f77b4"/>
     <use xlink:href="#m7179ef4174" x="190.728719" y="56.980537" style="fill: #1f77b4; stroke: #1f77b4"/>
     <use xlink:href="#m7179ef4174" x="194.952931" y="125.575663" style="fill: #1f77b4; stroke: #1f77b4"/>
     <use xlink:href="#m7179ef4174" x="199.177142" y="156.723689" style="fill: #1f77b4; stroke: #1f77b4"/>
     <use xlink:href="#m7179ef4174" x="203.309523" y="117.607096" style="fill: #1f77b4; stroke: #1f77b4"/>
     <use xlink:href="#m7179ef4174" x="207.48782" y="105.492375" style="fill: #1f77b4; stroke: #1f77b4"/>
     <use xlink:href="#m7179ef4174" x="211.712031" y="180.98764" style="fill: #1f77b4; stroke: #1f77b4"/>
     <use xlink:href="#m7179ef4174" x="215.936243" y="201.352695" style="fill: #1f77b4; stroke: #1f77b4"/>
     <use xlink:href="#m7179ef4174" x="220.068624" y="148.951876" style="fill: #1f77b4; stroke: #1f77b4"/>
     <use xlink:href="#m7179ef4174" x="224.24692" y="128.332598" style="fill: #1f77b4; stroke: #1f77b4"/>
     <use xlink:href="#m7179ef4174" x="228.471132" y="192.893594" style="fill: #1f77b4; stroke: #1f77b4"/>
     <use xlink:href="#m7179ef4174" x="232.695344" y="215.071585" style="fill: #1f77b4; stroke: #1f77b4"/>
     <use xlink:href="#m7179ef4174" x="236.827725" y="174.476246" style="fill: #1f77b4; stroke: #1f77b4"/>
     <use xlink:href="#m7179ef4174" x="241.006021" y="145.64189" style="fill: #1f77b4; stroke: #1f77b4"/>
     <use xlink:href="#m7179ef4174" x="245.230233" y="194.534193" style="fill: #1f77b4; stroke: #1f77b4"/>
     <use xlink:href="#m7179ef4174" x="249.454445" y="207.861779" style="fill: #1f77b4; stroke: #1f77b4"/>
     <use xlink:href="#m7179ef4174" x="253.632741" y="153.182901" style="fill: #1f77b4; stroke: #1f77b4"/>
     <use xlink:href="#m7179ef4174" x="257.811037" y="124.712164" style="fill: #1f77b4; stroke: #1f77b4"/>
     <use xlink:href="#m7179ef4174" x="262.035249" y="172.226016" style="fill: #1f77b4; stroke: #1f77b4"/>
     <use xlink:href="#m7179ef4174" x="266.259461" y="193.316779" style="fill: #1f77b4; stroke: #1f77b4"/>
     <use xlink:href="#m7179ef4174" x="270.391842" y="133.009483" style="fill: #1f77b4; stroke: #1f77b4"/>
     <use xlink:href="#m7179ef4174" x="274.570138" y="95.567892" style="fill: #1f77b4; stroke: #1f77b4"/>
     <use xlink:href="#m7179ef4174" x="278.79435" y="159.862368" style="fill: #1f77b4; stroke: #1f77b4"/>
     <use xlink:href="#m7179ef4174" x="283.018562" y="167.520841" style="fill: #1f77b4; stroke: #1f77b4"/>
     <use xlink:href="#m7179ef4174" x="287.150943" y="116.185393" style="fill: #1f77b4; stroke: #1f77b4"/>
     <use xlink:href="#m7179ef4174" x="291.329239" y="96.289761" style="fill: #1f77b4; stroke: #1f77b4"/>
     <use xlink:href="#m7179ef4174" x="295.553451" y="159.49381" style="fill: #1f77b4; stroke: #1f77b4"/>
     <use xlink:href="#m7179ef4174" x="299.777662" y="172.080868" style="fill: #1f77b4; stroke: #1f77b4"/>
     <use xlink:href="#m7179ef4174" x="303.910043" y="120.339259" style="fill: #1f77b4; stroke: #1f77b4"/>
     <use xlink:href="#m7179ef4174" x="308.08834" y="103.495054" style="fill: #1f77b4; stroke: #1f77b4"/>
     <use xlink:href="#m7179ef4174" x="312.312551" y="166.319953" style="fill: #1f77b4; stroke: #1f77b4"/>
     <use xlink:href="#m7179ef4174" x="316.536763" y="189.242097" style="fill: #1f77b4; stroke: #1f77b4"/>
     <use xlink:href="#m7179ef4174" x="320.715059" y="157.141009" style="fill: #1f77b4; stroke: #1f77b4"/>
     <use xlink:href="#m7179ef4174" x="324.893356" y="144.074257" style="fill: #1f77b4; stroke: #1f77b4"/>
     <use xlink:href="#m7179ef4174" x="329.117568" y="224.50262" style="fill: #1f77b4; stroke: #1f77b4"/>
     <use xlink:href="#m7179ef4174" x="333.341779" y="274.698772" style="fill: #1f77b4; stroke: #1f77b4"/>
     <use xlink:href="#m7179ef4174" x="337.47416" y="252.245553" style="fill: #1f77b4; stroke: #1f77b4"/>
     <use xlink:href="#m7179ef4174" x="341.652457" y="233.552516" style="fill: #1f77b4; stroke: #1f77b4"/>
     <use xlink:href="#m7179ef4174" x="345.876668" y="267.527386" style="fill: #1f77b4; stroke: #1f77b4"/>
     <use xlink:href="#m7179ef4174" x="350.10088" y="286.918125" style="fill: #1f77b4; stroke: #1f77b4"/>
     <use xlink:href="#m7179ef4174" x="354.233261" y="231.385593" style="fill: #1f77b4; stroke: #1f77b4"/>
     <use xlink:href="#m7179ef4174" x="358.411557" y="204.583176" style="fill: #1f77b4; stroke: #1f77b4"/>
     <use xlink:href="#m7179ef4174" x="362.635769" y="244.574854" style="fill: #1f77b4; stroke: #1f77b4"/>
     <use xlink:href="#m7179ef4174" x="366.859981" y="265.734886" style="fill: #1f77b4; stroke: #1f77b4"/>
     <use xlink:href="#m7179ef4174" x="370.992362" y="213.960402" style="fill: #1f77b4; stroke: #1f77b4"/>
     <use xlink:href="#m7179ef4174" x="375.170658" y="180.765333" style="fill: #1f77b4; stroke: #1f77b4"/>
     <use xlink:href="#m7179ef4174" x="379.39487" y="239.743189" style="fill: #1f77b4; stroke: #1f77b4"/>
     <use xlink:href="#m7179ef4174" x="383.619082" y="243.488159" style="fill: #1f77b4; stroke: #1f77b4"/>
     <use xlink:href="#m7179ef4174" x="387.797378" y="196.324632" style="fill: #1f77b4; stroke: #1f77b4"/>
     <use xlink:href="#m7179ef4174" x="391.975674" y="174.245089" style="fill: #1f77b4; stroke: #1f77b4"/>
     <use xlink:href="#m7179ef4174" x="396.199886" y="226.227415" style="fill: #1f77b4; stroke: #1f77b4"/>
     <use xlink:href="#m7179ef4174" x="400.424098" y="234.245277" style="fill: #1f77b4; stroke: #1f77b4"/>
     <use xlink:href="#m7179ef4174" x="404.556479" y="180.746212" style="fill: #1f77b4; stroke: #1f77b4"/>
     <use xlink:href="#m7179ef4174" x="408.734775" y="150.984028" style="fill: #1f77b4; stroke: #1f77b4"/>
     <use xlink:href="#m7179ef4174" x="412.958987" y="203.925031" style="fill: #1f77b4; stroke: #1f77b4"/>
     <use xlink:href="#m7179ef4174" x="417.183199" y="219.013522" style="fill: #1f77b4; stroke: #1f77b4"/>
     <use xlink:href="#m7179ef4174" x="421.31558" y="157.540665" style="fill: #1f77b4; stroke: #1f77b4"/>
     <use xlink:href="#m7179ef4174" x="425.493876" y="128.731224" style="fill: #1f77b4; stroke: #1f77b4"/>
     <use xlink:href="#m7179ef4174" x="429.718088" y="177.10655" style="fill: #1f77b4; stroke: #1f77b4"/>
     <use xlink:href="#m7179ef4174" x="433.942299" y="200.513079" style="fill: #1f77b4; stroke: #1f77b4"/>
     <use xlink:href="#m7179ef4174" x="438.07468" y="138.477363" style="fill: #1f77b4; stroke: #1f77b4"/>
     <use xlink:href="#m7179ef4174" x="442.252977" y="110.182979" style="fill: #1f77b4; stroke: #1f77b4"/>
     <use xlink:href="#m7179ef4174" x="446.477188" y="156.373861" style="fill: #1f77b4; stroke: #1f77b4"/>
     <use xlink:href="#m7179ef4174" x="450.7014" y="190.853801" style="fill: #1f77b4; stroke: #1f77b4"/>
     <use xlink:href="#m7179ef4174" x="454.879696" y="129.833735" style="fill: #1f77b4; stroke: #1f77b4"/>
     <use xlink:href="#m7179ef4174" x="459.057993" y="91.87037" style="fill: #1f77b4; stroke: #1f77b4"/>
     <use xlink:href="#m7179ef4174" x="463.282205" y="163.181736" style="fill: #1f77b4; stroke: #1f77b4"/>
     <use xlink:href="#m7179ef4174" x="467.506416" y="173.628456" style="fill: #1f77b4; stroke: #1f77b4"/>
     <use xlink:href="#m7179ef4174" x="471.638797" y="117.641535" style="fill: #1f77b4; stroke: #1f77b4"/>
     <use xlink:href="#m7179ef4174" x="475.817094" y="97.296845" style="fill: #1f77b4; stroke: #1f77b4"/>
     <use xlink:href="#m7179ef4174" x="480.041305" y="149.213847" style="fill: #1f77b4; stroke: #1f77b4"/>
     <use xlink:href="#m7179ef4174" x="484.265517" y="161.114612" style="fill: #1f77b4; stroke: #1f77b4"/>
     <use xlink:href="#m7179ef4174" x="488.397898" y="104.998963" style="fill: #1f77b4; stroke: #1f77b4"/>
     <use xlink:href="#m7179ef4174" x="492.576194" y="82.757531" style="fill: #1f77b4; stroke: #1f77b4"/>
     <use xlink:href="#m7179ef4174" x="496.800406" y="138.979377" style="fill: #1f77b4; stroke: #1f77b4"/>
     <use xlink:href="#m7179ef4174" x="501.024618" y="163.256265" style="fill: #1f77b4; stroke: #1f77b4"/>
     <use xlink:href="#m7179ef4174" x="505.156999" y="103.464702" style="fill: #1f77b4; stroke: #1f77b4"/>
     <use xlink:href="#m7179ef4174" x="509.335295" y="80.461063" style="fill: #1f77b4; stroke: #1f77b4"/>
     <use xlink:href="#m7179ef4174" x="513.559507" y="138.685099" style="fill: #1f77b4; stroke: #1f77b4"/>
     <use xlink:href="#m7179ef4174" x="517.783719" y="181.454078" style="fill: #1f77b4; stroke: #1f77b4"/>
     <use xlink:href="#m7179ef4174" x="521.962015" y="254.570028" style="fill: #1f77b4; stroke: #1f77b4"/>
     <use xlink:href="#m7179ef4174" x="526.140311" y="155.710776" style="fill: #1f77b4; stroke: #1f77b4"/>
     <use xlink:href="#m7179ef4174" x="530.364523" y="164.892528" style="fill: #1f77b4; stroke: #1f77b4"/>
     <use xlink:href="#m7179ef4174" x="534.588735" y="198.04605" style="fill: #1f77b4; stroke: #1f77b4"/>
     <use xlink:href="#m7179ef4174" x="538.721116" y="101.700137" style="fill: #1f77b4; stroke: #1f77b4"/>
     <use xlink:href="#m7179ef4174" x="542.899412" y="50.414979" style="fill: #1f77b4; stroke: #1f77b4"/>
     <use xlink:href="#m7179ef4174" x="547.123624" y="86.553075" style="fill: #1f77b4; stroke: #1f77b4"/>
     <use xlink:href="#m7179ef4174" x="551.347835" y="131.160579" style="fill: #1f77b4; stroke: #1f77b4"/>
     <use xlink:href="#m7179ef4174" x="555.480216" y="70.928203" style="fill: #1f77b4; stroke: #1f77b4"/>
     <use xlink:href="#m7179ef4174" x="559.658513" y="34.918125" style="fill: #1f77b4; stroke: #1f77b4"/>
     <use xlink:href="#m7179ef4174" x="563.882725" y="120.918432" style="fill: #1f77b4; stroke: #1f77b4"/>
     <use xlink:href="#m7179ef4174" x="568.106936" y="143.693864" style="fill: #1f77b4; stroke: #1f77b4"/>
     <use xlink:href="#m7179ef4174" x="572.239317" y="105.312184" style="fill: #1f77b4; stroke: #1f77b4"/>
     <use xlink:href="#m7179ef4174" x="576.417614" y="86.053407" style="fill: #1f77b4; stroke: #1f77b4"/>
    </g>
   </g>
   <g id="patch_3">
    <path d="M 43.78125 299.518125 
L 43.78125 22.318125 
" style="fill: none; stroke: #000000; stroke-width: 0.8; stroke-linejoin: miter; stroke-linecap: square"/>
   </g>
   <g id="patch_4">
    <path d="M 601.78125 299.518125 
L 601.78125 22.318125 
" style="fill: none; stroke: #000000; stroke-width: 0.8; stroke-linejoin: miter; stroke-linecap: square"/>
   </g>
   <g id="patch_5">
    <path d="M 43.78125 299.518125 
L 601.78125 299.518125 
" style="fill: none; stroke: #000000; stroke-width: 0.8; stroke-linejoin: miter; stroke-linecap: square"/>
   </g>
   <g id="patch_6">
    <path d="M 43.78125 22.318125 
L 601.78125 22.318125 
" style="fill: none; stroke: #000000; stroke-width: 0.8; stroke-linejoin: miter; stroke-linecap: square"/>
   </g>
   <g id="text_21">
    <!-- Hiring Activity Over Time -->
    <g transform="translate(247.584375 16.318125) scale(0.12 -0.12)">
     <defs>
      <path id="DejaVuSans-67" d="M 2906 1791 
Q 2906 2416 2648 2759 
Q 2391 3103 1925 3103 
Q 1463 3103 1205 2759 
Q 947 2416 947 1791 
Q 947 1169 1205 825 
Q 1463 481 1925 481 
Q 2391 481 2648 825 
Q 2906 1169 2906 1791 
z
M 3481 434 
Q 3481 -459 3084 -895 
Q 2688 -1331 1869 -1331 
Q 1566 -1331 1297 -1286 
Q 1028 -1241 775 -1147 
L 775 -588 
Q 1028 -725 1275 -790 
Q 1522 -856 1778 -856 
Q 2344 -856 2625 -561 
Q 2906 -266 2906 331 
L 2906 616 
Q 2728 306 2450 153 
Q 2172 0 1784 0 
Q 1141 0 747 490 
Q 353 981 353 1791 
Q 353 2603 747 3093 
Q 1141 3584 1784 3584 
Q 2172 3584 2450 3431 
Q 2728 3278 2906 2969 
L 2906 3500 
L 3481 3500 
L 3481 434 
z
" transform="scale(0.015625)"/>
      <path id="DejaVuSans-20" transform="scale(0.015625)"/>
      <path id="DejaVuSans-63" d="M 3122 3366 
L 3122 2828 
Q 2878 2963 2633 3030 
Q 2388 3097 2138 3097 
Q 1578 3097 1268 2742 
Q 959 2388 959 1747 
Q 959 1106 1268 751 
Q 1578 397 2138 397 
Q 2388 397 2633 464 
Q 2878 531 3122 666 
L 3122 134 
Q 2881 22 2623 -34 
Q 2366 -91 2075 -91 
Q 1284 -91 818 406 
Q 353 903 353 1747 
Q 353 2603 823 3093 
Q 1294 3584 2113 3584 
Q 2378 3584 2631 3529 
Q 2884 3475 3122 3366 
z
" transform="scale(0.015625)"/>
      <path id="DejaVuSans-76" d="M 191 3500 
L 800 3500 
L 1894 563 
L 2988 3500 
L 3597 3500 
L 2284 0 
L 1503 0 
L 191 3500 
z
" transform="scale(0.015625)"/>
      <path id="DejaVuSans-79" d="M 2059 -325 
Q 1816 -950 1584 -1140 
Q 1353 -1331 966 -1331 
L 506 -1331 
L 506 -850 
L 844 -850 
Q 1081 -850 1212 -737 
Q 1344 -625 1503 -206 
L 1606 56 
L 191 3500 
L 800 3500 
L 1894 763 
L 2988 3500 
L 3597 3500 
L 2059 -325 
z
" transform="scale(0.015625)"/>
      <path id="DejaVuSans-4f" d="M 2522 4238 
Q 1834 4238 1429 3725 
Q 1025 3213 1025 2328 
Q 1025 1447 1429 934 
Q 1834 422 2522 422 
Q 3209 422 3611 934 
Q 4013 1447 4013 2328 
Q 4013 3213 3611 3725 
Q 3209 4238 2522 4238 
z
M 2522 4750 
Q 3503 4750 4090 4092 
Q 4678 3434 4678 2328 
Q 4678 1225 4090 567 
Q 3503 -91 2522 -91 
Q 1538 -91 948 565 
Q 359 1222 359 2328 
Q 359 3434 948 4092 
Q 1538 4750 2522 4750 
z
" transform="scale(0.015625)"/>
      <path id="DejaVuSans-54" d="M -19 4666 
L 3928 4666 
L 3928 4134 
L 2272 4134 
L 2272 0 
L 1638 0 
L 1638 4134 
L -19 4134 
L -19 4666 
z
" transform="scale(0.015625)"/>
      <path id="DejaVuSans-6d" d="M 3328 2828 
Q 3544 3216 3844 3400 
Q 4144 3584 4550 3584 
Q 5097 3584 5394 3201 
Q 5691 2819 5691 2113 
L 5691 0 
L 5113 0 
L 5113 2094 
Q 5113 2597 4934 2840 
Q 4756 3084 4391 3084 
Q 3944 3084 3684 2787 
Q 3425 2491 3425 1978 
L 3425 0 
L 2847 0 
L 2847 2094 
Q 2847 2600 2669 2842 
Q 2491 3084 2119 3084 
Q 1678 3084 1418 2786 
Q 1159 2488 1159 1978 
L 1159 0 
L 581 0 
L 581 3500 
L 1159 3500 
L 1159 2956 
Q 1356 3278 1631 3431 
Q 1906 3584 2284 3584 
Q 2666 3584 2933 3390 
Q 3200 3197 3328 2828 
z
" transform="scale(0.015625)"/>
     </defs>
     <use xlink:href="#DejaVuSans-48"/>
     <use xlink:href="#DejaVuSans-69" transform="translate(75.195312 0)"/>
     <use xlink:href="#DejaVuSans-72" transform="translate(102.978516 0)"/>
     <use xlink:href="#DejaVuSans-69" transform="translate(144.091797 0)"/>
     <use xlink:href="#DejaVuSans-6e" transform="translate(171.875 0)"/>
     <use xlink:href="#DejaVuSans-67" transform="translate(235.253906 0)"/>
     <use xlink:href="#DejaVuSans-20" transform="translate(298.730469 0)"/>
     <use xlink:href="#DejaVuSans-41" transform="translate(330.517578 0)"/>
     <use xlink:href="#DejaVuSans-63" transform="translate(397.175781 0)"/>
     <use xlink:href="#DejaVuSans-74" transform="translate(452.15625 0)"/>
     <use xlink:href="#DejaVuSans-69" transform="translate(491.365234 0)"/>
     <use xlink:href="#DejaVuSans-76" transform="translate(519.148438 0)"/>
     <use xlink:href="#DejaVuSans-69" transform="translate(578.328125 0)"/>
     <use xlink:href="#DejaVuSans-74" transform="translate(606.111328 0)"/>
     <use xlink:href="#DejaVuSans-79" transform="translate(645.320312 0)"/>
     <use xlink:href="#DejaVuSans-20" transform="translate(704.5 0)"/>
     <use xlink:href="#DejaVuSans-4f" transform="translate(736.287109 0)"/>
     <use xlink:href="#DejaVuSans-76" transform="translate(814.998047 0)"/>
     <use xlink:href="#DejaVuSans-65" transform="translate(874.177734 0)"/>
     <use xlink:href="#DejaVuSans-72" transform="translate(935.701172 0)"/>
     <use xlink:href="#DejaVuSans-20" transform="translate(976.814453 0)"/>
     <use xlink:href="#DejaVuSans-54" transform="translate(1008.601562 0)"/>
     <use xlink:href="#DejaVuSans-69" transform="translate(1066.560547 0)"/>
     <use xlink:href="#DejaVuSans-6d" transform="translate(1094.34375 0)"/>
     <use xlink:href="#DejaVuSans-65" transform="translate(1191.755859 0)"/>
    </g>
   </g>
  </g>
 </g>
 <defs>
  <clipPath id="pea76b512db">
   <rect x="43.78125" y="22.318125" width="558" height="277.2"/>
  </clipPath>
 </defs>
</svg>
