<?xml version="1.0" encoding="utf-8" standalone="no"?>
<!DOCTYPE svg PUBLIC "-//W3C//DTD SVG 1.1//EN"
  "http://www.w3.org/Graphics/SVG/1.1/DTD/svg11.dtd">
<svg xmlns:xlink="http://www.w3.org/1999/xlink" width="855.901637pt" height="424.808313pt" viewBox="0 0 855.901637 424.808313" xmlns="http://www.w3.org/2000/svg" version="1.1">
 <metadata>
  <rdf:RDF xmlns:dc="http://purl.org/dc/elements/1.1/" xmlns:cc="http://creativecommons.org/ns#" xmlns:rdf="http://www.w3.org/1999/02/22-rdf-syntax-ns#">
   <cc:Work>
    <dc:type rdf:resource="http://purl.org/dc/dcmitype/StillImage"/>
    <dc:date>2025-02-15T12:06:17.674929</dc:date>
    <dc:format>image/svg+xml</dc:format>
    <dc:creator>
     <cc:Agent>
      <dc:title>Matplotlib v3.10.0, https://matplotlib.org/</dc:title>
     </cc:Agent>
    </dc:creator>
   </cc:Work>
  </rdf:RDF>
 </metadata>
 <defs>
  <style type="text/css">*{stroke-linejoin: round; stroke-linecap: butt}</style>
 </defs>
 <g id="figure_1">
  <g id="patch_1">
   <path d="M -0 424.808313 
L 855.901637 424.808313 
L 855.901637 0 
L -0 0 
z
" style="fill: #ffffff"/>
  </g>
  <g id="axes_1">
   <g id="patch_2">
    <path d="M 47.019375 363.251736 
L 840.206188 363.251736 
L 840.206188 25.3575 
L 47.019375 25.3575 
z
" style="fill: #ffffff"/>
   </g>
   <g id="patch_3">
    <path d="M 270.204305 363.251736 
L 286.062863 363.251736 
L 286.062863 25.3575 
L 270.204305 25.3575 
z
" clip-path="url(#p11e633814c)" style="fill: #808080; opacity: 0.3; stroke: #808080; stroke-linejoin: miter"/>
   </g>
   <g id="patch_4">
    <path d="M 429.825545 363.251736 
L 465.296932 363.251736 
L 465.296932 25.3575 
L 429.825545 25.3575 
z
" clip-path="url(#p11e633814c)" style="fill: #808080; opacity: 0.3; stroke: #808080; stroke-linejoin: miter"/>
   </g>
   <g id="patch_5">
    <path d="M 717.545097 363.251736 
L 721.428825 363.251736 
L 721.428825 25.3575 
L 717.545097 25.3575 
z
" clip-path="url(#p11e633814c)" style="fill: #808080; opacity: 0.3; stroke: #808080; stroke-linejoin: miter"/>
   </g>
   <g id="matplotlib.axis_1">
    <g id="xtick_1">
     <g id="line2d_1">
      <defs>
       <path id="m513ba4de63" d="M 0 0 
L 0 3.5 
" style="stroke: #000000; stroke-width: 0.8"/>
      </defs>
      <g>
       <use xlink:href="#m513ba4de63" x="124.499758" y="363.251736" style="stroke: #000000; stroke-width: 0.8"/>
      </g>
     </g>
     <g id="text_1">
      <!-- 1995 -->
      <g transform="translate(116.043645 398.294265) rotate(-45) scale(0.12 -0.12)">
       <defs>
        <path id="DejaVuSans-31" d="M 794 531 
L 1825 531 
L 1825 4091 
L 703 3866 
L 703 4441 
L 1819 4666 
L 2450 4666 
L 2450 531 
L 3481 531 
L 3481 0 
L 794 0 
L 794 531 
z
" transform="scale(0.015625)"/>
        <path id="DejaVuSans-39" d="M 703 97 
L 703 672 
Q 941 559 1184 500 
Q 1428 441 1663 441 
Q 2288 441 2617 861 
Q 2947 1281 2994 2138 
Q 2813 1869 2534 1725 
Q 2256 1581 1919 1581 
Q 1219 1581 811 2004 
Q 403 2428 403 3163 
Q 403 3881 828 4315 
Q 1253 4750 1959 4750 
Q 2769 4750 3195 4129 
Q 3622 3509 3622 2328 
Q 3622 1225 3098 567 
Q 2575 -91 1691 -91 
Q 1453 -91 1209 -44 
Q 966 3 703 97 
z
M 1959 2075 
Q 2384 2075 2632 2365 
Q 2881 2656 2881 3163 
Q 2881 3666 2632 3958 
Q 2384 4250 1959 4250 
Q 1534 4250 1286 3958 
Q 1038 3666 1038 3163 
Q 1038 2656 1286 2365 
Q 1534 2075 1959 2075 
z
" transform="scale(0.015625)"/>
        <path id="DejaVuSans-35" d="M 691 4666 
L 3169 4666 
L 3169 4134 
L 1269 4134 
L 1269 2991 
Q 1406 3038 1543 3061 
Q 1681 3084 1819 3084 
Q 2600 3084 3056 2656 
Q 3513 2228 3513 1497 
Q 3513 744 3044 326 
Q 2575 -91 1722 -91 
Q 1428 -91 1123 -41 
Q 819 9 494 109 
L 494 744 
Q 775 591 1075 516 
Q 1375 441 1709 441 
Q 2250 441 2565 725 
Q 2881 1009 2881 1497 
Q 2881 1984 2565 2268 
Q 2250 2553 1709 2553 
Q 1456 2553 1204 2497 
Q 953 2441 691 2322 
L 691 4666 
z
" transform="scale(0.015625)"/>
       </defs>
       <use xlink:href="#DejaVuSans-31"/>
       <use xlink:href="#DejaVuSans-39" transform="translate(63.623047 0)"/>
       <use xlink:href="#DejaVuSans-39" transform="translate(127.246094 0)"/>
       <use xlink:href="#DejaVuSans-35" transform="translate(190.869141 0)"/>
      </g>
     </g>
    </g>
    <g id="xtick_2">
     <g id="line2d_2">
      <g>
       <use xlink:href="#m513ba4de63" x="242.694561" y="363.251736" style="stroke: #000000; stroke-width: 0.8"/>
      </g>
     </g>
     <g id="text_2">
      <!-- 2000 -->
      <g transform="translate(234.238448 398.294265) rotate(-45) scale(0.12 -0.12)">
       <defs>
        <path id="DejaVuSans-32" d="M 1228 531 
L 3431 531 
L 3431 0 
L 469 0 
L 469 531 
Q 828 903 1448 1529 
Q 2069 2156 2228 2338 
Q 2531 2678 2651 2914 
Q 2772 3150 2772 3378 
Q 2772 3750 2511 3984 
Q 2250 4219 1831 4219 
Q 1534 4219 1204 4116 
Q 875 4013 500 3803 
L 500 4441 
Q 881 4594 1212 4672 
Q 1544 4750 1819 4750 
Q 2544 4750 2975 4387 
Q 3406 4025 3406 3419 
Q 3406 3131 3298 2873 
Q 3191 2616 2906 2266 
Q 2828 2175 2409 1742 
Q 1991 1309 1228 531 
z
" transform="scale(0.015625)"/>
        <path id="DejaVuSans-30" d="M 2034 4250 
Q 1547 4250 1301 3770 
Q 1056 3291 1056 2328 
Q 1056 1369 1301 889 
Q 1547 409 2034 409 
Q 2525 409 2770 889 
Q 3016 1369 3016 2328 
Q 3016 3291 2770 3770 
Q 2525 4250 2034 4250 
z
M 2034 4750 
Q 2819 4750 3233 4129 
Q 3647 3509 3647 2328 
Q 3647 1150 3233 529 
Q 2819 -91 2034 -91 
Q 1250 -91 836 529 
Q 422 1150 422 2328 
Q 422 3509 836 4129 
Q 1250 4750 2034 4750 
z
" transform="scale(0.015625)"/>
       </defs>
       <use xlink:href="#DejaVuSans-32"/>
       <use xlink:href="#DejaVuSans-30" transform="translate(63.623047 0)"/>
       <use xlink:href="#DejaVuSans-30" transform="translate(127.246094 0)"/>
       <use xlink:href="#DejaVuSans-30" transform="translate(190.869141 0)"/>
      </g>
     </g>
    </g>
    <g id="xtick_3">
     <g id="line2d_3">
      <g>
       <use xlink:href="#m513ba4de63" x="360.954094" y="363.251736" style="stroke: #000000; stroke-width: 0.8"/>
      </g>
     </g>
     <g id="text_3">
      <!-- 2005 -->
      <g transform="translate(352.49798 398.294265) rotate(-45) scale(0.12 -0.12)">
       <use xlink:href="#DejaVuSans-32"/>
       <use xlink:href="#DejaVuSans-30" transform="translate(63.623047 0)"/>
       <use xlink:href="#DejaVuSans-30" transform="translate(127.246094 0)"/>
       <use xlink:href="#DejaVuSans-35" transform="translate(190.869141 0)"/>
      </g>
     </g>
    </g>
    <g id="xtick_4">
     <g id="line2d_4">
      <g>
       <use xlink:href="#m513ba4de63" x="479.148897" y="363.251736" style="stroke: #000000; stroke-width: 0.8"/>
      </g>
     </g>
     <g id="text_4">
      <!-- 2010 -->
      <g transform="translate(470.692784 398.294265) rotate(-45) scale(0.12 -0.12)">
       <use xlink:href="#DejaVuSans-32"/>
       <use xlink:href="#DejaVuSans-30" transform="translate(63.623047 0)"/>
       <use xlink:href="#DejaVuSans-31" transform="translate(127.246094 0)"/>
       <use xlink:href="#DejaVuSans-30" transform="translate(190.869141 0)"/>
      </g>
     </g>
    </g>
    <g id="xtick_5">
     <g id="line2d_5">
      <g>
       <use xlink:href="#m513ba4de63" x="597.3437" y="363.251736" style="stroke: #000000; stroke-width: 0.8"/>
      </g>
     </g>
     <g id="text_5">
      <!-- 2015 -->
      <g transform="translate(588.887587 398.294265) rotate(-45) scale(0.12 -0.12)">
       <use xlink:href="#DejaVuSans-32"/>
       <use xlink:href="#DejaVuSans-30" transform="translate(63.623047 0)"/>
       <use xlink:href="#DejaVuSans-31" transform="translate(127.246094 0)"/>
       <use xlink:href="#DejaVuSans-35" transform="translate(190.869141 0)"/>
      </g>
     </g>
    </g>
    <g id="xtick_6">
     <g id="line2d_6">
      <g>
       <use xlink:href="#m513ba4de63" x="715.538504" y="363.251736" style="stroke: #000000; stroke-width: 0.8"/>
      </g>
     </g>
     <g id="text_6">
      <!-- 2020 -->
      <g transform="translate(707.08239 398.294265) rotate(-45) scale(0.12 -0.12)">
       <use xlink:href="#DejaVuSans-32"/>
       <use xlink:href="#DejaVuSans-30" transform="translate(63.623047 0)"/>
       <use xlink:href="#DejaVuSans-32" transform="translate(127.246094 0)"/>
       <use xlink:href="#DejaVuSans-30" transform="translate(190.869141 0)"/>
      </g>
     </g>
    </g>
    <g id="xtick_7">
     <g id="line2d_7">
      <g>
       <use xlink:href="#m513ba4de63" x="833.798036" y="363.251736" style="stroke: #000000; stroke-width: 0.8"/>
      </g>
     </g>
     <g id="text_7">
      <!-- 2025 -->
      <g transform="translate(825.341923 398.294265) rotate(-45) scale(0.12 -0.12)">
       <use xlink:href="#DejaVuSans-32"/>
       <use xlink:href="#DejaVuSans-30" transform="translate(63.623047 0)"/>
       <use xlink:href="#DejaVuSans-32" transform="translate(127.246094 0)"/>
       <use xlink:href="#DejaVuSans-35" transform="translate(190.869141 0)"/>
      </g>
     </g>
    </g>
    <g id="text_8">
     <!-- Date -->
     <g transform="translate(424.984031 414.696751) scale(0.14 -0.14)">
      <defs>
       <path id="DejaVuSans-Bold-44" d="M 1791 3756 
L 1791 909 
L 2222 909 
Q 2959 909 3348 1275 
Q 3738 1641 3738 2338 
Q 3738 3031 3350 3393 
Q 2963 3756 2222 3756 
L 1791 3756 
z
M 588 4666 
L 1856 4666 
Q 2919 4666 3439 4514 
Q 3959 4363 4331 4000 
Q 4659 3684 4818 3271 
Q 4978 2859 4978 2338 
Q 4978 1809 4818 1395 
Q 4659 981 4331 666 
Q 3956 303 3431 151 
Q 2906 0 1856 0 
L 588 0 
L 588 4666 
z
" transform="scale(0.015625)"/>
       <path id="DejaVuSans-Bold-61" d="M 2106 1575 
Q 1756 1575 1579 1456 
Q 1403 1338 1403 1106 
Q 1403 894 1545 773 
Q 1688 653 1941 653 
Q 2256 653 2472 879 
Q 2688 1106 2688 1447 
L 2688 1575 
L 2106 1575 
z
M 3816 1997 
L 3816 0 
L 2688 0 
L 2688 519 
Q 2463 200 2181 54 
Q 1900 -91 1497 -91 
Q 953 -91 614 226 
Q 275 544 275 1050 
Q 275 1666 698 1953 
Q 1122 2241 2028 2241 
L 2688 2241 
L 2688 2328 
Q 2688 2594 2478 2717 
Q 2269 2841 1825 2841 
Q 1466 2841 1156 2769 
Q 847 2697 581 2553 
L 581 3406 
Q 941 3494 1303 3539 
Q 1666 3584 2028 3584 
Q 2975 3584 3395 3211 
Q 3816 2838 3816 1997 
z
" transform="scale(0.015625)"/>
       <path id="DejaVuSans-Bold-74" d="M 1759 4494 
L 1759 3500 
L 2913 3500 
L 2913 2700 
L 1759 2700 
L 1759 1216 
Q 1759 972 1856 886 
Q 1953 800 2241 800 
L 2816 800 
L 2816 0 
L 1856 0 
Q 1194 0 917 276 
Q 641 553 641 1216 
L 641 2700 
L 84 2700 
L 84 3500 
L 641 3500 
L 641 4494 
L 1759 4494 
z
" transform="scale(0.015625)"/>
       <path id="DejaVuSans-Bold-65" d="M 4031 1759 
L 4031 1441 
L 1416 1441 
Q 1456 1047 1700 850 
Q 1944 653 2381 653 
Q 2734 653 3104 758 
Q 3475 863 3866 1075 
L 3866 213 
Q 3469 63 3072 -14 
Q 2675 -91 2278 -91 
Q 1328 -91 801 392 
Q 275 875 275 1747 
Q 275 2603 792 3093 
Q 1309 3584 2216 3584 
Q 3041 3584 3536 3087 
Q 4031 2591 4031 1759 
z
M 2881 2131 
Q 2881 2450 2695 2645 
Q 2509 2841 2209 2841 
Q 1884 2841 1681 2658 
Q 1478 2475 1428 2131 
L 2881 2131 
z
" transform="scale(0.015625)"/>
      </defs>
      <use xlink:href="#DejaVuSans-Bold-44"/>
      <use xlink:href="#DejaVuSans-Bold-61" transform="translate(83.007812 0)"/>
      <use xlink:href="#DejaVuSans-Bold-74" transform="translate(150.488281 0)"/>
      <use xlink:href="#DejaVuSans-Bold-65" transform="translate(198.291016 0)"/>
     </g>
    </g>
   </g>
   <g id="matplotlib.axis_2">
    <g id="ytick_1">
     <g id="line2d_8">
      <defs>
       <path id="m15694dff3d" d="M 0 0 
L -3.5 0 
" style="stroke: #000000; stroke-width: 0.8"/>
      </defs>
      <g>
       <use xlink:href="#m15694dff3d" x="47.019375" y="361.820952" style="stroke: #000000; stroke-width: 0.8"/>
      </g>
     </g>
     <g id="text_9">
      <!-- 5 -->
      <g transform="translate(32.384375 366.380015) scale(0.12 -0.12)">
       <use xlink:href="#DejaVuSans-35"/>
      </g>
     </g>
    </g>
    <g id="ytick_2">
     <g id="line2d_9">
      <g>
       <use xlink:href="#m15694dff3d" x="47.019375" y="294.569923" style="stroke: #000000; stroke-width: 0.8"/>
      </g>
     </g>
     <g id="text_10">
      <!-- 10 -->
      <g transform="translate(24.749375 299.128985) scale(0.12 -0.12)">
       <use xlink:href="#DejaVuSans-31"/>
       <use xlink:href="#DejaVuSans-30" transform="translate(63.623047 0)"/>
      </g>
     </g>
    </g>
    <g id="ytick_3">
     <g id="line2d_10">
      <g>
       <use xlink:href="#m15694dff3d" x="47.019375" y="227.318893" style="stroke: #000000; stroke-width: 0.8"/>
      </g>
     </g>
     <g id="text_11">
      <!-- 15 -->
      <g transform="translate(24.749375 231.877956) scale(0.12 -0.12)">
       <use xlink:href="#DejaVuSans-31"/>
       <use xlink:href="#DejaVuSans-35" transform="translate(63.623047 0)"/>
      </g>
     </g>
    </g>
    <g id="ytick_4">
     <g id="line2d_11">
      <g>
       <use xlink:href="#m15694dff3d" x="47.019375" y="160.067864" style="stroke: #000000; stroke-width: 0.8"/>
      </g>
     </g>
     <g id="text_12">
      <!-- 20 -->
      <g transform="translate(24.749375 164.626926) scale(0.12 -0.12)">
       <use xlink:href="#DejaVuSans-32"/>
       <use xlink:href="#DejaVuSans-30" transform="translate(63.623047 0)"/>
      </g>
     </g>
    </g>
    <g id="ytick_5">
     <g id="line2d_12">
      <g>
       <use xlink:href="#m15694dff3d" x="47.019375" y="92.816834" style="stroke: #000000; stroke-width: 0.8"/>
      </g>
     </g>
     <g id="text_13">
      <!-- 25 -->
      <g transform="translate(24.749375 97.375897) scale(0.12 -0.12)">
       <use xlink:href="#DejaVuSans-32"/>
       <use xlink:href="#DejaVuSans-35" transform="translate(63.623047 0)"/>
      </g>
     </g>
    </g>
    <g id="ytick_6">
     <g id="line2d_13">
      <g>
       <use xlink:href="#m15694dff3d" x="47.019375" y="25.565805" style="stroke: #000000; stroke-width: 0.8"/>
      </g>
     </g>
     <g id="text_14">
      <!-- 30 -->
      <g transform="translate(24.749375 30.124867) scale(0.12 -0.12)">
       <defs>
        <path id="DejaVuSans-33" d="M 2597 2516 
Q 3050 2419 3304 2112 
Q 3559 1806 3559 1356 
Q 3559 666 3084 287 
Q 2609 -91 1734 -91 
Q 1441 -91 1130 -33 
Q 819 25 488 141 
L 488 750 
Q 750 597 1062 519 
Q 1375 441 1716 441 
Q 2309 441 2620 675 
Q 2931 909 2931 1356 
Q 2931 1769 2642 2001 
Q 2353 2234 1838 2234 
L 1294 2234 
L 1294 2753 
L 1863 2753 
Q 2328 2753 2575 2939 
Q 2822 3125 2822 3475 
Q 2822 3834 2567 4026 
Q 2313 4219 1838 4219 
Q 1578 4219 1281 4162 
Q 984 4106 628 3988 
L 628 4550 
Q 988 4650 1302 4700 
Q 1616 4750 1894 4750 
Q 2613 4750 3031 4423 
Q 3450 4097 3450 3541 
Q 3450 3153 3228 2886 
Q 3006 2619 2597 2516 
z
" transform="scale(0.015625)"/>
       </defs>
       <use xlink:href="#DejaVuSans-33"/>
       <use xlink:href="#DejaVuSans-30" transform="translate(63.623047 0)"/>
      </g>
     </g>
    </g>
    <g id="text_15">
     <!-- Levels (in millions) -->
     <g transform="translate(17.837813 268.89618) rotate(-90) scale(0.14 -0.14)">
      <defs>
       <path id="DejaVuSans-Bold-4c" d="M 588 4666 
L 1791 4666 
L 1791 909 
L 3903 909 
L 3903 0 
L 588 0 
L 588 4666 
z
" transform="scale(0.015625)"/>
       <path id="DejaVuSans-Bold-76" d="M 97 3500 
L 1216 3500 
L 2088 1081 
L 2956 3500 
L 4078 3500 
L 2700 0 
L 1472 0 
L 97 3500 
z
" transform="scale(0.015625)"/>
       <path id="DejaVuSans-Bold-6c" d="M 538 4863 
L 1656 4863 
L 1656 0 
L 538 0 
L 538 4863 
z
" transform="scale(0.015625)"/>
       <path id="DejaVuSans-Bold-73" d="M 3272 3391 
L 3272 2541 
Q 2913 2691 2578 2766 
Q 2244 2841 1947 2841 
Q 1628 2841 1473 2761 
Q 1319 2681 1319 2516 
Q 1319 2381 1436 2309 
Q 1553 2238 1856 2203 
L 2053 2175 
Q 2913 2066 3209 1816 
Q 3506 1566 3506 1031 
Q 3506 472 3093 190 
Q 2681 -91 1863 -91 
Q 1516 -91 1145 -36 
Q 775 19 384 128 
L 384 978 
Q 719 816 1070 734 
Q 1422 653 1784 653 
Q 2113 653 2278 743 
Q 2444 834 2444 1013 
Q 2444 1163 2330 1236 
Q 2216 1309 1875 1350 
L 1678 1375 
Q 931 1469 631 1722 
Q 331 1975 331 2491 
Q 331 3047 712 3315 
Q 1094 3584 1881 3584 
Q 2191 3584 2531 3537 
Q 2872 3491 3272 3391 
z
" transform="scale(0.015625)"/>
       <path id="DejaVuSans-Bold-20" transform="scale(0.015625)"/>
       <path id="DejaVuSans-Bold-28" d="M 2413 -844 
L 1484 -844 
Q 1006 -72 778 623 
Q 550 1319 550 2003 
Q 550 2688 779 3389 
Q 1009 4091 1484 4856 
L 2413 4856 
Q 2013 4116 1813 3408 
Q 1613 2700 1613 2009 
Q 1613 1319 1811 609 
Q 2009 -100 2413 -844 
z
" transform="scale(0.015625)"/>
       <path id="DejaVuSans-Bold-69" d="M 538 3500 
L 1656 3500 
L 1656 0 
L 538 0 
L 538 3500 
z
M 538 4863 
L 1656 4863 
L 1656 3950 
L 538 3950 
L 538 4863 
z
" transform="scale(0.015625)"/>
       <path id="DejaVuSans-Bold-6e" d="M 4056 2131 
L 4056 0 
L 2931 0 
L 2931 347 
L 2931 1631 
Q 2931 2084 2911 2256 
Q 2891 2428 2841 2509 
Q 2775 2619 2662 2680 
Q 2550 2741 2406 2741 
Q 2056 2741 1856 2470 
Q 1656 2200 1656 1722 
L 1656 0 
L 538 0 
L 538 3500 
L 1656 3500 
L 1656 2988 
Q 1909 3294 2193 3439 
Q 2478 3584 2822 3584 
Q 3428 3584 3742 3212 
Q 4056 2841 4056 2131 
z
" transform="scale(0.015625)"/>
       <path id="DejaVuSans-Bold-6d" d="M 3781 2919 
Q 3994 3244 4286 3414 
Q 4578 3584 4928 3584 
Q 5531 3584 5847 3212 
Q 6163 2841 6163 2131 
L 6163 0 
L 5038 0 
L 5038 1825 
Q 5041 1866 5042 1909 
Q 5044 1953 5044 2034 
Q 5044 2406 4934 2573 
Q 4825 2741 4581 2741 
Q 4263 2741 4089 2478 
Q 3916 2216 3909 1719 
L 3909 0 
L 2784 0 
L 2784 1825 
Q 2784 2406 2684 2573 
Q 2584 2741 2328 2741 
Q 2006 2741 1831 2477 
Q 1656 2213 1656 1722 
L 1656 0 
L 531 0 
L 531 3500 
L 1656 3500 
L 1656 2988 
Q 1863 3284 2130 3434 
Q 2397 3584 2719 3584 
Q 3081 3584 3359 3409 
Q 3638 3234 3781 2919 
z
" transform="scale(0.015625)"/>
       <path id="DejaVuSans-Bold-6f" d="M 2203 2784 
Q 1831 2784 1636 2517 
Q 1441 2250 1441 1747 
Q 1441 1244 1636 976 
Q 1831 709 2203 709 
Q 2569 709 2762 976 
Q 2956 1244 2956 1747 
Q 2956 2250 2762 2517 
Q 2569 2784 2203 2784 
z
M 2203 3584 
Q 3106 3584 3614 3096 
Q 4122 2609 4122 1747 
Q 4122 884 3614 396 
Q 3106 -91 2203 -91 
Q 1297 -91 786 396 
Q 275 884 275 1747 
Q 275 2609 786 3096 
Q 1297 3584 2203 3584 
z
" transform="scale(0.015625)"/>
       <path id="DejaVuSans-Bold-29" d="M 513 -844 
Q 913 -100 1113 609 
Q 1313 1319 1313 2009 
Q 1313 2700 1113 3408 
Q 913 4116 513 4856 
L 1441 4856 
Q 1916 4091 2145 3389 
Q 2375 2688 2375 2003 
Q 2375 1319 2147 623 
Q 1919 -72 1441 -844 
L 513 -844 
z
" transform="scale(0.015625)"/>
      </defs>
      <use xlink:href="#DejaVuSans-Bold-4c"/>
      <use xlink:href="#DejaVuSans-Bold-65" transform="translate(63.720703 0)"/>
      <use xlink:href="#DejaVuSans-Bold-76" transform="translate(131.542969 0)"/>
      <use xlink:href="#DejaVuSans-Bold-65" transform="translate(196.728516 0)"/>
      <use xlink:href="#DejaVuSans-Bold-6c" transform="translate(264.550781 0)"/>
      <use xlink:href="#DejaVuSans-Bold-73" transform="translate(298.828125 0)"/>
      <use xlink:href="#DejaVuSans-Bold-20" transform="translate(358.349609 0)"/>
      <use xlink:href="#DejaVuSans-Bold-28" transform="translate(393.164062 0)"/>
      <use xlink:href="#DejaVuSans-Bold-69" transform="translate(438.867188 0)"/>
      <use xlink:href="#DejaVuSans-Bold-6e" transform="translate(473.144531 0)"/>
      <use xlink:href="#DejaVuSans-Bold-20" transform="translate(544.335938 0)"/>
      <use xlink:href="#DejaVuSans-Bold-6d" transform="translate(579.150391 0)"/>
      <use xlink:href="#DejaVuSans-Bold-69" transform="translate(683.349609 0)"/>
      <use xlink:href="#DejaVuSans-Bold-6c" transform="translate(717.626953 0)"/>
      <use xlink:href="#DejaVuSans-Bold-6c" transform="translate(751.904297 0)"/>
      <use xlink:href="#DejaVuSans-Bold-69" transform="translate(786.181641 0)"/>
      <use xlink:href="#DejaVuSans-Bold-6f" transform="translate(820.458984 0)"/>
      <use xlink:href="#DejaVuSans-Bold-6e" transform="translate(889.160156 0)"/>
      <use xlink:href="#DejaVuSans-Bold-73" transform="translate(960.351562 0)"/>
      <use xlink:href="#DejaVuSans-Bold-29" transform="translate(1019.873047 0)"/>
     </g>
    </g>
   </g>
   <g id="line2d_14">
    <path d="M 83.073321 280.96852 
L 88.963643 322.160929 
L 94.918693 318.279557 
L 100.873743 317.475504 
L 106.699336 312.261339 
L 112.589657 308.672882 
L 118.544708 307.483686 
L 124.499758 310.07277 
L 130.325351 305.480636 
L 136.215672 301.900287 
L 142.170723 302.417625 
L 148.125773 305.632535 
L 154.016095 301.761038 
L 159.906416 302.366202 
L 165.861466 301.440396 
L 171.816517 299.192266 
L 177.642109 295.396036 
L 183.532431 296.691655 
L 189.487481 295.041702 
L 195.442532 286.87281 
L 201.268124 290.917363 
L 207.158446 290.345676 
L 213.113496 288.940979 
L 219.068547 291.059886 
L 224.894139 286.449205 
L 230.784461 284.801508 
L 236.739511 282.545004 
L 242.694561 280.168632 
L 248.584883 277.66619 
L 254.475205 279.448613 
L 260.430255 282.888484 
L 266.385305 290.87526 
L 272.210898 293.769138 
L 278.101219 297.76134 
L 284.05627 306.017592 
L 290.01132 305.638883 
L 295.836913 305.632542 
L 301.727234 308.47822 
L 307.682285 310.596495 
L 313.637335 310.858197 
L 319.462928 315.265655 
L 325.353249 314.941969 
L 331.3083 311.298753 
L 337.26335 308.759296 
L 343.153671 307.209032 
L 349.043993 306.983501 
L 354.999043 302.918605 
L 360.954094 302.58155 
L 366.779686 299.574895 
L 372.670008 295.93649 
L 378.625058 296.151492 
L 384.580109 294.938833 
L 390.405701 293.202882 
L 396.296023 294.032765 
L 402.251073 296.07249 
L 408.206123 296.662939 
L 414.031716 294.74025 
L 419.922038 296.703423 
L 425.877088 300.902102 
L 431.832138 301.665342 
L 437.72246 308.607205 
L 443.612781 314.12684 
L 449.567832 323.055592 
L 455.522882 333.378003 
L 461.348475 344.54745 
L 467.238796 347.892907 
L 473.193847 339.410881 
L 479.148897 337.987015 
L 484.97449 336.705041 
L 490.864811 336.939394 
L 496.819862 330.709715 
L 502.774912 329.882088 
L 508.600505 330.178677 
L 514.490826 328.008546 
L 520.445876 326.68148 
L 526.400927 321.967225 
L 532.291248 323.596146 
L 538.18157 323.52026 
L 544.13662 323.662785 
L 550.09167 317.633615 
L 555.917263 317.794146 
L 561.807585 317.011165 
L 567.762635 315.232433 
L 573.717685 311.603293 
L 579.543278 309.087646 
L 585.4336 308.767367 
L 591.38865 305.122687 
L 597.3437 304.312607 
L 603.169293 301.928078 
L 609.059615 301.955424 
L 615.014665 297.293453 
L 620.969715 301.018873 
L 626.860037 298.70698 
L 632.750358 295.237832 
L 638.705409 297.706065 
L 644.660459 295.778623 
L 650.486052 294.144937 
L 656.376373 295.345294 
L 662.331423 292.391756 
L 668.286474 290.826679 
L 674.112067 289.398826 
L 680.002388 290.054491 
L 685.957438 290.649395 
L 691.912489 289.263052 
L 697.738081 288.822049 
L 703.628403 291.566145 
L 709.583453 290.536094 
L 715.538504 296.560251 
L 721.428825 345.991757 
L 727.319147 320.292264 
L 733.274197 300.407172 
L 739.229247 302.021165 
L 745.05484 288.094952 
L 750.945162 280.695358 
L 756.900212 270.682587 
L 762.855262 276.676661 
L 768.680855 276.404209 
L 774.571177 275.012833 
L 780.526227 281.351528 
L 786.481277 283.603791 
L 792.30687 289.411568 
L 798.197191 292.378183 
" clip-path="url(#p11e633814c)" style="fill: none; stroke: #023047; stroke-width: 2; stroke-linecap: square"/>
   </g>
   <g id="line2d_15">
    <path d="M 83.073321 209.990805 
L 88.963643 240.814194 
L 94.918693 239.177492 
L 100.873743 238.505402 
L 106.699336 230.515305 
L 112.589657 226.50432 
L 118.544708 224.214807 
L 124.499758 229.101586 
L 130.325351 222.258859 
L 136.215672 218.176571 
L 142.170723 219.752951 
L 148.125773 224.182378 
L 154.016095 217.781468 
L 159.906416 219.808416 
L 165.861466 215.690875 
L 171.816517 212.498299 
L 177.642109 208.643852 
L 183.532431 210.502694 
L 189.487481 207.139577 
L 195.442532 200.64971 
L 201.268124 205.446549 
L 207.158446 204.210299 
L 213.113496 202.031257 
L 219.068547 201.105811 
L 224.894139 199.31171 
L 230.784461 196.791504 
L 236.739511 193.069057 
L 242.694561 188.981758 
L 248.584883 189.921286 
L 254.475205 189.937034 
L 260.430255 194.965062 
L 266.385305 207.202621 
L 272.210898 213.584903 
L 278.101219 218.927087 
L 284.05627 229.703554 
L 290.01132 224.705038 
L 295.836913 227.291636 
L 301.727234 229.7829 
L 307.682285 232.068242 
L 313.637335 235.54849 
L 319.462928 239.879619 
L 325.353249 237.129859 
L 331.3083 231.376748 
L 337.26335 228.806172 
L 343.153671 226.102916 
L 349.043993 228.284756 
L 354.999043 223.280165 
L 360.954094 221.56484 
L 366.779686 218.676307 
L 372.670008 214.559251 
L 378.625058 214.652337 
L 384.580109 213.185548 
L 390.405701 212.564098 
L 396.296023 213.5652 
L 402.251073 214.143392 
L 408.206123 215.961039 
L 414.031716 214.50332 
L 419.922038 218.013628 
L 425.877088 221.142958 
L 431.832138 226.433232 
L 437.72246 236.354153 
L 443.612781 244.219748 
L 449.567832 256.117753 
L 455.522882 272.762584 
L 461.348475 283.898476 
L 467.238796 283.485497 
L 473.193847 274.253396 
L 479.148897 271.074899 
L 484.97449 266.040341 
L 490.864811 265.369036 
L 496.819862 261.391925 
L 502.774912 260.226708 
L 508.600505 258.304997 
L 514.490826 254.024986 
L 520.445876 254.035976 
L 526.400927 249.13931 
L 532.291248 250.652422 
L 538.18157 249.167482 
L 544.13662 251.314257 
L 550.09167 243.058078 
L 555.917263 243.520627 
L 561.807585 242.853807 
L 567.762635 239.383445 
L 573.717685 236.852132 
L 579.543278 231.902051 
L 585.4336 232.495447 
L 591.38865 227.104083 
L 597.3437 228.332809 
L 603.169293 223.194146 
L 609.059615 224.373185 
L 615.014665 219.660614 
L 620.969715 225.096702 
L 626.860037 222.509933 
L 632.750358 217.687956 
L 638.705409 221.437151 
L 644.660459 217.492878 
L 650.486052 215.940098 
L 656.376373 217.189739 
L 662.331423 212.843749 
L 668.286474 213.233558 
L 674.112067 209.430794 
L 680.002388 209.765042 
L 685.957438 211.096894 
L 691.912489 211.542715 
L 697.738081 207.475221 
L 703.628403 214.202911 
L 709.583453 209.706099 
L 715.538504 238.614856 
L 721.428825 289.31972 
L 727.319147 215.444441 
L 733.274197 207.790045 
L 739.229247 220.811368 
L 745.05484 195.396031 
L 750.945162 182.696954 
L 756.900212 175.536923 
L 762.855262 186.44528 
L 768.680855 185.167706 
L 774.571177 186.094173 
L 780.526227 197.575786 
L 786.481277 200.465035 
L 792.30687 206.718352 
L 798.197191 211.161109 
" clip-path="url(#p11e633814c)" style="fill: none; stroke: #34a937; stroke-width: 2; stroke-linecap: square"/>
   </g>
   <g id="line2d_16">
    <path d="M 83.073321 148.268026 
L 88.963643 128.20235 
L 94.918693 120.211395 
L 100.873743 111.918625 
L 106.699336 104.487642 
L 112.589657 98.86918 
L 118.544708 97.227352 
L 124.499758 95.301036 
L 130.325351 92.184868 
L 136.215672 90.367111 
L 142.170723 90.49936 
L 148.125773 93.197471 
L 154.016095 89.848122 
L 159.906416 92.531793 
L 165.861466 86.911219 
L 171.816517 77.293704 
L 177.642109 76.628897 
L 183.532431 76.567165 
L 189.487481 75.438877 
L 195.442532 76.693139 
L 201.268124 68.787634 
L 207.158446 64.820751 
L 213.113496 60.244093 
L 219.068547 59.357815 
L 224.894139 58.000081 
L 230.784461 53.844945 
L 236.739511 45.387286 
L 242.694561 40.716329 
L 248.584883 42.567568 
L 254.475205 44.622848 
L 260.430255 51.153365 
L 266.385305 68.390162 
L 272.210898 78.390731 
L 278.101219 90.444628 
L 284.05627 108.164933 
L 290.01132 103.41457 
L 295.836913 108.473871 
L 301.727234 113.466865 
L 307.682285 119.775501 
L 313.637335 122.118349 
L 319.462928 131.818593 
L 325.353249 128.78141 
L 331.3083 121.978538 
L 337.26335 118.134315 
L 343.153671 112.243976 
L 349.043993 115.887937 
L 354.999043 108.144064 
L 360.954094 108.006917 
L 366.779686 103.894466 
L 372.670008 94.819053 
L 378.625058 96.450032 
L 384.580109 92.743337 
L 390.405701 93.198506 
L 396.296023 95.854665 
L 402.251073 96.427433 
L 408.206123 98.507753 
L 414.031716 93.599722 
L 419.922038 102.58179 
L 425.877088 109.602572 
L 431.832138 118.653211 
L 437.72246 132.655223 
L 443.612781 145.062058 
L 449.567832 167.247201 
L 455.522882 189.927669 
L 461.348475 209.290491 
L 467.238796 211.793572 
L 473.193847 199.83394 
L 479.148897 196.000879 
L 484.97449 189.136347 
L 490.864811 188.843871 
L 496.819862 183.903427 
L 502.774912 182.18247 
L 508.600505 180.147769 
L 514.490826 173.024411 
L 520.445876 175.01749 
L 526.400927 167.820822 
L 532.291248 168.505719 
L 538.18157 168.283472 
L 544.13662 169.793261 
L 550.09167 159.286524 
L 555.917263 160.058225 
L 561.807585 158.390543 
L 567.762635 154.309202 
L 573.717685 149.209189 
L 579.543278 143.202924 
L 585.4336 143.134411 
L 591.38865 138.432573 
L 597.3437 136.048548 
L 603.169293 129.692318 
L 609.059615 128.956196 
L 615.014665 121.636102 
L 620.969715 129.366699 
L 626.860037 125.142288 
L 632.750358 115.049009 
L 638.705409 120.006439 
L 644.660459 115.407034 
L 650.486052 115.383814 
L 656.376373 116.775984 
L 662.331423 111.980564 
L 668.286474 109.017551 
L 674.112067 105.474644 
L 680.002388 105.553998 
L 685.957438 110.389662 
L 691.912489 106.249919 
L 697.738081 102.550099 
L 703.628403 109.817263 
L 709.583453 111.656911 
L 715.538504 112.757417 
L 721.428825 212.426761 
L 727.319147 121.756314 
L 733.274197 109.708616 
L 739.229247 118.735698 
L 745.05484 86.518741 
L 750.945162 68.223966 
L 756.900212 60.923451 
L 762.855262 67.238851 
L 768.680855 67.643639 
L 774.571177 68.168111 
L 780.526227 102.167708 
L 786.481277 87.832209 
L 792.30687 102.848416 
L 798.197191 116.729521 
L 804.152242 129.470624 
" clip-path="url(#p11e633814c)" style="fill: none; stroke-dasharray: 7.4,3.2; stroke-dashoffset: 0; stroke: #bc5090; stroke-width: 2"/>
   </g>
   <g id="patch_6">
    <path d="M 47.019375 363.251736 
L 47.019375 25.3575 
" style="fill: none; stroke: #000000; stroke-width: 0.8; stroke-linejoin: miter; stroke-linecap: square"/>
   </g>
   <g id="patch_7">
    <path d="M 840.206188 363.251736 
L 840.206188 25.3575 
" style="fill: none; stroke: #000000; stroke-width: 0.8; stroke-linejoin: miter; stroke-linecap: square"/>
   </g>
   <g id="patch_8">
    <path d="M 47.019375 363.251736 
L 840.206188 363.251736 
" style="fill: none; stroke: #000000; stroke-width: 0.8; stroke-linejoin: miter; stroke-linecap: square"/>
   </g>
   <g id="patch_9">
    <path d="M 47.019375 25.3575 
L 840.206188 25.3575 
" style="fill: none; stroke: #000000; stroke-width: 0.8; stroke-linejoin: miter; stroke-linecap: square"/>
   </g>
   <g id="text_16">
    <!-- Labor Market Indicators Over Time -->
    <g transform="translate(286.486531 19.3575) scale(0.16 -0.16)">
     <defs>
      <path id="DejaVuSans-Bold-62" d="M 2400 722 
Q 2759 722 2948 984 
Q 3138 1247 3138 1747 
Q 3138 2247 2948 2509 
Q 2759 2772 2400 2772 
Q 2041 2772 1848 2508 
Q 1656 2244 1656 1747 
Q 1656 1250 1848 986 
Q 2041 722 2400 722 
z
M 1656 2988 
Q 1888 3294 2169 3439 
Q 2450 3584 2816 3584 
Q 3463 3584 3878 3070 
Q 4294 2556 4294 1747 
Q 4294 938 3878 423 
Q 3463 -91 2816 -91 
Q 2450 -91 2169 54 
Q 1888 200 1656 506 
L 1656 0 
L 538 0 
L 538 4863 
L 1656 4863 
L 1656 2988 
z
" transform="scale(0.015625)"/>
      <path id="DejaVuSans-Bold-72" d="M 3138 2547 
Q 2991 2616 2845 2648 
Q 2700 2681 2553 2681 
Q 2122 2681 1889 2404 
Q 1656 2128 1656 1613 
L 1656 0 
L 538 0 
L 538 3500 
L 1656 3500 
L 1656 2925 
Q 1872 3269 2151 3426 
Q 2431 3584 2822 3584 
Q 2878 3584 2943 3579 
Q 3009 3575 3134 3559 
L 3138 2547 
z
" transform="scale(0.015625)"/>
      <path id="DejaVuSans-Bold-4d" d="M 588 4666 
L 2119 4666 
L 3181 2169 
L 4250 4666 
L 5778 4666 
L 5778 0 
L 4641 0 
L 4641 3413 
L 3566 897 
L 2803 897 
L 1728 3413 
L 1728 0 
L 588 0 
L 588 4666 
z
" transform="scale(0.015625)"/>
      <path id="DejaVuSans-Bold-6b" d="M 538 4863 
L 1656 4863 
L 1656 2216 
L 2944 3500 
L 4244 3500 
L 2534 1894 
L 4378 0 
L 3022 0 
L 1656 1459 
L 1656 0 
L 538 0 
L 538 4863 
z
" transform="scale(0.015625)"/>
      <path id="DejaVuSans-Bold-49" d="M 588 4666 
L 1791 4666 
L 1791 0 
L 588 0 
L 588 4666 
z
" transform="scale(0.015625)"/>
      <path id="DejaVuSans-Bold-64" d="M 2919 2988 
L 2919 4863 
L 4044 4863 
L 4044 0 
L 2919 0 
L 2919 506 
Q 2688 197 2409 53 
Q 2131 -91 1766 -91 
Q 1119 -91 703 423 
Q 288 938 288 1747 
Q 288 2556 703 3070 
Q 1119 3584 1766 3584 
Q 2128 3584 2408 3439 
Q 2688 3294 2919 2988 
z
M 2181 722 
Q 2541 722 2730 984 
Q 2919 1247 2919 1747 
Q 2919 2247 2730 2509 
Q 2541 2772 2181 2772 
Q 1825 2772 1636 2509 
Q 1447 2247 1447 1747 
Q 1447 1247 1636 984 
Q 1825 722 2181 722 
z
" transform="scale(0.015625)"/>
      <path id="DejaVuSans-Bold-63" d="M 3366 3391 
L 3366 2478 
Q 3138 2634 2908 2709 
Q 2678 2784 2431 2784 
Q 1963 2784 1702 2511 
Q 1441 2238 1441 1747 
Q 1441 1256 1702 982 
Q 1963 709 2431 709 
Q 2694 709 2930 787 
Q 3166 866 3366 1019 
L 3366 103 
Q 3103 6 2833 -42 
Q 2563 -91 2291 -91 
Q 1344 -91 809 395 
Q 275 881 275 1747 
Q 275 2613 809 3098 
Q 1344 3584 2291 3584 
Q 2566 3584 2833 3536 
Q 3100 3488 3366 3391 
z
" transform="scale(0.015625)"/>
      <path id="DejaVuSans-Bold-4f" d="M 2719 3878 
Q 2169 3878 1866 3472 
Q 1563 3066 1563 2328 
Q 1563 1594 1866 1187 
Q 2169 781 2719 781 
Q 3272 781 3575 1187 
Q 3878 1594 3878 2328 
Q 3878 3066 3575 3472 
Q 3272 3878 2719 3878 
z
M 2719 4750 
Q 3844 4750 4481 4106 
Q 5119 3463 5119 2328 
Q 5119 1197 4481 553 
Q 3844 -91 2719 -91 
Q 1597 -91 958 553 
Q 319 1197 319 2328 
Q 319 3463 958 4106 
Q 1597 4750 2719 4750 
z
" transform="scale(0.015625)"/>
      <path id="DejaVuSans-Bold-54" d="M 31 4666 
L 4331 4666 
L 4331 3756 
L 2784 3756 
L 2784 0 
L 1581 0 
L 1581 3756 
L 31 3756 
L 31 4666 
z
" transform="scale(0.015625)"/>
     </defs>
     <use xlink:href="#DejaVuSans-Bold-4c"/>
     <use xlink:href="#DejaVuSans-Bold-61" transform="translate(63.720703 0)"/>
     <use xlink:href="#DejaVuSans-Bold-62" transform="translate(131.201172 0)"/>
     <use xlink:href="#DejaVuSans-Bold-6f" transform="translate(202.783203 0)"/>
     <use xlink:href="#DejaVuSans-Bold-72" transform="translate(271.484375 0)"/>
     <use xlink:href="#DejaVuSans-Bold-20" transform="translate(320.800781 0)"/>
     <use xlink:href="#DejaVuSans-Bold-4d" transform="translate(355.615234 0)"/>
     <use xlink:href="#DejaVuSans-Bold-61" transform="translate(455.126953 0)"/>
     <use xlink:href="#DejaVuSans-Bold-72" transform="translate(522.607422 0)"/>
     <use xlink:href="#DejaVuSans-Bold-6b" transform="translate(571.923828 0)"/>
     <use xlink:href="#DejaVuSans-Bold-65" transform="translate(635.802734 0)"/>
     <use xlink:href="#DejaVuSans-Bold-74" transform="translate(703.625 0)"/>
     <use xlink:href="#DejaVuSans-Bold-20" transform="translate(751.427734 0)"/>
     <use xlink:href="#DejaVuSans-Bold-49" transform="translate(786.242188 0)"/>
     <use xlink:href="#DejaVuSans-Bold-6e" transform="translate(823.449219 0)"/>
     <use xlink:href="#DejaVuSans-Bold-64" transform="translate(894.640625 0)"/>
     <use xlink:href="#DejaVuSans-Bold-69" transform="translate(966.222656 0)"/>
     <use xlink:href="#DejaVuSans-Bold-63" transform="translate(1000.5 0)"/>
     <use xlink:href="#DejaVuSans-Bold-61" transform="translate(1059.777344 0)"/>
     <use xlink:href="#DejaVuSans-Bold-74" transform="translate(1127.257812 0)"/>
     <use xlink:href="#DejaVuSans-Bold-6f" transform="translate(1175.060547 0)"/>
     <use xlink:href="#DejaVuSans-Bold-72" transform="translate(1243.761719 0)"/>
     <use xlink:href="#DejaVuSans-Bold-73" transform="translate(1293.078125 0)"/>
     <use xlink:href="#DejaVuSans-Bold-20" transform="translate(1352.599609 0)"/>
     <use xlink:href="#DejaVuSans-Bold-4f" transform="translate(1387.414062 0)"/>
     <use xlink:href="#DejaVuSans-Bold-76" transform="translate(1472.423828 0)"/>
     <use xlink:href="#DejaVuSans-Bold-65" transform="translate(1537.609375 0)"/>
     <use xlink:href="#DejaVuSans-Bold-72" transform="translate(1605.431641 0)"/>
     <use xlink:href="#DejaVuSans-Bold-20" transform="translate(1654.748047 0)"/>
     <use xlink:href="#DejaVuSans-Bold-54" transform="translate(1689.5625 0)"/>
     <use xlink:href="#DejaVuSans-Bold-69" transform="translate(1757.775391 0)"/>
     <use xlink:href="#DejaVuSans-Bold-6d" transform="translate(1792.052734 0)"/>
     <use xlink:href="#DejaVuSans-Bold-65" transform="translate(1896.251953 0)"/>
    </g>
   </g>
   <g id="legend_1">
    <g id="patch_10">
     <path d="M 54.019375 77.391875 
L 151.72875 77.391875 
Q 153.72875 77.391875 153.72875 75.391875 
L 153.72875 32.3575 
Q 153.72875 30.3575 151.72875 30.3575 
L 54.019375 30.3575 
Q 52.019375 30.3575 52.019375 32.3575 
L 52.019375 75.391875 
Q 52.019375 77.391875 54.019375 77.391875 
z
" style="fill: #ffffff; opacity: 0.8; stroke: #cccccc; stroke-linejoin: miter"/>
    </g>
    <g id="line2d_17">
     <path d="M 56.019375 38.455937 
L 66.019375 38.455937 
L 76.019375 38.455937 
" style="fill: none; stroke: #023047; stroke-width: 2; stroke-linecap: square"/>
    </g>
    <g id="text_17">
     <!-- Replacement -->
     <g transform="translate(84.019375 41.955937) scale(0.1 -0.1)">
      <defs>
       <path id="DejaVuSans-52" d="M 2841 2188 
Q 3044 2119 3236 1894 
Q 3428 1669 3622 1275 
L 4263 0 
L 3584 0 
L 2988 1197 
Q 2756 1666 2539 1819 
Q 2322 1972 1947 1972 
L 1259 1972 
L 1259 0 
L 628 0 
L 628 4666 
L 2053 4666 
Q 2853 4666 3247 4331 
Q 3641 3997 3641 3322 
Q 3641 2881 3436 2590 
Q 3231 2300 2841 2188 
z
M 1259 4147 
L 1259 2491 
L 2053 2491 
Q 2509 2491 2742 2702 
Q 2975 2913 2975 3322 
Q 2975 3731 2742 3939 
Q 2509 4147 2053 4147 
L 1259 4147 
z
" transform="scale(0.015625)"/>
       <path id="DejaVuSans-65" d="M 3597 1894 
L 3597 1613 
L 953 1613 
Q 991 1019 1311 708 
Q 1631 397 2203 397 
Q 2534 397 2845 478 
Q 3156 559 3463 722 
L 3463 178 
Q 3153 47 2828 -22 
Q 2503 -91 2169 -91 
Q 1331 -91 842 396 
Q 353 884 353 1716 
Q 353 2575 817 3079 
Q 1281 3584 2069 3584 
Q 2775 3584 3186 3129 
Q 3597 2675 3597 1894 
z
M 3022 2063 
Q 3016 2534 2758 2815 
Q 2500 3097 2075 3097 
Q 1594 3097 1305 2825 
Q 1016 2553 972 2059 
L 3022 2063 
z
" transform="scale(0.015625)"/>
       <path id="DejaVuSans-70" d="M 1159 525 
L 1159 -1331 
L 581 -1331 
L 581 3500 
L 1159 3500 
L 1159 2969 
Q 1341 3281 1617 3432 
Q 1894 3584 2278 3584 
Q 2916 3584 3314 3078 
Q 3713 2572 3713 1747 
Q 3713 922 3314 415 
Q 2916 -91 2278 -91 
Q 1894 -91 1617 61 
Q 1341 213 1159 525 
z
M 3116 1747 
Q 3116 2381 2855 2742 
Q 2594 3103 2138 3103 
Q 1681 3103 1420 2742 
Q 1159 2381 1159 1747 
Q 1159 1113 1420 752 
Q 1681 391 2138 391 
Q 2594 391 2855 752 
Q 3116 1113 3116 1747 
z
" transform="scale(0.015625)"/>
       <path id="DejaVuSans-6c" d="M 603 4863 
L 1178 4863 
L 1178 0 
L 603 0 
L 603 4863 
z
" transform="scale(0.015625)"/>
       <path id="DejaVuSans-61" d="M 2194 1759 
Q 1497 1759 1228 1600 
Q 959 1441 959 1056 
Q 959 750 1161 570 
Q 1363 391 1709 391 
Q 2188 391 2477 730 
Q 2766 1069 2766 1631 
L 2766 1759 
L 2194 1759 
z
M 3341 1997 
L 3341 0 
L 2766 0 
L 2766 531 
Q 2569 213 2275 61 
Q 1981 -91 1556 -91 
Q 1019 -91 701 211 
Q 384 513 384 1019 
Q 384 1609 779 1909 
Q 1175 2209 1959 2209 
L 2766 2209 
L 2766 2266 
Q 2766 2663 2505 2880 
Q 2244 3097 1772 3097 
Q 1472 3097 1187 3025 
Q 903 2953 641 2809 
L 641 3341 
Q 956 3463 1253 3523 
Q 1550 3584 1831 3584 
Q 2591 3584 2966 3190 
Q 3341 2797 3341 1997 
z
" transform="scale(0.015625)"/>
       <path id="DejaVuSans-63" d="M 3122 3366 
L 3122 2828 
Q 2878 2963 2633 3030 
Q 2388 3097 2138 3097 
Q 1578 3097 1268 2742 
Q 959 2388 959 1747 
Q 959 1106 1268 751 
Q 1578 397 2138 397 
Q 2388 397 2633 464 
Q 2878 531 3122 666 
L 3122 134 
Q 2881 22 2623 -34 
Q 2366 -91 2075 -91 
Q 1284 -91 818 406 
Q 353 903 353 1747 
Q 353 2603 823 3093 
Q 1294 3584 2113 3584 
Q 2378 3584 2631 3529 
Q 2884 3475 3122 3366 
z
" transform="scale(0.015625)"/>
       <path id="DejaVuSans-6d" d="M 3328 2828 
Q 3544 3216 3844 3400 
Q 4144 3584 4550 3584 
Q 5097 3584 5394 3201 
Q 5691 2819 5691 2113 
L 5691 0 
L 5113 0 
L 5113 2094 
Q 5113 2597 4934 2840 
Q 4756 3084 4391 3084 
Q 3944 3084 3684 2787 
Q 3425 2491 3425 1978 
L 3425 0 
L 2847 0 
L 2847 2094 
Q 2847 2600 2669 2842 
Q 2491 3084 2119 3084 
Q 1678 3084 1418 2786 
Q 1159 2488 1159 1978 
L 1159 0 
L 581 0 
L 581 3500 
L 1159 3500 
L 1159 2956 
Q 1356 3278 1631 3431 
Q 1906 3584 2284 3584 
Q 2666 3584 2933 3390 
Q 3200 3197 3328 2828 
z
" transform="scale(0.015625)"/>
       <path id="DejaVuSans-6e" d="M 3513 2113 
L 3513 0 
L 2938 0 
L 2938 2094 
Q 2938 2591 2744 2837 
Q 2550 3084 2163 3084 
Q 1697 3084 1428 2787 
Q 1159 2491 1159 1978 
L 1159 0 
L 581 0 
L 581 3500 
L 1159 3500 
L 1159 2956 
Q 1366 3272 1645 3428 
Q 1925 3584 2291 3584 
Q 2894 3584 3203 3211 
Q 3513 2838 3513 2113 
z
" transform="scale(0.015625)"/>
       <path id="DejaVuSans-74" d="M 1172 4494 
L 1172 3500 
L 2356 3500 
L 2356 3053 
L 1172 3053 
L 1172 1153 
Q 1172 725 1289 603 
Q 1406 481 1766 481 
L 2356 481 
L 2356 0 
L 1766 0 
Q 1100 0 847 248 
Q 594 497 594 1153 
L 594 3053 
L 172 3053 
L 172 3500 
L 594 3500 
L 594 4494 
L 1172 4494 
z
" transform="scale(0.015625)"/>
      </defs>
      <use xlink:href="#DejaVuSans-52"/>
      <use xlink:href="#DejaVuSans-65" transform="translate(64.982422 0)"/>
      <use xlink:href="#DejaVuSans-70" transform="translate(126.505859 0)"/>
      <use xlink:href="#DejaVuSans-6c" transform="translate(189.982422 0)"/>
      <use xlink:href="#DejaVuSans-61" transform="translate(217.765625 0)"/>
      <use xlink:href="#DejaVuSans-63" transform="translate(279.044922 0)"/>
      <use xlink:href="#DejaVuSans-65" transform="translate(334.025391 0)"/>
      <use xlink:href="#DejaVuSans-6d" transform="translate(395.548828 0)"/>
      <use xlink:href="#DejaVuSans-65" transform="translate(492.960938 0)"/>
      <use xlink:href="#DejaVuSans-6e" transform="translate(554.484375 0)"/>
      <use xlink:href="#DejaVuSans-74" transform="translate(617.863281 0)"/>
     </g>
    </g>
    <g id="line2d_18">
     <path d="M 56.019375 53.134062 
L 66.019375 53.134062 
L 76.019375 53.134062 
" style="fill: none; stroke: #34a937; stroke-width: 2; stroke-linecap: square"/>
    </g>
    <g id="text_18">
     <!-- Hires -->
     <g transform="translate(84.019375 56.634062) scale(0.1 -0.1)">
      <defs>
       <path id="DejaVuSans-48" d="M 628 4666 
L 1259 4666 
L 1259 2753 
L 3553 2753 
L 3553 4666 
L 4184 4666 
L 4184 0 
L 3553 0 
L 3553 2222 
L 1259 2222 
L 1259 0 
L 628 0 
L 628 4666 
z
" transform="scale(0.015625)"/>
       <path id="DejaVuSans-69" d="M 603 3500 
L 1178 3500 
L 1178 0 
L 603 0 
L 603 3500 
z
M 603 4863 
L 1178 4863 
L 1178 4134 
L 603 4134 
L 603 4863 
z
" transform="scale(0.015625)"/>
       <path id="DejaVuSans-72" d="M 2631 2963 
Q 2534 3019 2420 3045 
Q 2306 3072 2169 3072 
Q 1681 3072 1420 2755 
Q 1159 2438 1159 1844 
L 1159 0 
L 581 0 
L 581 3500 
L 1159 3500 
L 1159 2956 
Q 1341 3275 1631 3429 
Q 1922 3584 2338 3584 
Q 2397 3584 2469 3576 
Q 2541 3569 2628 3553 
L 2631 2963 
z
" transform="scale(0.015625)"/>
       <path id="DejaVuSans-73" d="M 2834 3397 
L 2834 2853 
Q 2591 2978 2328 3040 
Q 2066 3103 1784 3103 
Q 1356 3103 1142 2972 
Q 928 2841 928 2578 
Q 928 2378 1081 2264 
Q 1234 2150 1697 2047 
L 1894 2003 
Q 2506 1872 2764 1633 
Q 3022 1394 3022 966 
Q 3022 478 2636 193 
Q 2250 -91 1575 -91 
Q 1294 -91 989 -36 
Q 684 19 347 128 
L 347 722 
Q 666 556 975 473 
Q 1284 391 1588 391 
Q 1994 391 2212 530 
Q 2431 669 2431 922 
Q 2431 1156 2273 1281 
Q 2116 1406 1581 1522 
L 1381 1569 
Q 847 1681 609 1914 
Q 372 2147 372 2553 
Q 372 3047 722 3315 
Q 1072 3584 1716 3584 
Q 2034 3584 2315 3537 
Q 2597 3491 2834 3397 
z
" transform="scale(0.015625)"/>
      </defs>
      <use xlink:href="#DejaVuSans-48"/>
      <use xlink:href="#DejaVuSans-69" transform="translate(75.195312 0)"/>
      <use xlink:href="#DejaVuSans-72" transform="translate(102.978516 0)"/>
      <use xlink:href="#DejaVuSans-65" transform="translate(141.841797 0)"/>
      <use xlink:href="#DejaVuSans-73" transform="translate(203.365234 0)"/>
     </g>
    </g>
    <g id="line2d_19">
     <path d="M 56.019375 67.812187 
L 66.019375 67.812187 
L 76.019375 67.812187 
" style="fill: none; stroke-dasharray: 7.4,3.2; stroke-dashoffset: 0; stroke: #bc5090; stroke-width: 2"/>
    </g>
    <g id="text_19">
     <!-- All Hires -->
     <g transform="translate(84.019375 71.312187) scale(0.1 -0.1)">
      <defs>
       <path id="DejaVuSans-41" d="M 2188 4044 
L 1331 1722 
L 3047 1722 
L 2188 4044 
z
M 1831 4666 
L 2547 4666 
L 4325 0 
L 3669 0 
L 3244 1197 
L 1141 1197 
L 716 0 
L 50 0 
L 1831 4666 
z
" transform="scale(0.015625)"/>
       <path id="DejaVuSans-20" transform="scale(0.015625)"/>
      </defs>
      <use xlink:href="#DejaVuSans-41"/>
      <use xlink:href="#DejaVuSans-6c" transform="translate(68.408203 0)"/>
      <use xlink:href="#DejaVuSans-6c" transform="translate(96.191406 0)"/>
      <use xlink:href="#DejaVuSans-20" transform="translate(123.974609 0)"/>
      <use xlink:href="#DejaVuSans-48" transform="translate(155.761719 0)"/>
      <use xlink:href="#DejaVuSans-69" transform="translate(230.957031 0)"/>
      <use xlink:href="#DejaVuSans-72" transform="translate(258.740234 0)"/>
      <use xlink:href="#DejaVuSans-65" transform="translate(297.603516 0)"/>
      <use xlink:href="#DejaVuSans-73" transform="translate(359.126953 0)"/>
     </g>
    </g>
   </g>
  </g>
 </g>
 <defs>
  <clipPath id="p11e633814c">
   <rect x="47.019375" y="25.3575" width="793.186813" height="337.894236"/>
  </clipPath>
 </defs>
</svg>
