<?xml version="1.0" encoding="utf-8" standalone="no"?>
<!DOCTYPE svg PUBLIC "-//W3C//DTD SVG 1.1//EN"
  "http://www.w3.org/Graphics/SVG/1.1/DTD/svg11.dtd">
<svg xmlns:xlink="http://www.w3.org/1999/xlink" width="856.909375pt" height="424.808313pt" viewBox="0 0 856.909375 424.808313" xmlns="http://www.w3.org/2000/svg" version="1.1">
 <metadata>
  <rdf:RDF xmlns:dc="http://purl.org/dc/elements/1.1/" xmlns:cc="http://creativecommons.org/ns#" xmlns:rdf="http://www.w3.org/1999/02/22-rdf-syntax-ns#">
   <cc:Work>
    <dc:type rdf:resource="http://purl.org/dc/dcmitype/StillImage"/>
    <dc:date>2025-02-24T17:38:19.648001</dc:date>
    <dc:format>image/svg+xml</dc:format>
    <dc:creator>
     <cc:Agent>
      <dc:title>Matplotlib v3.10.0, https://matplotlib.org/</dc:title>
     </cc:Agent>
    </dc:creator>
   </cc:Work>
  </rdf:RDF>
 </metadata>
 <defs>
  <style type="text/css">*{stroke-linejoin: round; stroke-linecap: butt}</style>
 </defs>
 <g id="figure_1">
  <g id="patch_1">
   <path d="M 0 424.808313 
L 856.909375 424.808313 
L 856.909375 0 
L 0 0 
z
" style="fill: #ffffff"/>
  </g>
  <g id="axes_1">
   <g id="patch_2">
    <path d="M 47.019375 363.251736 
L 849.709375 363.251736 
L 849.709375 25.3575 
L 47.019375 25.3575 
z
" style="fill: #ffffff"/>
   </g>
   <g id="patch_3">
    <path d="M 273.112829 363.251736 
L 289.70349 363.251736 
L 289.70349 25.3575 
L 273.112829 25.3575 
z
" clip-path="url(#pfac99961f2)" style="fill: #808080; opacity: 0.3; stroke: #808080; stroke-linejoin: miter"/>
   </g>
   <g id="patch_4">
    <path d="M 440.102903 363.251736 
L 477.211809 363.251736 
L 477.211809 25.3575 
L 440.102903 25.3575 
z
" clip-path="url(#pfac99961f2)" style="fill: #808080; opacity: 0.3; stroke: #808080; stroke-linejoin: miter"/>
   </g>
   <g id="patch_5">
    <path d="M 741.104882 363.251736 
L 745.167901 363.251736 
L 745.167901 25.3575 
L 741.104882 25.3575 
z
" clip-path="url(#pfac99961f2)" style="fill: #808080; opacity: 0.3; stroke: #808080; stroke-linejoin: miter"/>
   </g>
   <g id="matplotlib.axis_1">
    <g id="xtick_1">
     <g id="line2d_1">
      <defs>
       <path id="m8c2d6edac1" d="M 0 0 
L 0 3.5 
" style="stroke: #000000; stroke-width: 0.8"/>
      </defs>
      <g>
       <use xlink:href="#m8c2d6edac1" x="120.681906" y="363.251736" style="stroke: #000000; stroke-width: 0.8"/>
      </g>
     </g>
     <g id="text_1">
      <!-- 1995 -->
      <g transform="translate(112.225793 398.294265) rotate(-45) scale(0.12 -0.12)">
       <defs>
        <path id="DejaVuSans-31" d="M 794 531 
L 1825 531 
L 1825 4091 
L 703 3866 
L 703 4441 
L 1819 4666 
L 2450 4666 
L 2450 531 
L 3481 531 
L 3481 0 
L 794 0 
L 794 531 
z
" transform="scale(0.015625)"/>
        <path id="DejaVuSans-39" d="M 703 97 
L 703 672 
Q 941 559 1184 500 
Q 1428 441 1663 441 
Q 2288 441 2617 861 
Q 2947 1281 2994 2138 
Q 2813 1869 2534 1725 
Q 2256 1581 1919 1581 
Q 1219 1581 811 2004 
Q 403 2428 403 3163 
Q 403 3881 828 4315 
Q 1253 4750 1959 4750 
Q 2769 4750 3195 4129 
Q 3622 3509 3622 2328 
Q 3622 1225 3098 567 
Q 2575 -91 1691 -91 
Q 1453 -91 1209 -44 
Q 966 3 703 97 
z
M 1959 2075 
Q 2384 2075 2632 2365 
Q 2881 2656 2881 3163 
Q 2881 3666 2632 3958 
Q 2384 4250 1959 4250 
Q 1534 4250 1286 3958 
Q 1038 3666 1038 3163 
Q 1038 2656 1286 2365 
Q 1534 2075 1959 2075 
z
" transform="scale(0.015625)"/>
        <path id="DejaVuSans-35" d="M 691 4666 
L 3169 4666 
L 3169 4134 
L 1269 4134 
L 1269 2991 
Q 1406 3038 1543 3061 
Q 1681 3084 1819 3084 
Q 2600 3084 3056 2656 
Q 3513 2228 3513 1497 
Q 3513 744 3044 326 
Q 2575 -91 1722 -91 
Q 1428 -91 1123 -41 
Q 819 9 494 109 
L 494 744 
Q 775 591 1075 516 
Q 1375 441 1709 441 
Q 2250 441 2565 725 
Q 2881 1009 2881 1497 
Q 2881 1984 2565 2268 
Q 2250 2553 1709 2553 
Q 1456 2553 1204 2497 
Q 953 2441 691 2322 
L 691 4666 
z
" transform="scale(0.015625)"/>
       </defs>
       <use xlink:href="#DejaVuSans-31"/>
       <use xlink:href="#DejaVuSans-39" transform="translate(63.623047 0)"/>
       <use xlink:href="#DejaVuSans-39" transform="translate(127.246094 0)"/>
       <use xlink:href="#DejaVuSans-35" transform="translate(190.869141 0)"/>
      </g>
     </g>
    </g>
    <g id="xtick_2">
     <g id="line2d_2">
      <g>
       <use xlink:href="#m8c2d6edac1" x="244.333113" y="363.251736" style="stroke: #000000; stroke-width: 0.8"/>
      </g>
     </g>
     <g id="text_2">
      <!-- 2000 -->
      <g transform="translate(235.877 398.294265) rotate(-45) scale(0.12 -0.12)">
       <defs>
        <path id="DejaVuSans-32" d="M 1228 531 
L 3431 531 
L 3431 0 
L 469 0 
L 469 531 
Q 828 903 1448 1529 
Q 2069 2156 2228 2338 
Q 2531 2678 2651 2914 
Q 2772 3150 2772 3378 
Q 2772 3750 2511 3984 
Q 2250 4219 1831 4219 
Q 1534 4219 1204 4116 
Q 875 4013 500 3803 
L 500 4441 
Q 881 4594 1212 4672 
Q 1544 4750 1819 4750 
Q 2544 4750 2975 4387 
Q 3406 4025 3406 3419 
Q 3406 3131 3298 2873 
Q 3191 2616 2906 2266 
Q 2828 2175 2409 1742 
Q 1991 1309 1228 531 
z
" transform="scale(0.015625)"/>
        <path id="DejaVuSans-30" d="M 2034 4250 
Q 1547 4250 1301 3770 
Q 1056 3291 1056 2328 
Q 1056 1369 1301 889 
Q 1547 409 2034 409 
Q 2525 409 2770 889 
Q 3016 1369 3016 2328 
Q 3016 3291 2770 3770 
Q 2525 4250 2034 4250 
z
M 2034 4750 
Q 2819 4750 3233 4129 
Q 3647 3509 3647 2328 
Q 3647 1150 3233 529 
Q 2819 -91 2034 -91 
Q 1250 -91 836 529 
Q 422 1150 422 2328 
Q 422 3509 836 4129 
Q 1250 4750 2034 4750 
z
" transform="scale(0.015625)"/>
       </defs>
       <use xlink:href="#DejaVuSans-32"/>
       <use xlink:href="#DejaVuSans-30" transform="translate(63.623047 0)"/>
       <use xlink:href="#DejaVuSans-30" transform="translate(127.246094 0)"/>
       <use xlink:href="#DejaVuSans-30" transform="translate(190.869141 0)"/>
      </g>
     </g>
    </g>
    <g id="xtick_3">
     <g id="line2d_3">
      <g>
       <use xlink:href="#m8c2d6edac1" x="368.052036" y="363.251736" style="stroke: #000000; stroke-width: 0.8"/>
      </g>
     </g>
     <g id="text_3">
      <!-- 2005 -->
      <g transform="translate(359.595923 398.294265) rotate(-45) scale(0.12 -0.12)">
       <use xlink:href="#DejaVuSans-32"/>
       <use xlink:href="#DejaVuSans-30" transform="translate(63.623047 0)"/>
       <use xlink:href="#DejaVuSans-30" transform="translate(127.246094 0)"/>
       <use xlink:href="#DejaVuSans-35" transform="translate(190.869141 0)"/>
      </g>
     </g>
    </g>
    <g id="xtick_4">
     <g id="line2d_4">
      <g>
       <use xlink:href="#m8c2d6edac1" x="491.703243" y="363.251736" style="stroke: #000000; stroke-width: 0.8"/>
      </g>
     </g>
     <g id="text_4">
      <!-- 2010 -->
      <g transform="translate(483.247129 398.294265) rotate(-45) scale(0.12 -0.12)">
       <use xlink:href="#DejaVuSans-32"/>
       <use xlink:href="#DejaVuSans-30" transform="translate(63.623047 0)"/>
       <use xlink:href="#DejaVuSans-31" transform="translate(127.246094 0)"/>
       <use xlink:href="#DejaVuSans-30" transform="translate(190.869141 0)"/>
      </g>
     </g>
    </g>
    <g id="xtick_5">
     <g id="line2d_5">
      <g>
       <use xlink:href="#m8c2d6edac1" x="615.354449" y="363.251736" style="stroke: #000000; stroke-width: 0.8"/>
      </g>
     </g>
     <g id="text_5">
      <!-- 2015 -->
      <g transform="translate(606.898336 398.294265) rotate(-45) scale(0.12 -0.12)">
       <use xlink:href="#DejaVuSans-32"/>
       <use xlink:href="#DejaVuSans-30" transform="translate(63.623047 0)"/>
       <use xlink:href="#DejaVuSans-31" transform="translate(127.246094 0)"/>
       <use xlink:href="#DejaVuSans-35" transform="translate(190.869141 0)"/>
      </g>
     </g>
    </g>
    <g id="xtick_6">
     <g id="line2d_6">
      <g>
       <use xlink:href="#m8c2d6edac1" x="739.005655" y="363.251736" style="stroke: #000000; stroke-width: 0.8"/>
      </g>
     </g>
     <g id="text_6">
      <!-- 2020 -->
      <g transform="translate(730.549542 398.294265) rotate(-45) scale(0.12 -0.12)">
       <use xlink:href="#DejaVuSans-32"/>
       <use xlink:href="#DejaVuSans-30" transform="translate(63.623047 0)"/>
       <use xlink:href="#DejaVuSans-32" transform="translate(127.246094 0)"/>
       <use xlink:href="#DejaVuSans-30" transform="translate(190.869141 0)"/>
      </g>
     </g>
    </g>
    <g id="text_7">
     <!-- Date -->
     <g transform="translate(429.735625 414.696751) scale(0.14 -0.14)">
      <defs>
       <path id="DejaVuSans-Bold-44" d="M 1791 3756 
L 1791 909 
L 2222 909 
Q 2959 909 3348 1275 
Q 3738 1641 3738 2338 
Q 3738 3031 3350 3393 
Q 2963 3756 2222 3756 
L 1791 3756 
z
M 588 4666 
L 1856 4666 
Q 2919 4666 3439 4514 
Q 3959 4363 4331 4000 
Q 4659 3684 4818 3271 
Q 4978 2859 4978 2338 
Q 4978 1809 4818 1395 
Q 4659 981 4331 666 
Q 3956 303 3431 151 
Q 2906 0 1856 0 
L 588 0 
L 588 4666 
z
" transform="scale(0.015625)"/>
       <path id="DejaVuSans-Bold-61" d="M 2106 1575 
Q 1756 1575 1579 1456 
Q 1403 1338 1403 1106 
Q 1403 894 1545 773 
Q 1688 653 1941 653 
Q 2256 653 2472 879 
Q 2688 1106 2688 1447 
L 2688 1575 
L 2106 1575 
z
M 3816 1997 
L 3816 0 
L 2688 0 
L 2688 519 
Q 2463 200 2181 54 
Q 1900 -91 1497 -91 
Q 953 -91 614 226 
Q 275 544 275 1050 
Q 275 1666 698 1953 
Q 1122 2241 2028 2241 
L 2688 2241 
L 2688 2328 
Q 2688 2594 2478 2717 
Q 2269 2841 1825 2841 
Q 1466 2841 1156 2769 
Q 847 2697 581 2553 
L 581 3406 
Q 941 3494 1303 3539 
Q 1666 3584 2028 3584 
Q 2975 3584 3395 3211 
Q 3816 2838 3816 1997 
z
" transform="scale(0.015625)"/>
       <path id="DejaVuSans-Bold-74" d="M 1759 4494 
L 1759 3500 
L 2913 3500 
L 2913 2700 
L 1759 2700 
L 1759 1216 
Q 1759 972 1856 886 
Q 1953 800 2241 800 
L 2816 800 
L 2816 0 
L 1856 0 
Q 1194 0 917 276 
Q 641 553 641 1216 
L 641 2700 
L 84 2700 
L 84 3500 
L 641 3500 
L 641 4494 
L 1759 4494 
z
" transform="scale(0.015625)"/>
       <path id="DejaVuSans-Bold-65" d="M 4031 1759 
L 4031 1441 
L 1416 1441 
Q 1456 1047 1700 850 
Q 1944 653 2381 653 
Q 2734 653 3104 758 
Q 3475 863 3866 1075 
L 3866 213 
Q 3469 63 3072 -14 
Q 2675 -91 2278 -91 
Q 1328 -91 801 392 
Q 275 875 275 1747 
Q 275 2603 792 3093 
Q 1309 3584 2216 3584 
Q 3041 3584 3536 3087 
Q 4031 2591 4031 1759 
z
M 2881 2131 
Q 2881 2450 2695 2645 
Q 2509 2841 2209 2841 
Q 1884 2841 1681 2658 
Q 1478 2475 1428 2131 
L 2881 2131 
z
" transform="scale(0.015625)"/>
      </defs>
      <use xlink:href="#DejaVuSans-Bold-44"/>
      <use xlink:href="#DejaVuSans-Bold-61" transform="translate(83.007812 0)"/>
      <use xlink:href="#DejaVuSans-Bold-74" transform="translate(150.488281 0)"/>
      <use xlink:href="#DejaVuSans-Bold-65" transform="translate(198.291016 0)"/>
     </g>
    </g>
   </g>
   <g id="matplotlib.axis_2">
    <g id="ytick_1">
     <g id="line2d_7">
      <defs>
       <path id="m850dc42716" d="M 0 0 
L -3.5 0 
" style="stroke: #000000; stroke-width: 0.8"/>
      </defs>
      <g>
       <use xlink:href="#m850dc42716" x="47.019375" y="349.793962" style="stroke: #000000; stroke-width: 0.8"/>
      </g>
     </g>
     <g id="text_8">
      <!-- 6 -->
      <g transform="translate(32.384375 354.353025) scale(0.12 -0.12)">
       <defs>
        <path id="DejaVuSans-36" d="M 2113 2584 
Q 1688 2584 1439 2293 
Q 1191 2003 1191 1497 
Q 1191 994 1439 701 
Q 1688 409 2113 409 
Q 2538 409 2786 701 
Q 3034 994 3034 1497 
Q 3034 2003 2786 2293 
Q 2538 2584 2113 2584 
z
M 3366 4563 
L 3366 3988 
Q 3128 4100 2886 4159 
Q 2644 4219 2406 4219 
Q 1781 4219 1451 3797 
Q 1122 3375 1075 2522 
Q 1259 2794 1537 2939 
Q 1816 3084 2150 3084 
Q 2853 3084 3261 2657 
Q 3669 2231 3669 1497 
Q 3669 778 3244 343 
Q 2819 -91 2113 -91 
Q 1303 -91 875 529 
Q 447 1150 447 2328 
Q 447 3434 972 4092 
Q 1497 4750 2381 4750 
Q 2619 4750 2861 4703 
Q 3103 4656 3366 4563 
z
" transform="scale(0.015625)"/>
       </defs>
       <use xlink:href="#DejaVuSans-36"/>
      </g>
     </g>
    </g>
    <g id="ytick_2">
     <g id="line2d_8">
      <g>
       <use xlink:href="#m850dc42716" x="47.019375" y="296.283134" style="stroke: #000000; stroke-width: 0.8"/>
      </g>
     </g>
     <g id="text_9">
      <!-- 7 -->
      <g transform="translate(32.384375 300.842196) scale(0.12 -0.12)">
       <defs>
        <path id="DejaVuSans-37" d="M 525 4666 
L 3525 4666 
L 3525 4397 
L 1831 0 
L 1172 0 
L 2766 4134 
L 525 4134 
L 525 4666 
z
" transform="scale(0.015625)"/>
       </defs>
       <use xlink:href="#DejaVuSans-37"/>
      </g>
     </g>
    </g>
    <g id="ytick_3">
     <g id="line2d_9">
      <g>
       <use xlink:href="#m850dc42716" x="47.019375" y="242.772305" style="stroke: #000000; stroke-width: 0.8"/>
      </g>
     </g>
     <g id="text_10">
      <!-- 8 -->
      <g transform="translate(32.384375 247.331367) scale(0.12 -0.12)">
       <defs>
        <path id="DejaVuSans-38" d="M 2034 2216 
Q 1584 2216 1326 1975 
Q 1069 1734 1069 1313 
Q 1069 891 1326 650 
Q 1584 409 2034 409 
Q 2484 409 2743 651 
Q 3003 894 3003 1313 
Q 3003 1734 2745 1975 
Q 2488 2216 2034 2216 
z
M 1403 2484 
Q 997 2584 770 2862 
Q 544 3141 544 3541 
Q 544 4100 942 4425 
Q 1341 4750 2034 4750 
Q 2731 4750 3128 4425 
Q 3525 4100 3525 3541 
Q 3525 3141 3298 2862 
Q 3072 2584 2669 2484 
Q 3125 2378 3379 2068 
Q 3634 1759 3634 1313 
Q 3634 634 3220 271 
Q 2806 -91 2034 -91 
Q 1263 -91 848 271 
Q 434 634 434 1313 
Q 434 1759 690 2068 
Q 947 2378 1403 2484 
z
M 1172 3481 
Q 1172 3119 1398 2916 
Q 1625 2713 2034 2713 
Q 2441 2713 2670 2916 
Q 2900 3119 2900 3481 
Q 2900 3844 2670 4047 
Q 2441 4250 2034 4250 
Q 1625 4250 1398 4047 
Q 1172 3844 1172 3481 
z
" transform="scale(0.015625)"/>
       </defs>
       <use xlink:href="#DejaVuSans-38"/>
      </g>
     </g>
    </g>
    <g id="ytick_4">
     <g id="line2d_10">
      <g>
       <use xlink:href="#m850dc42716" x="47.019375" y="189.261476" style="stroke: #000000; stroke-width: 0.8"/>
      </g>
     </g>
     <g id="text_11">
      <!-- 9 -->
      <g transform="translate(32.384375 193.820539) scale(0.12 -0.12)">
       <use xlink:href="#DejaVuSans-39"/>
      </g>
     </g>
    </g>
    <g id="ytick_5">
     <g id="line2d_11">
      <g>
       <use xlink:href="#m850dc42716" x="47.019375" y="135.750648" style="stroke: #000000; stroke-width: 0.8"/>
      </g>
     </g>
     <g id="text_12">
      <!-- 10 -->
      <g transform="translate(24.749375 140.30971) scale(0.12 -0.12)">
       <use xlink:href="#DejaVuSans-31"/>
       <use xlink:href="#DejaVuSans-30" transform="translate(63.623047 0)"/>
      </g>
     </g>
    </g>
    <g id="ytick_6">
     <g id="line2d_12">
      <g>
       <use xlink:href="#m850dc42716" x="47.019375" y="82.239819" style="stroke: #000000; stroke-width: 0.8"/>
      </g>
     </g>
     <g id="text_13">
      <!-- 11 -->
      <g transform="translate(24.749375 86.798881) scale(0.12 -0.12)">
       <use xlink:href="#DejaVuSans-31"/>
       <use xlink:href="#DejaVuSans-31" transform="translate(63.623047 0)"/>
      </g>
     </g>
    </g>
    <g id="ytick_7">
     <g id="line2d_13">
      <g>
       <use xlink:href="#m850dc42716" x="47.019375" y="28.72899" style="stroke: #000000; stroke-width: 0.8"/>
      </g>
     </g>
     <g id="text_14">
      <!-- 12 -->
      <g transform="translate(24.749375 33.288053) scale(0.12 -0.12)">
       <use xlink:href="#DejaVuSans-31"/>
       <use xlink:href="#DejaVuSans-32" transform="translate(63.623047 0)"/>
      </g>
     </g>
    </g>
    <g id="text_15">
     <!-- Share of Replacement Hires (in millions) -->
     <g transform="translate(17.837812 354.088368) rotate(-90) scale(0.14 -0.14)">
      <defs>
       <path id="DejaVuSans-Bold-53" d="M 3834 4519 
L 3834 3531 
Q 3450 3703 3084 3790 
Q 2719 3878 2394 3878 
Q 1963 3878 1756 3759 
Q 1550 3641 1550 3391 
Q 1550 3203 1689 3098 
Q 1828 2994 2194 2919 
L 2706 2816 
Q 3484 2659 3812 2340 
Q 4141 2022 4141 1434 
Q 4141 663 3683 286 
Q 3225 -91 2284 -91 
Q 1841 -91 1394 -6 
Q 947 78 500 244 
L 500 1259 
Q 947 1022 1364 901 
Q 1781 781 2169 781 
Q 2563 781 2772 912 
Q 2981 1044 2981 1288 
Q 2981 1506 2839 1625 
Q 2697 1744 2272 1838 
L 1806 1941 
Q 1106 2091 782 2419 
Q 459 2747 459 3303 
Q 459 4000 909 4375 
Q 1359 4750 2203 4750 
Q 2588 4750 2994 4692 
Q 3400 4634 3834 4519 
z
" transform="scale(0.015625)"/>
       <path id="DejaVuSans-Bold-68" d="M 4056 2131 
L 4056 0 
L 2931 0 
L 2931 347 
L 2931 1625 
Q 2931 2084 2911 2256 
Q 2891 2428 2841 2509 
Q 2775 2619 2662 2680 
Q 2550 2741 2406 2741 
Q 2056 2741 1856 2470 
Q 1656 2200 1656 1722 
L 1656 0 
L 538 0 
L 538 4863 
L 1656 4863 
L 1656 2988 
Q 1909 3294 2193 3439 
Q 2478 3584 2822 3584 
Q 3428 3584 3742 3212 
Q 4056 2841 4056 2131 
z
" transform="scale(0.015625)"/>
       <path id="DejaVuSans-Bold-72" d="M 3138 2547 
Q 2991 2616 2845 2648 
Q 2700 2681 2553 2681 
Q 2122 2681 1889 2404 
Q 1656 2128 1656 1613 
L 1656 0 
L 538 0 
L 538 3500 
L 1656 3500 
L 1656 2925 
Q 1872 3269 2151 3426 
Q 2431 3584 2822 3584 
Q 2878 3584 2943 3579 
Q 3009 3575 3134 3559 
L 3138 2547 
z
" transform="scale(0.015625)"/>
       <path id="DejaVuSans-Bold-20" transform="scale(0.015625)"/>
       <path id="DejaVuSans-Bold-6f" d="M 2203 2784 
Q 1831 2784 1636 2517 
Q 1441 2250 1441 1747 
Q 1441 1244 1636 976 
Q 1831 709 2203 709 
Q 2569 709 2762 976 
Q 2956 1244 2956 1747 
Q 2956 2250 2762 2517 
Q 2569 2784 2203 2784 
z
M 2203 3584 
Q 3106 3584 3614 3096 
Q 4122 2609 4122 1747 
Q 4122 884 3614 396 
Q 3106 -91 2203 -91 
Q 1297 -91 786 396 
Q 275 884 275 1747 
Q 275 2609 786 3096 
Q 1297 3584 2203 3584 
z
" transform="scale(0.015625)"/>
       <path id="DejaVuSans-Bold-66" d="M 2841 4863 
L 2841 4128 
L 2222 4128 
Q 1984 4128 1890 4042 
Q 1797 3956 1797 3744 
L 1797 3500 
L 2753 3500 
L 2753 2700 
L 1797 2700 
L 1797 0 
L 678 0 
L 678 2700 
L 122 2700 
L 122 3500 
L 678 3500 
L 678 3744 
Q 678 4316 997 4589 
Q 1316 4863 1984 4863 
L 2841 4863 
z
" transform="scale(0.015625)"/>
       <path id="DejaVuSans-Bold-52" d="M 2297 2597 
Q 2675 2597 2839 2737 
Q 3003 2878 3003 3200 
Q 3003 3519 2839 3656 
Q 2675 3794 2297 3794 
L 1791 3794 
L 1791 2597 
L 2297 2597 
z
M 1791 1766 
L 1791 0 
L 588 0 
L 588 4666 
L 2425 4666 
Q 3347 4666 3776 4356 
Q 4206 4047 4206 3378 
Q 4206 2916 3982 2619 
Q 3759 2322 3309 2181 
Q 3556 2125 3751 1926 
Q 3947 1728 4147 1325 
L 4800 0 
L 3519 0 
L 2950 1159 
Q 2778 1509 2601 1637 
Q 2425 1766 2131 1766 
L 1791 1766 
z
" transform="scale(0.015625)"/>
       <path id="DejaVuSans-Bold-70" d="M 1656 506 
L 1656 -1331 
L 538 -1331 
L 538 3500 
L 1656 3500 
L 1656 2988 
Q 1888 3294 2169 3439 
Q 2450 3584 2816 3584 
Q 3463 3584 3878 3070 
Q 4294 2556 4294 1747 
Q 4294 938 3878 423 
Q 3463 -91 2816 -91 
Q 2450 -91 2169 54 
Q 1888 200 1656 506 
z
M 2400 2772 
Q 2041 2772 1848 2508 
Q 1656 2244 1656 1747 
Q 1656 1250 1848 986 
Q 2041 722 2400 722 
Q 2759 722 2948 984 
Q 3138 1247 3138 1747 
Q 3138 2247 2948 2509 
Q 2759 2772 2400 2772 
z
" transform="scale(0.015625)"/>
       <path id="DejaVuSans-Bold-6c" d="M 538 4863 
L 1656 4863 
L 1656 0 
L 538 0 
L 538 4863 
z
" transform="scale(0.015625)"/>
       <path id="DejaVuSans-Bold-63" d="M 3366 3391 
L 3366 2478 
Q 3138 2634 2908 2709 
Q 2678 2784 2431 2784 
Q 1963 2784 1702 2511 
Q 1441 2238 1441 1747 
Q 1441 1256 1702 982 
Q 1963 709 2431 709 
Q 2694 709 2930 787 
Q 3166 866 3366 1019 
L 3366 103 
Q 3103 6 2833 -42 
Q 2563 -91 2291 -91 
Q 1344 -91 809 395 
Q 275 881 275 1747 
Q 275 2613 809 3098 
Q 1344 3584 2291 3584 
Q 2566 3584 2833 3536 
Q 3100 3488 3366 3391 
z
" transform="scale(0.015625)"/>
       <path id="DejaVuSans-Bold-6d" d="M 3781 2919 
Q 3994 3244 4286 3414 
Q 4578 3584 4928 3584 
Q 5531 3584 5847 3212 
Q 6163 2841 6163 2131 
L 6163 0 
L 5038 0 
L 5038 1825 
Q 5041 1866 5042 1909 
Q 5044 1953 5044 2034 
Q 5044 2406 4934 2573 
Q 4825 2741 4581 2741 
Q 4263 2741 4089 2478 
Q 3916 2216 3909 1719 
L 3909 0 
L 2784 0 
L 2784 1825 
Q 2784 2406 2684 2573 
Q 2584 2741 2328 2741 
Q 2006 2741 1831 2477 
Q 1656 2213 1656 1722 
L 1656 0 
L 531 0 
L 531 3500 
L 1656 3500 
L 1656 2988 
Q 1863 3284 2130 3434 
Q 2397 3584 2719 3584 
Q 3081 3584 3359 3409 
Q 3638 3234 3781 2919 
z
" transform="scale(0.015625)"/>
       <path id="DejaVuSans-Bold-6e" d="M 4056 2131 
L 4056 0 
L 2931 0 
L 2931 347 
L 2931 1631 
Q 2931 2084 2911 2256 
Q 2891 2428 2841 2509 
Q 2775 2619 2662 2680 
Q 2550 2741 2406 2741 
Q 2056 2741 1856 2470 
Q 1656 2200 1656 1722 
L 1656 0 
L 538 0 
L 538 3500 
L 1656 3500 
L 1656 2988 
Q 1909 3294 2193 3439 
Q 2478 3584 2822 3584 
Q 3428 3584 3742 3212 
Q 4056 2841 4056 2131 
z
" transform="scale(0.015625)"/>
       <path id="DejaVuSans-Bold-48" d="M 588 4666 
L 1791 4666 
L 1791 2888 
L 3566 2888 
L 3566 4666 
L 4769 4666 
L 4769 0 
L 3566 0 
L 3566 1978 
L 1791 1978 
L 1791 0 
L 588 0 
L 588 4666 
z
" transform="scale(0.015625)"/>
       <path id="DejaVuSans-Bold-69" d="M 538 3500 
L 1656 3500 
L 1656 0 
L 538 0 
L 538 3500 
z
M 538 4863 
L 1656 4863 
L 1656 3950 
L 538 3950 
L 538 4863 
z
" transform="scale(0.015625)"/>
       <path id="DejaVuSans-Bold-73" d="M 3272 3391 
L 3272 2541 
Q 2913 2691 2578 2766 
Q 2244 2841 1947 2841 
Q 1628 2841 1473 2761 
Q 1319 2681 1319 2516 
Q 1319 2381 1436 2309 
Q 1553 2238 1856 2203 
L 2053 2175 
Q 2913 2066 3209 1816 
Q 3506 1566 3506 1031 
Q 3506 472 3093 190 
Q 2681 -91 1863 -91 
Q 1516 -91 1145 -36 
Q 775 19 384 128 
L 384 978 
Q 719 816 1070 734 
Q 1422 653 1784 653 
Q 2113 653 2278 743 
Q 2444 834 2444 1013 
Q 2444 1163 2330 1236 
Q 2216 1309 1875 1350 
L 1678 1375 
Q 931 1469 631 1722 
Q 331 1975 331 2491 
Q 331 3047 712 3315 
Q 1094 3584 1881 3584 
Q 2191 3584 2531 3537 
Q 2872 3491 3272 3391 
z
" transform="scale(0.015625)"/>
       <path id="DejaVuSans-Bold-28" d="M 2413 -844 
L 1484 -844 
Q 1006 -72 778 623 
Q 550 1319 550 2003 
Q 550 2688 779 3389 
Q 1009 4091 1484 4856 
L 2413 4856 
Q 2013 4116 1813 3408 
Q 1613 2700 1613 2009 
Q 1613 1319 1811 609 
Q 2009 -100 2413 -844 
z
" transform="scale(0.015625)"/>
       <path id="DejaVuSans-Bold-29" d="M 513 -844 
Q 913 -100 1113 609 
Q 1313 1319 1313 2009 
Q 1313 2700 1113 3408 
Q 913 4116 513 4856 
L 1441 4856 
Q 1916 4091 2145 3389 
Q 2375 2688 2375 2003 
Q 2375 1319 2147 623 
Q 1919 -72 1441 -844 
L 513 -844 
z
" transform="scale(0.015625)"/>
      </defs>
      <use xlink:href="#DejaVuSans-Bold-53"/>
      <use xlink:href="#DejaVuSans-Bold-68" transform="translate(72.021484 0)"/>
      <use xlink:href="#DejaVuSans-Bold-61" transform="translate(143.212891 0)"/>
      <use xlink:href="#DejaVuSans-Bold-72" transform="translate(210.693359 0)"/>
      <use xlink:href="#DejaVuSans-Bold-65" transform="translate(260.009766 0)"/>
      <use xlink:href="#DejaVuSans-Bold-20" transform="translate(327.832031 0)"/>
      <use xlink:href="#DejaVuSans-Bold-6f" transform="translate(362.646484 0)"/>
      <use xlink:href="#DejaVuSans-Bold-66" transform="translate(431.347656 0)"/>
      <use xlink:href="#DejaVuSans-Bold-20" transform="translate(474.853516 0)"/>
      <use xlink:href="#DejaVuSans-Bold-52" transform="translate(509.667969 0)"/>
      <use xlink:href="#DejaVuSans-Bold-65" transform="translate(586.669922 0)"/>
      <use xlink:href="#DejaVuSans-Bold-70" transform="translate(654.492188 0)"/>
      <use xlink:href="#DejaVuSans-Bold-6c" transform="translate(726.074219 0)"/>
      <use xlink:href="#DejaVuSans-Bold-61" transform="translate(760.351562 0)"/>
      <use xlink:href="#DejaVuSans-Bold-63" transform="translate(827.832031 0)"/>
      <use xlink:href="#DejaVuSans-Bold-65" transform="translate(887.109375 0)"/>
      <use xlink:href="#DejaVuSans-Bold-6d" transform="translate(954.931641 0)"/>
      <use xlink:href="#DejaVuSans-Bold-65" transform="translate(1059.130859 0)"/>
      <use xlink:href="#DejaVuSans-Bold-6e" transform="translate(1126.953125 0)"/>
      <use xlink:href="#DejaVuSans-Bold-74" transform="translate(1198.144531 0)"/>
      <use xlink:href="#DejaVuSans-Bold-20" transform="translate(1245.947266 0)"/>
      <use xlink:href="#DejaVuSans-Bold-48" transform="translate(1280.761719 0)"/>
      <use xlink:href="#DejaVuSans-Bold-69" transform="translate(1364.453125 0)"/>
      <use xlink:href="#DejaVuSans-Bold-72" transform="translate(1398.730469 0)"/>
      <use xlink:href="#DejaVuSans-Bold-65" transform="translate(1448.046875 0)"/>
      <use xlink:href="#DejaVuSans-Bold-73" transform="translate(1515.869141 0)"/>
      <use xlink:href="#DejaVuSans-Bold-20" transform="translate(1575.390625 0)"/>
      <use xlink:href="#DejaVuSans-Bold-28" transform="translate(1610.205078 0)"/>
      <use xlink:href="#DejaVuSans-Bold-69" transform="translate(1655.908203 0)"/>
      <use xlink:href="#DejaVuSans-Bold-6e" transform="translate(1690.185547 0)"/>
      <use xlink:href="#DejaVuSans-Bold-20" transform="translate(1761.376953 0)"/>
      <use xlink:href="#DejaVuSans-Bold-6d" transform="translate(1796.191406 0)"/>
      <use xlink:href="#DejaVuSans-Bold-69" transform="translate(1900.390625 0)"/>
      <use xlink:href="#DejaVuSans-Bold-6c" transform="translate(1934.667969 0)"/>
      <use xlink:href="#DejaVuSans-Bold-6c" transform="translate(1968.945312 0)"/>
      <use xlink:href="#DejaVuSans-Bold-69" transform="translate(2003.222656 0)"/>
      <use xlink:href="#DejaVuSans-Bold-6f" transform="translate(2037.5 0)"/>
      <use xlink:href="#DejaVuSans-Bold-6e" transform="translate(2106.201172 0)"/>
      <use xlink:href="#DejaVuSans-Bold-73" transform="translate(2177.392578 0)"/>
      <use xlink:href="#DejaVuSans-Bold-29" transform="translate(2236.914062 0)"/>
     </g>
    </g>
   </g>
   <g id="line2d_14">
    <path d="M 83.505284 245.519793 
L 89.735246 230.077991 
L 95.965209 226.879115 
L 102.059737 206.134874 
L 108.221982 191.858416 
L 114.451944 187.127271 
L 120.681906 197.427783 
L 126.776435 179.158257 
L 132.93868 164.914058 
L 139.168642 166.972256 
L 145.398604 179.762581 
L 151.560849 164.360063 
L 157.723095 166.767673 
L 163.953057 163.084407 
L 170.183019 154.140359 
L 176.277547 139.037287 
L 182.439793 144.191831 
L 188.669755 137.627591 
L 194.899717 105.128149 
L 200.994245 121.219162 
L 207.15649 118.944738 
L 213.386453 113.356235 
L 219.616415 121.786177 
L 225.710943 103.442863 
L 231.873188 96.887601 
L 238.103151 87.910239 
L 244.333113 78.455984 
L 250.495358 68.500173 
L 256.657603 75.591433 
L 262.887565 89.276752 
L 269.117528 121.051656 
L 275.212056 132.564775 
L 281.374301 148.447508 
L 287.604263 181.294506 
L 293.834226 179.787834 
L 299.928754 179.762606 
L 306.090999 191.083963 
L 312.320961 199.511392 
L 318.550923 200.552559 
L 324.645452 218.087363 
L 330.807697 216.7996 
L 337.037659 202.305285 
L 343.267621 192.20221 
L 349.429866 186.034576 
L 355.592112 185.137314 
L 361.822074 168.965373 
L 368.052036 167.624422 
L 374.146564 155.662628 
L 380.30881 141.187453 
L 386.538772 142.042824 
L 392.768734 137.218333 
L 398.863262 130.311957 
L 405.025507 133.613597 
L 411.25547 141.728521 
L 417.485432 144.077586 
L 423.57996 136.428284 
L 429.742205 144.23865 
L 435.972168 160.942837 
L 442.20213 163.979341 
L 448.364375 191.597125 
L 454.52662 213.556657 
L 460.756582 249.079154 
L 466.986545 290.146243 
L 473.081073 334.583208 
L 479.243318 347.892907 
L 485.47328 314.147681 
L 491.703243 308.482918 
L 497.797771 303.382661 
L 503.960016 304.31502 
L 510.189978 279.530619 
L 516.41994 276.237954 
L 522.514469 277.417919 
L 528.676714 268.784181 
L 534.906676 263.504532 
L 541.136638 244.749154 
L 547.298884 251.229716 
L 553.461129 250.927808 
L 559.691091 251.494837 
L 565.921053 227.508147 
L 572.015581 228.146811 
L 578.177827 225.031768 
L 584.407789 217.955193 
L 590.637751 203.516879 
L 596.732279 193.508529 
L 602.894524 192.234319 
L 609.124487 177.734181 
L 615.354449 174.511325 
L 621.448977 165.024621 
L 627.611222 165.133416 
L 633.841185 146.586046 
L 640.071147 161.407404 
L 646.233392 152.209678 
L 652.395637 138.407885 
L 658.625599 148.2276 
L 664.855562 140.559389 
L 670.95009 134.059867 
L 677.112335 138.835414 
L 683.342297 127.084941 
L 689.57226 120.858377 
L 695.666788 115.177753 
L 701.829033 117.786274 
L 708.058995 120.153064 
L 714.288957 114.637583 
L 720.383486 112.883082 
L 726.545731 123.800299 
L 732.775693 119.702303 
L 739.005655 143.669047 
L 745.167901 340.329295 
L 751.330146 238.085422 
L 757.560108 158.973791 
L 763.79007 165.394964 
L 769.884598 109.990368 
L 776.046844 80.551532 
L 782.276806 40.716329 
L 788.506768 64.563391 
L 794.601296 63.479456 
L 800.763541 57.943953 
L 806.993504 83.162064 
L 813.223466 92.122557 
" clip-path="url(#pfac99961f2)" style="fill: none; stroke: #003f5c; stroke-width: 2; stroke-linecap: square"/>
   </g>
   <g id="patch_6">
    <path d="M 47.019375 363.251736 
L 47.019375 25.3575 
" style="fill: none; stroke: #000000; stroke-width: 0.8; stroke-linejoin: miter; stroke-linecap: square"/>
   </g>
   <g id="patch_7">
    <path d="M 849.709375 363.251736 
L 849.709375 25.3575 
" style="fill: none; stroke: #000000; stroke-width: 0.8; stroke-linejoin: miter; stroke-linecap: square"/>
   </g>
   <g id="patch_8">
    <path d="M 47.019375 363.251736 
L 849.709375 363.251736 
" style="fill: none; stroke: #000000; stroke-width: 0.8; stroke-linejoin: miter; stroke-linecap: square"/>
   </g>
   <g id="patch_9">
    <path d="M 47.019375 25.3575 
L 849.709375 25.3575 
" style="fill: none; stroke: #000000; stroke-width: 0.8; stroke-linejoin: miter; stroke-linecap: square"/>
   </g>
   <g id="text_16">
    <!-- Replacement Hires as Share of Total Hires -->
    <g transform="translate(258.389375 19.3575) scale(0.16 -0.16)">
     <defs>
      <path id="DejaVuSans-Bold-54" d="M 31 4666 
L 4331 4666 
L 4331 3756 
L 2784 3756 
L 2784 0 
L 1581 0 
L 1581 3756 
L 31 3756 
L 31 4666 
z
" transform="scale(0.015625)"/>
     </defs>
     <use xlink:href="#DejaVuSans-Bold-52"/>
     <use xlink:href="#DejaVuSans-Bold-65" transform="translate(77.001953 0)"/>
     <use xlink:href="#DejaVuSans-Bold-70" transform="translate(144.824219 0)"/>
     <use xlink:href="#DejaVuSans-Bold-6c" transform="translate(216.40625 0)"/>
     <use xlink:href="#DejaVuSans-Bold-61" transform="translate(250.683594 0)"/>
     <use xlink:href="#DejaVuSans-Bold-63" transform="translate(318.164062 0)"/>
     <use xlink:href="#DejaVuSans-Bold-65" transform="translate(377.441406 0)"/>
     <use xlink:href="#DejaVuSans-Bold-6d" transform="translate(445.263672 0)"/>
     <use xlink:href="#DejaVuSans-Bold-65" transform="translate(549.462891 0)"/>
     <use xlink:href="#DejaVuSans-Bold-6e" transform="translate(617.285156 0)"/>
     <use xlink:href="#DejaVuSans-Bold-74" transform="translate(688.476562 0)"/>
     <use xlink:href="#DejaVuSans-Bold-20" transform="translate(736.279297 0)"/>
     <use xlink:href="#DejaVuSans-Bold-48" transform="translate(771.09375 0)"/>
     <use xlink:href="#DejaVuSans-Bold-69" transform="translate(854.785156 0)"/>
     <use xlink:href="#DejaVuSans-Bold-72" transform="translate(889.0625 0)"/>
     <use xlink:href="#DejaVuSans-Bold-65" transform="translate(938.378906 0)"/>
     <use xlink:href="#DejaVuSans-Bold-73" transform="translate(1006.201172 0)"/>
     <use xlink:href="#DejaVuSans-Bold-20" transform="translate(1065.722656 0)"/>
     <use xlink:href="#DejaVuSans-Bold-61" transform="translate(1100.537109 0)"/>
     <use xlink:href="#DejaVuSans-Bold-73" transform="translate(1168.017578 0)"/>
     <use xlink:href="#DejaVuSans-Bold-20" transform="translate(1227.539062 0)"/>
     <use xlink:href="#DejaVuSans-Bold-53" transform="translate(1262.353516 0)"/>
     <use xlink:href="#DejaVuSans-Bold-68" transform="translate(1334.375 0)"/>
     <use xlink:href="#DejaVuSans-Bold-61" transform="translate(1405.566406 0)"/>
     <use xlink:href="#DejaVuSans-Bold-72" transform="translate(1473.046875 0)"/>
     <use xlink:href="#DejaVuSans-Bold-65" transform="translate(1522.363281 0)"/>
     <use xlink:href="#DejaVuSans-Bold-20" transform="translate(1590.185547 0)"/>
     <use xlink:href="#DejaVuSans-Bold-6f" transform="translate(1625 0)"/>
     <use xlink:href="#DejaVuSans-Bold-66" transform="translate(1693.701172 0)"/>
     <use xlink:href="#DejaVuSans-Bold-20" transform="translate(1737.207031 0)"/>
     <use xlink:href="#DejaVuSans-Bold-54" transform="translate(1772.021484 0)"/>
     <use xlink:href="#DejaVuSans-Bold-6f" transform="translate(1826.984375 0)"/>
     <use xlink:href="#DejaVuSans-Bold-74" transform="translate(1895.685547 0)"/>
     <use xlink:href="#DejaVuSans-Bold-61" transform="translate(1943.488281 0)"/>
     <use xlink:href="#DejaVuSans-Bold-6c" transform="translate(2010.96875 0)"/>
     <use xlink:href="#DejaVuSans-Bold-20" transform="translate(2045.246094 0)"/>
     <use xlink:href="#DejaVuSans-Bold-48" transform="translate(2080.060547 0)"/>
     <use xlink:href="#DejaVuSans-Bold-69" transform="translate(2163.751953 0)"/>
     <use xlink:href="#DejaVuSans-Bold-72" transform="translate(2198.029297 0)"/>
     <use xlink:href="#DejaVuSans-Bold-65" transform="translate(2247.345703 0)"/>
     <use xlink:href="#DejaVuSans-Bold-73" transform="translate(2315.167969 0)"/>
    </g>
   </g>
  </g>
 </g>
 <defs>
  <clipPath id="pfac99961f2">
   <rect x="47.019375" y="25.3575" width="802.69" height="337.894236"/>
  </clipPath>
 </defs>
</svg>
