<?xml version="1.0" encoding="utf-8" standalone="no"?>
<!DOCTYPE svg PUBLIC "-//W3C//DTD SVG 1.1//EN"
  "http://www.w3.org/Graphics/SVG/1.1/DTD/svg11.dtd">
<svg xmlns:xlink="http://www.w3.org/1999/xlink" width="712.770313pt" height="700.678125pt" viewBox="0 0 712.770313 700.678125" xmlns="http://www.w3.org/2000/svg" version="1.1">
 <metadata>
  <rdf:RDF xmlns:dc="http://purl.org/dc/elements/1.1/" xmlns:cc="http://creativecommons.org/ns#" xmlns:rdf="http://www.w3.org/1999/02/22-rdf-syntax-ns#">
   <cc:Work>
    <dc:type rdf:resource="http://purl.org/dc/dcmitype/StillImage"/>
    <dc:date>2025-02-24T17:18:25.758295</dc:date>
    <dc:format>image/svg+xml</dc:format>
    <dc:creator>
     <cc:Agent>
      <dc:title>Matplotlib v3.10.0, https://matplotlib.org/</dc:title>
     </cc:Agent>
    </dc:creator>
   </cc:Work>
  </rdf:RDF>
 </metadata>
 <defs>
  <style type="text/css">*{stroke-linejoin: round; stroke-linecap: butt}</style>
 </defs>
 <g id="figure_1">
  <g id="patch_1">
   <path d="M 0 700.678125 
L 712.770313 700.678125 
L 712.770313 0 
L 0 0 
z
" style="fill: #ffffff"/>
  </g>
  <g id="axes_1">
   <g id="patch_2">
    <path d="M 57.570312 155.42069 
L 705.570312 155.42069 
L 705.570312 46.8 
L 57.570312 46.8 
z
" style="fill: #ffffff"/>
   </g>
   <g id="matplotlib.axis_1">
    <g id="xtick_1">
     <g id="line2d_1">
      <defs>
       <path id="m6af2c21876" d="M 0 0 
L 0 3.5 
" style="stroke: #000000; stroke-width: 0.8"/>
      </defs>
      <g>
       <use xlink:href="#m6af2c21876" x="87.024858" y="155.42069" style="stroke: #000000; stroke-width: 0.8"/>
      </g>
     </g>
    </g>
    <g id="xtick_2">
     <g id="line2d_2">
      <g>
       <use xlink:href="#m6af2c21876" x="204.84304" y="155.42069" style="stroke: #000000; stroke-width: 0.8"/>
      </g>
     </g>
    </g>
    <g id="xtick_3">
     <g id="line2d_3">
      <g>
       <use xlink:href="#m6af2c21876" x="322.661222" y="155.42069" style="stroke: #000000; stroke-width: 0.8"/>
      </g>
     </g>
    </g>
    <g id="xtick_4">
     <g id="line2d_4">
      <g>
       <use xlink:href="#m6af2c21876" x="440.479403" y="155.42069" style="stroke: #000000; stroke-width: 0.8"/>
      </g>
     </g>
    </g>
    <g id="xtick_5">
     <g id="line2d_5">
      <g>
       <use xlink:href="#m6af2c21876" x="558.297585" y="155.42069" style="stroke: #000000; stroke-width: 0.8"/>
      </g>
     </g>
    </g>
    <g id="xtick_6">
     <g id="line2d_6">
      <g>
       <use xlink:href="#m6af2c21876" x="676.115767" y="155.42069" style="stroke: #000000; stroke-width: 0.8"/>
      </g>
     </g>
    </g>
   </g>
   <g id="matplotlib.axis_2">
    <g id="ytick_1">
     <g id="line2d_7">
      <defs>
       <path id="m4b7096306b" d="M 0 0 
L -3.5 0 
" style="stroke: #000000; stroke-width: 0.8"/>
      </defs>
      <g>
       <use xlink:href="#m4b7096306b" x="57.570312" y="155.378034" style="stroke: #000000; stroke-width: 0.8"/>
      </g>
     </g>
     <g id="text_1">
      <!-- −0.02 -->
      <g transform="translate(19.925 159.177253) scale(0.1 -0.1)">
       <defs>
        <path id="DejaVuSans-2212" d="M 678 2272 
L 4684 2272 
L 4684 1741 
L 678 1741 
L 678 2272 
z
" transform="scale(0.015625)"/>
        <path id="DejaVuSans-30" d="M 2034 4250 
Q 1547 4250 1301 3770 
Q 1056 3291 1056 2328 
Q 1056 1369 1301 889 
Q 1547 409 2034 409 
Q 2525 409 2770 889 
Q 3016 1369 3016 2328 
Q 3016 3291 2770 3770 
Q 2525 4250 2034 4250 
z
M 2034 4750 
Q 2819 4750 3233 4129 
Q 3647 3509 3647 2328 
Q 3647 1150 3233 529 
Q 2819 -91 2034 -91 
Q 1250 -91 836 529 
Q 422 1150 422 2328 
Q 422 3509 836 4129 
Q 1250 4750 2034 4750 
z
" transform="scale(0.015625)"/>
        <path id="DejaVuSans-2e" d="M 684 794 
L 1344 794 
L 1344 0 
L 684 0 
L 684 794 
z
" transform="scale(0.015625)"/>
        <path id="DejaVuSans-32" d="M 1228 531 
L 3431 531 
L 3431 0 
L 469 0 
L 469 531 
Q 828 903 1448 1529 
Q 2069 2156 2228 2338 
Q 2531 2678 2651 2914 
Q 2772 3150 2772 3378 
Q 2772 3750 2511 3984 
Q 2250 4219 1831 4219 
Q 1534 4219 1204 4116 
Q 875 4013 500 3803 
L 500 4441 
Q 881 4594 1212 4672 
Q 1544 4750 1819 4750 
Q 2544 4750 2975 4387 
Q 3406 4025 3406 3419 
Q 3406 3131 3298 2873 
Q 3191 2616 2906 2266 
Q 2828 2175 2409 1742 
Q 1991 1309 1228 531 
z
" transform="scale(0.015625)"/>
       </defs>
       <use xlink:href="#DejaVuSans-2212"/>
       <use xlink:href="#DejaVuSans-30" transform="translate(83.789062 0)"/>
       <use xlink:href="#DejaVuSans-2e" transform="translate(147.412109 0)"/>
       <use xlink:href="#DejaVuSans-30" transform="translate(179.199219 0)"/>
       <use xlink:href="#DejaVuSans-32" transform="translate(242.822266 0)"/>
      </g>
     </g>
    </g>
    <g id="ytick_2">
     <g id="line2d_8">
      <g>
       <use xlink:href="#m4b7096306b" x="57.570312" y="129.140273" style="stroke: #000000; stroke-width: 0.8"/>
      </g>
     </g>
     <g id="text_2">
      <!-- 0.00 -->
      <g transform="translate(28.304688 132.939491) scale(0.1 -0.1)">
       <use xlink:href="#DejaVuSans-30"/>
       <use xlink:href="#DejaVuSans-2e" transform="translate(63.623047 0)"/>
       <use xlink:href="#DejaVuSans-30" transform="translate(95.410156 0)"/>
       <use xlink:href="#DejaVuSans-30" transform="translate(159.033203 0)"/>
      </g>
     </g>
    </g>
    <g id="ytick_3">
     <g id="line2d_9">
      <g>
       <use xlink:href="#m4b7096306b" x="57.570312" y="102.902511" style="stroke: #000000; stroke-width: 0.8"/>
      </g>
     </g>
     <g id="text_3">
      <!-- 0.02 -->
      <g transform="translate(28.304688 106.70173) scale(0.1 -0.1)">
       <use xlink:href="#DejaVuSans-30"/>
       <use xlink:href="#DejaVuSans-2e" transform="translate(63.623047 0)"/>
       <use xlink:href="#DejaVuSans-30" transform="translate(95.410156 0)"/>
       <use xlink:href="#DejaVuSans-32" transform="translate(159.033203 0)"/>
      </g>
     </g>
    </g>
    <g id="ytick_4">
     <g id="line2d_10">
      <g>
       <use xlink:href="#m4b7096306b" x="57.570312" y="76.664749" style="stroke: #000000; stroke-width: 0.8"/>
      </g>
     </g>
     <g id="text_4">
      <!-- 0.04 -->
      <g transform="translate(28.304688 80.463968) scale(0.1 -0.1)">
       <defs>
        <path id="DejaVuSans-34" d="M 2419 4116 
L 825 1625 
L 2419 1625 
L 2419 4116 
z
M 2253 4666 
L 3047 4666 
L 3047 1625 
L 3713 1625 
L 3713 1100 
L 3047 1100 
L 3047 0 
L 2419 0 
L 2419 1100 
L 313 1100 
L 313 1709 
L 2253 4666 
z
" transform="scale(0.015625)"/>
       </defs>
       <use xlink:href="#DejaVuSans-30"/>
       <use xlink:href="#DejaVuSans-2e" transform="translate(63.623047 0)"/>
       <use xlink:href="#DejaVuSans-30" transform="translate(95.410156 0)"/>
       <use xlink:href="#DejaVuSans-34" transform="translate(159.033203 0)"/>
      </g>
     </g>
    </g>
    <g id="ytick_5">
     <g id="line2d_11">
      <g>
       <use xlink:href="#m4b7096306b" x="57.570312" y="50.426988" style="stroke: #000000; stroke-width: 0.8"/>
      </g>
     </g>
     <g id="text_5">
      <!-- 0.06 -->
      <g transform="translate(28.304688 54.226206) scale(0.1 -0.1)">
       <defs>
        <path id="DejaVuSans-36" d="M 2113 2584 
Q 1688 2584 1439 2293 
Q 1191 2003 1191 1497 
Q 1191 994 1439 701 
Q 1688 409 2113 409 
Q 2538 409 2786 701 
Q 3034 994 3034 1497 
Q 3034 2003 2786 2293 
Q 2538 2584 2113 2584 
z
M 3366 4563 
L 3366 3988 
Q 3128 4100 2886 4159 
Q 2644 4219 2406 4219 
Q 1781 4219 1451 3797 
Q 1122 3375 1075 2522 
Q 1259 2794 1537 2939 
Q 1816 3084 2150 3084 
Q 2853 3084 3261 2657 
Q 3669 2231 3669 1497 
Q 3669 778 3244 343 
Q 2819 -91 2113 -91 
Q 1303 -91 875 529 
Q 447 1150 447 2328 
Q 447 3434 972 4092 
Q 1497 4750 2381 4750 
Q 2619 4750 2861 4703 
Q 3103 4656 3366 4563 
z
" transform="scale(0.015625)"/>
       </defs>
       <use xlink:href="#DejaVuSans-30"/>
       <use xlink:href="#DejaVuSans-2e" transform="translate(63.623047 0)"/>
       <use xlink:href="#DejaVuSans-30" transform="translate(95.410156 0)"/>
       <use xlink:href="#DejaVuSans-36" transform="translate(159.033203 0)"/>
      </g>
     </g>
    </g>
   </g>
   <g id="line2d_12">
    <path d="M 87.024858 88.554525 
L 145.933949 64.479248 
L 204.84304 79.525992 
L 263.752131 101.112565 
L 322.661222 115.344311 
L 381.570312 121.526326 
L 440.479403 123.600173 
L 499.388494 125.147909 
L 558.297585 127.553199 
L 617.206676 130.335089 
L 676.115767 132.584243 
" clip-path="url(#p3219ab5804)" style="fill: none; stroke: #0000ff; stroke-width: 1.5; stroke-linecap: square"/>
   </g>
   <g id="line2d_13">
    <path d="M 87.024858 94.043762 
L 145.933949 77.221192 
L 204.84304 97.800052 
L 263.752131 121.371801 
L 322.661222 134.98921 
L 381.570312 139.678547 
L 440.479403 140.879394 
L 499.388494 141.888482 
L 558.297585 144.189772 
L 617.206676 147.41622 
L 676.115767 150.483386 
" clip-path="url(#p3219ab5804)" style="fill: none; stroke-dasharray: 5.55,2.4; stroke-dashoffset: 0; stroke: #000000; stroke-width: 1.5"/>
   </g>
   <g id="line2d_14">
    <path d="M 87.024858 83.065288 
L 145.933949 51.737304 
L 204.84304 61.251933 
L 263.752131 80.853328 
L 322.661222 95.699413 
L 381.570312 103.374105 
L 440.479403 106.320951 
L 499.388494 108.407336 
L 558.297585 110.916625 
L 617.206676 113.253959 
L 676.115767 114.6851 
" clip-path="url(#p3219ab5804)" style="fill: none; stroke-dasharray: 5.55,2.4; stroke-dashoffset: 0; stroke: #000000; stroke-width: 1.5"/>
   </g>
   <g id="line2d_15">
    <path d="M 57.570312 129.140273 
L 705.570312 129.140273 
" clip-path="url(#p3219ab5804)" style="fill: none; stroke: #000000; stroke-width: 1.5; stroke-linecap: square"/>
   </g>
   <g id="patch_3">
    <path d="M 57.570312 155.42069 
L 57.570312 46.8 
" style="fill: none; stroke: #000000; stroke-width: 0.8; stroke-linejoin: miter; stroke-linecap: square"/>
   </g>
   <g id="patch_4">
    <path d="M 705.570312 155.42069 
L 705.570312 46.8 
" style="fill: none; stroke: #000000; stroke-width: 0.8; stroke-linejoin: miter; stroke-linecap: square"/>
   </g>
   <g id="patch_5">
    <path d="M 57.570312 155.42069 
L 705.570313 155.42069 
" style="fill: none; stroke: #000000; stroke-width: 0.8; stroke-linejoin: miter; stroke-linecap: square"/>
   </g>
   <g id="patch_6">
    <path d="M 57.570312 46.8 
L 705.570313 46.8 
" style="fill: none; stroke: #000000; stroke-width: 0.8; stroke-linejoin: miter; stroke-linecap: square"/>
   </g>
   <g id="text_6">
    <!-- Uncertainty$\rightarrow$Uncertainty -->
    <g transform="translate(304.050313 40.8) scale(0.12 -0.12)">
     <defs>
      <path id="DejaVuSans-55" d="M 556 4666 
L 1191 4666 
L 1191 1831 
Q 1191 1081 1462 751 
Q 1734 422 2344 422 
Q 2950 422 3222 751 
Q 3494 1081 3494 1831 
L 3494 4666 
L 4128 4666 
L 4128 1753 
Q 4128 841 3676 375 
Q 3225 -91 2344 -91 
Q 1459 -91 1007 375 
Q 556 841 556 1753 
L 556 4666 
z
" transform="scale(0.015625)"/>
      <path id="DejaVuSans-6e" d="M 3513 2113 
L 3513 0 
L 2938 0 
L 2938 2094 
Q 2938 2591 2744 2837 
Q 2550 3084 2163 3084 
Q 1697 3084 1428 2787 
Q 1159 2491 1159 1978 
L 1159 0 
L 581 0 
L 581 3500 
L 1159 3500 
L 1159 2956 
Q 1366 3272 1645 3428 
Q 1925 3584 2291 3584 
Q 2894 3584 3203 3211 
Q 3513 2838 3513 2113 
z
" transform="scale(0.015625)"/>
      <path id="DejaVuSans-63" d="M 3122 3366 
L 3122 2828 
Q 2878 2963 2633 3030 
Q 2388 3097 2138 3097 
Q 1578 3097 1268 2742 
Q 959 2388 959 1747 
Q 959 1106 1268 751 
Q 1578 397 2138 397 
Q 2388 397 2633 464 
Q 2878 531 3122 666 
L 3122 134 
Q 2881 22 2623 -34 
Q 2366 -91 2075 -91 
Q 1284 -91 818 406 
Q 353 903 353 1747 
Q 353 2603 823 3093 
Q 1294 3584 2113 3584 
Q 2378 3584 2631 3529 
Q 2884 3475 3122 3366 
z
" transform="scale(0.015625)"/>
      <path id="DejaVuSans-65" d="M 3597 1894 
L 3597 1613 
L 953 1613 
Q 991 1019 1311 708 
Q 1631 397 2203 397 
Q 2534 397 2845 478 
Q 3156 559 3463 722 
L 3463 178 
Q 3153 47 2828 -22 
Q 2503 -91 2169 -91 
Q 1331 -91 842 396 
Q 353 884 353 1716 
Q 353 2575 817 3079 
Q 1281 3584 2069 3584 
Q 2775 3584 3186 3129 
Q 3597 2675 3597 1894 
z
M 3022 2063 
Q 3016 2534 2758 2815 
Q 2500 3097 2075 3097 
Q 1594 3097 1305 2825 
Q 1016 2553 972 2059 
L 3022 2063 
z
" transform="scale(0.015625)"/>
      <path id="DejaVuSans-72" d="M 2631 2963 
Q 2534 3019 2420 3045 
Q 2306 3072 2169 3072 
Q 1681 3072 1420 2755 
Q 1159 2438 1159 1844 
L 1159 0 
L 581 0 
L 581 3500 
L 1159 3500 
L 1159 2956 
Q 1341 3275 1631 3429 
Q 1922 3584 2338 3584 
Q 2397 3584 2469 3576 
Q 2541 3569 2628 3553 
L 2631 2963 
z
" transform="scale(0.015625)"/>
      <path id="DejaVuSans-74" d="M 1172 4494 
L 1172 3500 
L 2356 3500 
L 2356 3053 
L 1172 3053 
L 1172 1153 
Q 1172 725 1289 603 
Q 1406 481 1766 481 
L 2356 481 
L 2356 0 
L 1766 0 
Q 1100 0 847 248 
Q 594 497 594 1153 
L 594 3053 
L 172 3053 
L 172 3500 
L 594 3500 
L 594 4494 
L 1172 4494 
z
" transform="scale(0.015625)"/>
      <path id="DejaVuSans-61" d="M 2194 1759 
Q 1497 1759 1228 1600 
Q 959 1441 959 1056 
Q 959 750 1161 570 
Q 1363 391 1709 391 
Q 2188 391 2477 730 
Q 2766 1069 2766 1631 
L 2766 1759 
L 2194 1759 
z
M 3341 1997 
L 3341 0 
L 2766 0 
L 2766 531 
Q 2569 213 2275 61 
Q 1981 -91 1556 -91 
Q 1019 -91 701 211 
Q 384 513 384 1019 
Q 384 1609 779 1909 
Q 1175 2209 1959 2209 
L 2766 2209 
L 2766 2266 
Q 2766 2663 2505 2880 
Q 2244 3097 1772 3097 
Q 1472 3097 1187 3025 
Q 903 2953 641 2809 
L 641 3341 
Q 956 3463 1253 3523 
Q 1550 3584 1831 3584 
Q 2591 3584 2966 3190 
Q 3341 2797 3341 1997 
z
" transform="scale(0.015625)"/>
      <path id="DejaVuSans-69" d="M 603 3500 
L 1178 3500 
L 1178 0 
L 603 0 
L 603 3500 
z
M 603 4863 
L 1178 4863 
L 1178 4134 
L 603 4134 
L 603 4863 
z
" transform="scale(0.015625)"/>
      <path id="DejaVuSans-79" d="M 2059 -325 
Q 1816 -950 1584 -1140 
Q 1353 -1331 966 -1331 
L 506 -1331 
L 506 -850 
L 844 -850 
Q 1081 -850 1212 -737 
Q 1344 -625 1503 -206 
L 1606 56 
L 191 3500 
L 800 3500 
L 1894 763 
L 2988 3500 
L 3597 3500 
L 2059 -325 
z
" transform="scale(0.015625)"/>
      <path id="DejaVuSans-2192" d="M 5050 2147 
L 5050 1866 
L 3822 638 
L 3447 1013 
L 4175 1741 
L 366 1741 
L 366 2272 
L 4175 2272 
L 3447 3000 
L 3822 3375 
L 5050 2147 
z
" transform="scale(0.015625)"/>
     </defs>
     <use xlink:href="#DejaVuSans-55" transform="translate(0 0.015625)"/>
     <use xlink:href="#DejaVuSans-6e" transform="translate(73.193359 0.015625)"/>
     <use xlink:href="#DejaVuSans-63" transform="translate(136.572266 0.015625)"/>
     <use xlink:href="#DejaVuSans-65" transform="translate(191.552734 0.015625)"/>
     <use xlink:href="#DejaVuSans-72" transform="translate(253.076172 0.015625)"/>
     <use xlink:href="#DejaVuSans-74" transform="translate(294.189453 0.015625)"/>
     <use xlink:href="#DejaVuSans-61" transform="translate(333.398438 0.015625)"/>
     <use xlink:href="#DejaVuSans-69" transform="translate(394.677734 0.015625)"/>
     <use xlink:href="#DejaVuSans-6e" transform="translate(422.460938 0.015625)"/>
     <use xlink:href="#DejaVuSans-74" transform="translate(485.839844 0.015625)"/>
     <use xlink:href="#DejaVuSans-79" transform="translate(525.048828 0.015625)"/>
     <use xlink:href="#DejaVuSans-2192" transform="translate(603.710938 0.015625)"/>
     <use xlink:href="#DejaVuSans-55" transform="translate(706.982422 0.015625)"/>
     <use xlink:href="#DejaVuSans-6e" transform="translate(780.175781 0.015625)"/>
     <use xlink:href="#DejaVuSans-63" transform="translate(843.554688 0.015625)"/>
     <use xlink:href="#DejaVuSans-65" transform="translate(898.535156 0.015625)"/>
     <use xlink:href="#DejaVuSans-72" transform="translate(960.058594 0.015625)"/>
     <use xlink:href="#DejaVuSans-74" transform="translate(1001.171875 0.015625)"/>
     <use xlink:href="#DejaVuSans-61" transform="translate(1040.380859 0.015625)"/>
     <use xlink:href="#DejaVuSans-69" transform="translate(1101.660156 0.015625)"/>
     <use xlink:href="#DejaVuSans-6e" transform="translate(1129.443359 0.015625)"/>
     <use xlink:href="#DejaVuSans-74" transform="translate(1192.822266 0.015625)"/>
     <use xlink:href="#DejaVuSans-79" transform="translate(1232.03125 0.015625)"/>
    </g>
   </g>
  </g>
  <g id="axes_2">
   <g id="patch_7">
    <path d="M 57.570312 285.765517 
L 705.570312 285.765517 
L 705.570312 177.144828 
L 57.570312 177.144828 
z
" style="fill: #ffffff"/>
   </g>
   <g id="matplotlib.axis_3">
    <g id="xtick_7">
     <g id="line2d_16">
      <g>
       <use xlink:href="#m6af2c21876" x="87.024858" y="285.765517" style="stroke: #000000; stroke-width: 0.8"/>
      </g>
     </g>
    </g>
    <g id="xtick_8">
     <g id="line2d_17">
      <g>
       <use xlink:href="#m6af2c21876" x="204.84304" y="285.765517" style="stroke: #000000; stroke-width: 0.8"/>
      </g>
     </g>
    </g>
    <g id="xtick_9">
     <g id="line2d_18">
      <g>
       <use xlink:href="#m6af2c21876" x="322.661222" y="285.765517" style="stroke: #000000; stroke-width: 0.8"/>
      </g>
     </g>
    </g>
    <g id="xtick_10">
     <g id="line2d_19">
      <g>
       <use xlink:href="#m6af2c21876" x="440.479403" y="285.765517" style="stroke: #000000; stroke-width: 0.8"/>
      </g>
     </g>
    </g>
    <g id="xtick_11">
     <g id="line2d_20">
      <g>
       <use xlink:href="#m6af2c21876" x="558.297585" y="285.765517" style="stroke: #000000; stroke-width: 0.8"/>
      </g>
     </g>
    </g>
    <g id="xtick_12">
     <g id="line2d_21">
      <g>
       <use xlink:href="#m6af2c21876" x="676.115767" y="285.765517" style="stroke: #000000; stroke-width: 0.8"/>
      </g>
     </g>
    </g>
   </g>
   <g id="matplotlib.axis_4">
    <g id="ytick_6">
     <g id="line2d_22">
      <g>
       <use xlink:href="#m4b7096306b" x="57.570312" y="282.652401" style="stroke: #000000; stroke-width: 0.8"/>
      </g>
     </g>
     <g id="text_7">
      <!-- −1 -->
      <g transform="translate(35.828125 286.45162) scale(0.1 -0.1)">
       <defs>
        <path id="DejaVuSans-31" d="M 794 531 
L 1825 531 
L 1825 4091 
L 703 3866 
L 703 4441 
L 1819 4666 
L 2450 4666 
L 2450 531 
L 3481 531 
L 3481 0 
L 794 0 
L 794 531 
z
" transform="scale(0.015625)"/>
       </defs>
       <use xlink:href="#DejaVuSans-2212"/>
       <use xlink:href="#DejaVuSans-31" transform="translate(83.789062 0)"/>
      </g>
     </g>
    </g>
    <g id="ytick_7">
     <g id="line2d_23">
      <g>
       <use xlink:href="#m4b7096306b" x="57.570312" y="255.354239" style="stroke: #000000; stroke-width: 0.8"/>
      </g>
     </g>
     <g id="text_8">
      <!-- 0 -->
      <g transform="translate(44.207813 259.153457) scale(0.1 -0.1)">
       <use xlink:href="#DejaVuSans-30"/>
      </g>
     </g>
    </g>
    <g id="ytick_8">
     <g id="line2d_24">
      <g>
       <use xlink:href="#m4b7096306b" x="57.570312" y="228.056076" style="stroke: #000000; stroke-width: 0.8"/>
      </g>
     </g>
     <g id="text_9">
      <!-- 1 -->
      <g transform="translate(44.207813 231.855295) scale(0.1 -0.1)">
       <use xlink:href="#DejaVuSans-31"/>
      </g>
     </g>
    </g>
    <g id="ytick_9">
     <g id="line2d_25">
      <g>
       <use xlink:href="#m4b7096306b" x="57.570312" y="200.757913" style="stroke: #000000; stroke-width: 0.8"/>
      </g>
     </g>
     <g id="text_10">
      <!-- 2 -->
      <g transform="translate(44.207813 204.557132) scale(0.1 -0.1)">
       <use xlink:href="#DejaVuSans-32"/>
      </g>
     </g>
    </g>
   </g>
   <g id="line2d_26">
    <path d="M 87.024858 242.649735 
L 145.933949 204.784775 
L 204.84304 224.192497 
L 263.752131 223.347333 
L 322.661222 233.393837 
L 381.570312 245.024971 
L 440.479403 250.852912 
L 499.388494 252.964074 
L 558.297585 254.669577 
L 617.206676 256.871393 
L 676.115767 259.170514 
" clip-path="url(#p8b8067c16f)" style="fill: none; stroke: #0000ff; stroke-width: 1.5; stroke-linecap: square"/>
   </g>
   <g id="line2d_27">
    <path d="M 87.024858 262.350425 
L 145.933949 227.487419 
L 204.84304 247.498873 
L 263.752131 247.528369 
L 322.661222 256.467725 
L 381.570312 267.987463 
L 440.479403 272.831598 
L 499.388494 274.694966 
L 558.297585 276.44839 
L 617.206676 278.624295 
L 676.115767 280.828213 
" clip-path="url(#p8b8067c16f)" style="fill: none; stroke-dasharray: 5.55,2.4; stroke-dashoffset: 0; stroke: #000000; stroke-width: 1.5"/>
   </g>
   <g id="line2d_28">
    <path d="M 87.024858 222.949046 
L 145.933949 182.082132 
L 204.84304 200.886121 
L 263.752131 199.166297 
L 322.661222 210.319948 
L 381.570312 222.062479 
L 440.479403 228.874225 
L 499.388494 231.233182 
L 558.297585 232.890764 
L 617.206676 235.118491 
L 676.115767 237.512815 
" clip-path="url(#p8b8067c16f)" style="fill: none; stroke-dasharray: 5.55,2.4; stroke-dashoffset: 0; stroke: #000000; stroke-width: 1.5"/>
   </g>
   <g id="line2d_29">
    <path d="M 57.570312 255.354239 
L 705.570312 255.354239 
" clip-path="url(#p8b8067c16f)" style="fill: none; stroke: #000000; stroke-width: 1.5; stroke-linecap: square"/>
   </g>
   <g id="patch_8">
    <path d="M 57.570312 285.765517 
L 57.570312 177.144828 
" style="fill: none; stroke: #000000; stroke-width: 0.8; stroke-linejoin: miter; stroke-linecap: square"/>
   </g>
   <g id="patch_9">
    <path d="M 705.570312 285.765517 
L 705.570312 177.144828 
" style="fill: none; stroke: #000000; stroke-width: 0.8; stroke-linejoin: miter; stroke-linecap: square"/>
   </g>
   <g id="patch_10">
    <path d="M 57.570312 285.765517 
L 705.570313 285.765517 
" style="fill: none; stroke: #000000; stroke-width: 0.8; stroke-linejoin: miter; stroke-linecap: square"/>
   </g>
   <g id="patch_11">
    <path d="M 57.570312 177.144828 
L 705.570313 177.144828 
" style="fill: none; stroke: #000000; stroke-width: 0.8; stroke-linejoin: miter; stroke-linecap: square"/>
   </g>
   <g id="text_11">
    <!-- Uncertainty$\rightarrow$Unreplaced_Quits -->
    <g transform="translate(286.170313 171.144828) scale(0.12 -0.12)">
     <defs>
      <path id="DejaVuSans-70" d="M 1159 525 
L 1159 -1331 
L 581 -1331 
L 581 3500 
L 1159 3500 
L 1159 2969 
Q 1341 3281 1617 3432 
Q 1894 3584 2278 3584 
Q 2916 3584 3314 3078 
Q 3713 2572 3713 1747 
Q 3713 922 3314 415 
Q 2916 -91 2278 -91 
Q 1894 -91 1617 61 
Q 1341 213 1159 525 
z
M 3116 1747 
Q 3116 2381 2855 2742 
Q 2594 3103 2138 3103 
Q 1681 3103 1420 2742 
Q 1159 2381 1159 1747 
Q 1159 1113 1420 752 
Q 1681 391 2138 391 
Q 2594 391 2855 752 
Q 3116 1113 3116 1747 
z
" transform="scale(0.015625)"/>
      <path id="DejaVuSans-6c" d="M 603 4863 
L 1178 4863 
L 1178 0 
L 603 0 
L 603 4863 
z
" transform="scale(0.015625)"/>
      <path id="DejaVuSans-64" d="M 2906 2969 
L 2906 4863 
L 3481 4863 
L 3481 0 
L 2906 0 
L 2906 525 
Q 2725 213 2448 61 
Q 2172 -91 1784 -91 
Q 1150 -91 751 415 
Q 353 922 353 1747 
Q 353 2572 751 3078 
Q 1150 3584 1784 3584 
Q 2172 3584 2448 3432 
Q 2725 3281 2906 2969 
z
M 947 1747 
Q 947 1113 1208 752 
Q 1469 391 1925 391 
Q 2381 391 2643 752 
Q 2906 1113 2906 1747 
Q 2906 2381 2643 2742 
Q 2381 3103 1925 3103 
Q 1469 3103 1208 2742 
Q 947 2381 947 1747 
z
" transform="scale(0.015625)"/>
      <path id="DejaVuSans-5f" d="M 3263 -1063 
L 3263 -1509 
L -63 -1509 
L -63 -1063 
L 3263 -1063 
z
" transform="scale(0.015625)"/>
      <path id="DejaVuSans-51" d="M 2522 4238 
Q 1834 4238 1429 3725 
Q 1025 3213 1025 2328 
Q 1025 1447 1429 934 
Q 1834 422 2522 422 
Q 3209 422 3611 934 
Q 4013 1447 4013 2328 
Q 4013 3213 3611 3725 
Q 3209 4238 2522 4238 
z
M 3406 84 
L 4238 -825 
L 3475 -825 
L 2784 -78 
Q 2681 -84 2626 -87 
Q 2572 -91 2522 -91 
Q 1538 -91 948 567 
Q 359 1225 359 2328 
Q 359 3434 948 4092 
Q 1538 4750 2522 4750 
Q 3503 4750 4090 4092 
Q 4678 3434 4678 2328 
Q 4678 1516 4351 937 
Q 4025 359 3406 84 
z
" transform="scale(0.015625)"/>
      <path id="DejaVuSans-75" d="M 544 1381 
L 544 3500 
L 1119 3500 
L 1119 1403 
Q 1119 906 1312 657 
Q 1506 409 1894 409 
Q 2359 409 2629 706 
Q 2900 1003 2900 1516 
L 2900 3500 
L 3475 3500 
L 3475 0 
L 2900 0 
L 2900 538 
Q 2691 219 2414 64 
Q 2138 -91 1772 -91 
Q 1169 -91 856 284 
Q 544 659 544 1381 
z
M 1991 3584 
L 1991 3584 
z
" transform="scale(0.015625)"/>
      <path id="DejaVuSans-73" d="M 2834 3397 
L 2834 2853 
Q 2591 2978 2328 3040 
Q 2066 3103 1784 3103 
Q 1356 3103 1142 2972 
Q 928 2841 928 2578 
Q 928 2378 1081 2264 
Q 1234 2150 1697 2047 
L 1894 2003 
Q 2506 1872 2764 1633 
Q 3022 1394 3022 966 
Q 3022 478 2636 193 
Q 2250 -91 1575 -91 
Q 1294 -91 989 -36 
Q 684 19 347 128 
L 347 722 
Q 666 556 975 473 
Q 1284 391 1588 391 
Q 1994 391 2212 530 
Q 2431 669 2431 922 
Q 2431 1156 2273 1281 
Q 2116 1406 1581 1522 
L 1381 1569 
Q 847 1681 609 1914 
Q 372 2147 372 2553 
Q 372 3047 722 3315 
Q 1072 3584 1716 3584 
Q 2034 3584 2315 3537 
Q 2597 3491 2834 3397 
z
" transform="scale(0.015625)"/>
     </defs>
     <use xlink:href="#DejaVuSans-55" transform="translate(0 0.015625)"/>
     <use xlink:href="#DejaVuSans-6e" transform="translate(73.193359 0.015625)"/>
     <use xlink:href="#DejaVuSans-63" transform="translate(136.572266 0.015625)"/>
     <use xlink:href="#DejaVuSans-65" transform="translate(191.552734 0.015625)"/>
     <use xlink:href="#DejaVuSans-72" transform="translate(253.076172 0.015625)"/>
     <use xlink:href="#DejaVuSans-74" transform="translate(294.189453 0.015625)"/>
     <use xlink:href="#DejaVuSans-61" transform="translate(333.398438 0.015625)"/>
     <use xlink:href="#DejaVuSans-69" transform="translate(394.677734 0.015625)"/>
     <use xlink:href="#DejaVuSans-6e" transform="translate(422.460938 0.015625)"/>
     <use xlink:href="#DejaVuSans-74" transform="translate(485.839844 0.015625)"/>
     <use xlink:href="#DejaVuSans-79" transform="translate(525.048828 0.015625)"/>
     <use xlink:href="#DejaVuSans-2192" transform="translate(603.710938 0.015625)"/>
     <use xlink:href="#DejaVuSans-55" transform="translate(706.982422 0.015625)"/>
     <use xlink:href="#DejaVuSans-6e" transform="translate(780.175781 0.015625)"/>
     <use xlink:href="#DejaVuSans-72" transform="translate(843.554688 0.015625)"/>
     <use xlink:href="#DejaVuSans-65" transform="translate(884.667969 0.015625)"/>
     <use xlink:href="#DejaVuSans-70" transform="translate(946.191406 0.015625)"/>
     <use xlink:href="#DejaVuSans-6c" transform="translate(1009.667969 0.015625)"/>
     <use xlink:href="#DejaVuSans-61" transform="translate(1037.451172 0.015625)"/>
     <use xlink:href="#DejaVuSans-63" transform="translate(1098.730469 0.015625)"/>
     <use xlink:href="#DejaVuSans-65" transform="translate(1153.710938 0.015625)"/>
     <use xlink:href="#DejaVuSans-64" transform="translate(1215.234375 0.015625)"/>
     <use xlink:href="#DejaVuSans-5f" transform="translate(1278.710938 0.015625)"/>
     <use xlink:href="#DejaVuSans-51" transform="translate(1328.710938 0.015625)"/>
     <use xlink:href="#DejaVuSans-75" transform="translate(1407.421875 0.015625)"/>
     <use xlink:href="#DejaVuSans-69" transform="translate(1470.800781 0.015625)"/>
     <use xlink:href="#DejaVuSans-74" transform="translate(1498.583984 0.015625)"/>
     <use xlink:href="#DejaVuSans-73" transform="translate(1537.792969 0.015625)"/>
    </g>
   </g>
  </g>
  <g id="axes_3">
   <g id="patch_12">
    <path d="M 57.570312 416.110345 
L 705.570312 416.110345 
L 705.570312 307.489655 
L 57.570312 307.489655 
z
" style="fill: #ffffff"/>
   </g>
   <g id="matplotlib.axis_5">
    <g id="xtick_13">
     <g id="line2d_30">
      <g>
       <use xlink:href="#m6af2c21876" x="87.024858" y="416.110345" style="stroke: #000000; stroke-width: 0.8"/>
      </g>
     </g>
    </g>
    <g id="xtick_14">
     <g id="line2d_31">
      <g>
       <use xlink:href="#m6af2c21876" x="204.84304" y="416.110345" style="stroke: #000000; stroke-width: 0.8"/>
      </g>
     </g>
    </g>
    <g id="xtick_15">
     <g id="line2d_32">
      <g>
       <use xlink:href="#m6af2c21876" x="322.661222" y="416.110345" style="stroke: #000000; stroke-width: 0.8"/>
      </g>
     </g>
    </g>
    <g id="xtick_16">
     <g id="line2d_33">
      <g>
       <use xlink:href="#m6af2c21876" x="440.479403" y="416.110345" style="stroke: #000000; stroke-width: 0.8"/>
      </g>
     </g>
    </g>
    <g id="xtick_17">
     <g id="line2d_34">
      <g>
       <use xlink:href="#m6af2c21876" x="558.297585" y="416.110345" style="stroke: #000000; stroke-width: 0.8"/>
      </g>
     </g>
    </g>
    <g id="xtick_18">
     <g id="line2d_35">
      <g>
       <use xlink:href="#m6af2c21876" x="676.115767" y="416.110345" style="stroke: #000000; stroke-width: 0.8"/>
      </g>
     </g>
    </g>
   </g>
   <g id="matplotlib.axis_6">
    <g id="ytick_10">
     <g id="line2d_36">
      <g>
       <use xlink:href="#m4b7096306b" x="57.570312" y="392.739649" style="stroke: #000000; stroke-width: 0.8"/>
      </g>
     </g>
     <g id="text_12">
      <!-- 0.00 -->
      <g transform="translate(28.304688 396.538868) scale(0.1 -0.1)">
       <use xlink:href="#DejaVuSans-30"/>
       <use xlink:href="#DejaVuSans-2e" transform="translate(63.623047 0)"/>
       <use xlink:href="#DejaVuSans-30" transform="translate(95.410156 0)"/>
       <use xlink:href="#DejaVuSans-30" transform="translate(159.033203 0)"/>
      </g>
     </g>
    </g>
    <g id="ytick_11">
     <g id="line2d_37">
      <g>
       <use xlink:href="#m4b7096306b" x="57.570312" y="367.382779" style="stroke: #000000; stroke-width: 0.8"/>
      </g>
     </g>
     <g id="text_13">
      <!-- 0.25 -->
      <g transform="translate(28.304688 371.181998) scale(0.1 -0.1)">
       <defs>
        <path id="DejaVuSans-35" d="M 691 4666 
L 3169 4666 
L 3169 4134 
L 1269 4134 
L 1269 2991 
Q 1406 3038 1543 3061 
Q 1681 3084 1819 3084 
Q 2600 3084 3056 2656 
Q 3513 2228 3513 1497 
Q 3513 744 3044 326 
Q 2575 -91 1722 -91 
Q 1428 -91 1123 -41 
Q 819 9 494 109 
L 494 744 
Q 775 591 1075 516 
Q 1375 441 1709 441 
Q 2250 441 2565 725 
Q 2881 1009 2881 1497 
Q 2881 1984 2565 2268 
Q 2250 2553 1709 2553 
Q 1456 2553 1204 2497 
Q 953 2441 691 2322 
L 691 4666 
z
" transform="scale(0.015625)"/>
       </defs>
       <use xlink:href="#DejaVuSans-30"/>
       <use xlink:href="#DejaVuSans-2e" transform="translate(63.623047 0)"/>
       <use xlink:href="#DejaVuSans-32" transform="translate(95.410156 0)"/>
       <use xlink:href="#DejaVuSans-35" transform="translate(159.033203 0)"/>
      </g>
     </g>
    </g>
    <g id="ytick_12">
     <g id="line2d_38">
      <g>
       <use xlink:href="#m4b7096306b" x="57.570312" y="342.025909" style="stroke: #000000; stroke-width: 0.8"/>
      </g>
     </g>
     <g id="text_14">
      <!-- 0.50 -->
      <g transform="translate(28.304688 345.825127) scale(0.1 -0.1)">
       <use xlink:href="#DejaVuSans-30"/>
       <use xlink:href="#DejaVuSans-2e" transform="translate(63.623047 0)"/>
       <use xlink:href="#DejaVuSans-35" transform="translate(95.410156 0)"/>
       <use xlink:href="#DejaVuSans-30" transform="translate(159.033203 0)"/>
      </g>
     </g>
    </g>
    <g id="ytick_13">
     <g id="line2d_39">
      <g>
       <use xlink:href="#m4b7096306b" x="57.570312" y="316.669038" style="stroke: #000000; stroke-width: 0.8"/>
      </g>
     </g>
     <g id="text_15">
      <!-- 0.75 -->
      <g transform="translate(28.304688 320.468257) scale(0.1 -0.1)">
       <defs>
        <path id="DejaVuSans-37" d="M 525 4666 
L 3525 4666 
L 3525 4397 
L 1831 0 
L 1172 0 
L 2766 4134 
L 525 4134 
L 525 4666 
z
" transform="scale(0.015625)"/>
       </defs>
       <use xlink:href="#DejaVuSans-30"/>
       <use xlink:href="#DejaVuSans-2e" transform="translate(63.623047 0)"/>
       <use xlink:href="#DejaVuSans-37" transform="translate(95.410156 0)"/>
       <use xlink:href="#DejaVuSans-35" transform="translate(159.033203 0)"/>
      </g>
     </g>
    </g>
   </g>
   <g id="line2d_40">
    <path d="M 87.024858 386.313998 
L 145.933949 330.229703 
L 204.84304 341.702385 
L 263.752131 353.425945 
L 322.661222 359.239113 
L 381.570312 363.829851 
L 440.479403 367.829668 
L 499.388494 371.293179 
L 558.297585 375.155467 
L 617.206676 379.527432 
L 676.115767 383.80677 
" clip-path="url(#pc8d047721c)" style="fill: none; stroke: #0000ff; stroke-width: 1.5; stroke-linecap: square"/>
   </g>
   <g id="line2d_41">
    <path d="M 87.024858 400.766478 
L 145.933949 348.032447 
L 204.84304 361.870932 
L 263.752131 375.567573 
L 322.661222 382.34554 
L 381.570312 387.805894 
L 440.479403 392.498157 
L 499.388494 396.507314 
L 558.297585 401.131071 
L 617.206676 406.276315 
L 676.115767 411.173041 
" clip-path="url(#pc8d047721c)" style="fill: none; stroke-dasharray: 5.55,2.4; stroke-dashoffset: 0; stroke: #000000; stroke-width: 1.5"/>
   </g>
   <g id="line2d_42">
    <path d="M 87.024858 371.861519 
L 145.933949 312.426959 
L 204.84304 321.533837 
L 263.752131 331.284317 
L 322.661222 336.132686 
L 381.570312 339.853808 
L 440.479403 343.161179 
L 499.388494 346.079043 
L 558.297585 349.179863 
L 617.206676 352.77855 
L 676.115767 356.4405 
" clip-path="url(#pc8d047721c)" style="fill: none; stroke-dasharray: 5.55,2.4; stroke-dashoffset: 0; stroke: #000000; stroke-width: 1.5"/>
   </g>
   <g id="line2d_43">
    <path d="M 57.570312 392.739649 
L 705.570312 392.739649 
" clip-path="url(#pc8d047721c)" style="fill: none; stroke: #000000; stroke-width: 1.5; stroke-linecap: square"/>
   </g>
   <g id="patch_13">
    <path d="M 57.570312 416.110345 
L 57.570312 307.489655 
" style="fill: none; stroke: #000000; stroke-width: 0.8; stroke-linejoin: miter; stroke-linecap: square"/>
   </g>
   <g id="patch_14">
    <path d="M 705.570312 416.110345 
L 705.570312 307.489655 
" style="fill: none; stroke: #000000; stroke-width: 0.8; stroke-linejoin: miter; stroke-linecap: square"/>
   </g>
   <g id="patch_15">
    <path d="M 57.570312 416.110345 
L 705.570313 416.110345 
" style="fill: none; stroke: #000000; stroke-width: 0.8; stroke-linejoin: miter; stroke-linecap: square"/>
   </g>
   <g id="patch_16">
    <path d="M 57.570312 307.489655 
L 705.570313 307.489655 
" style="fill: none; stroke: #000000; stroke-width: 0.8; stroke-linejoin: miter; stroke-linecap: square"/>
   </g>
   <g id="text_16">
    <!-- Uncertainty$\rightarrow$Unemployment_Rate -->
    <g transform="translate(276.090312 301.489655) scale(0.12 -0.12)">
     <defs>
      <path id="DejaVuSans-6d" d="M 3328 2828 
Q 3544 3216 3844 3400 
Q 4144 3584 4550 3584 
Q 5097 3584 5394 3201 
Q 5691 2819 5691 2113 
L 5691 0 
L 5113 0 
L 5113 2094 
Q 5113 2597 4934 2840 
Q 4756 3084 4391 3084 
Q 3944 3084 3684 2787 
Q 3425 2491 3425 1978 
L 3425 0 
L 2847 0 
L 2847 2094 
Q 2847 2600 2669 2842 
Q 2491 3084 2119 3084 
Q 1678 3084 1418 2786 
Q 1159 2488 1159 1978 
L 1159 0 
L 581 0 
L 581 3500 
L 1159 3500 
L 1159 2956 
Q 1356 3278 1631 3431 
Q 1906 3584 2284 3584 
Q 2666 3584 2933 3390 
Q 3200 3197 3328 2828 
z
" transform="scale(0.015625)"/>
      <path id="DejaVuSans-6f" d="M 1959 3097 
Q 1497 3097 1228 2736 
Q 959 2375 959 1747 
Q 959 1119 1226 758 
Q 1494 397 1959 397 
Q 2419 397 2687 759 
Q 2956 1122 2956 1747 
Q 2956 2369 2687 2733 
Q 2419 3097 1959 3097 
z
M 1959 3584 
Q 2709 3584 3137 3096 
Q 3566 2609 3566 1747 
Q 3566 888 3137 398 
Q 2709 -91 1959 -91 
Q 1206 -91 779 398 
Q 353 888 353 1747 
Q 353 2609 779 3096 
Q 1206 3584 1959 3584 
z
" transform="scale(0.015625)"/>
      <path id="DejaVuSans-52" d="M 2841 2188 
Q 3044 2119 3236 1894 
Q 3428 1669 3622 1275 
L 4263 0 
L 3584 0 
L 2988 1197 
Q 2756 1666 2539 1819 
Q 2322 1972 1947 1972 
L 1259 1972 
L 1259 0 
L 628 0 
L 628 4666 
L 2053 4666 
Q 2853 4666 3247 4331 
Q 3641 3997 3641 3322 
Q 3641 2881 3436 2590 
Q 3231 2300 2841 2188 
z
M 1259 4147 
L 1259 2491 
L 2053 2491 
Q 2509 2491 2742 2702 
Q 2975 2913 2975 3322 
Q 2975 3731 2742 3939 
Q 2509 4147 2053 4147 
L 1259 4147 
z
" transform="scale(0.015625)"/>
     </defs>
     <use xlink:href="#DejaVuSans-55" transform="translate(0 0.015625)"/>
     <use xlink:href="#DejaVuSans-6e" transform="translate(73.193359 0.015625)"/>
     <use xlink:href="#DejaVuSans-63" transform="translate(136.572266 0.015625)"/>
     <use xlink:href="#DejaVuSans-65" transform="translate(191.552734 0.015625)"/>
     <use xlink:href="#DejaVuSans-72" transform="translate(253.076172 0.015625)"/>
     <use xlink:href="#DejaVuSans-74" transform="translate(294.189453 0.015625)"/>
     <use xlink:href="#DejaVuSans-61" transform="translate(333.398438 0.015625)"/>
     <use xlink:href="#DejaVuSans-69" transform="translate(394.677734 0.015625)"/>
     <use xlink:href="#DejaVuSans-6e" transform="translate(422.460938 0.015625)"/>
     <use xlink:href="#DejaVuSans-74" transform="translate(485.839844 0.015625)"/>
     <use xlink:href="#DejaVuSans-79" transform="translate(525.048828 0.015625)"/>
     <use xlink:href="#DejaVuSans-2192" transform="translate(603.710938 0.015625)"/>
     <use xlink:href="#DejaVuSans-55" transform="translate(706.982422 0.015625)"/>
     <use xlink:href="#DejaVuSans-6e" transform="translate(780.175781 0.015625)"/>
     <use xlink:href="#DejaVuSans-65" transform="translate(843.554688 0.015625)"/>
     <use xlink:href="#DejaVuSans-6d" transform="translate(905.078125 0.015625)"/>
     <use xlink:href="#DejaVuSans-70" transform="translate(1002.490234 0.015625)"/>
     <use xlink:href="#DejaVuSans-6c" transform="translate(1065.966797 0.015625)"/>
     <use xlink:href="#DejaVuSans-6f" transform="translate(1093.75 0.015625)"/>
     <use xlink:href="#DejaVuSans-79" transform="translate(1154.931641 0.015625)"/>
     <use xlink:href="#DejaVuSans-6d" transform="translate(1214.111328 0.015625)"/>
     <use xlink:href="#DejaVuSans-65" transform="translate(1311.523438 0.015625)"/>
     <use xlink:href="#DejaVuSans-6e" transform="translate(1373.046875 0.015625)"/>
     <use xlink:href="#DejaVuSans-74" transform="translate(1436.425781 0.015625)"/>
     <use xlink:href="#DejaVuSans-5f" transform="translate(1475.634766 0.015625)"/>
     <use xlink:href="#DejaVuSans-52" transform="translate(1525.634766 0.015625)"/>
     <use xlink:href="#DejaVuSans-61" transform="translate(1595.117188 0.015625)"/>
     <use xlink:href="#DejaVuSans-74" transform="translate(1656.396484 0.015625)"/>
     <use xlink:href="#DejaVuSans-65" transform="translate(1695.605469 0.015625)"/>
    </g>
   </g>
  </g>
  <g id="axes_4">
   <g id="patch_17">
    <path d="M 57.570312 546.455172 
L 705.570312 546.455172 
L 705.570312 437.834483 
L 57.570312 437.834483 
z
" style="fill: #ffffff"/>
   </g>
   <g id="matplotlib.axis_7">
    <g id="xtick_19">
     <g id="line2d_44">
      <g>
       <use xlink:href="#m6af2c21876" x="87.024858" y="546.455172" style="stroke: #000000; stroke-width: 0.8"/>
      </g>
     </g>
    </g>
    <g id="xtick_20">
     <g id="line2d_45">
      <g>
       <use xlink:href="#m6af2c21876" x="204.84304" y="546.455172" style="stroke: #000000; stroke-width: 0.8"/>
      </g>
     </g>
    </g>
    <g id="xtick_21">
     <g id="line2d_46">
      <g>
       <use xlink:href="#m6af2c21876" x="322.661222" y="546.455172" style="stroke: #000000; stroke-width: 0.8"/>
      </g>
     </g>
    </g>
    <g id="xtick_22">
     <g id="line2d_47">
      <g>
       <use xlink:href="#m6af2c21876" x="440.479403" y="546.455172" style="stroke: #000000; stroke-width: 0.8"/>
      </g>
     </g>
    </g>
    <g id="xtick_23">
     <g id="line2d_48">
      <g>
       <use xlink:href="#m6af2c21876" x="558.297585" y="546.455172" style="stroke: #000000; stroke-width: 0.8"/>
      </g>
     </g>
    </g>
    <g id="xtick_24">
     <g id="line2d_49">
      <g>
       <use xlink:href="#m6af2c21876" x="676.115767" y="546.455172" style="stroke: #000000; stroke-width: 0.8"/>
      </g>
     </g>
    </g>
   </g>
   <g id="matplotlib.axis_8">
    <g id="ytick_14">
     <g id="line2d_50">
      <g>
       <use xlink:href="#m4b7096306b" x="57.570312" y="523.676841" style="stroke: #000000; stroke-width: 0.8"/>
      </g>
     </g>
     <g id="text_17">
      <!-- −0.0025 -->
      <g transform="translate(7.2 527.476059) scale(0.1 -0.1)">
       <use xlink:href="#DejaVuSans-2212"/>
       <use xlink:href="#DejaVuSans-30" transform="translate(83.789062 0)"/>
       <use xlink:href="#DejaVuSans-2e" transform="translate(147.412109 0)"/>
       <use xlink:href="#DejaVuSans-30" transform="translate(179.199219 0)"/>
       <use xlink:href="#DejaVuSans-30" transform="translate(242.822266 0)"/>
       <use xlink:href="#DejaVuSans-32" transform="translate(306.445312 0)"/>
       <use xlink:href="#DejaVuSans-35" transform="translate(370.068359 0)"/>
      </g>
     </g>
    </g>
    <g id="ytick_15">
     <g id="line2d_51">
      <g>
       <use xlink:href="#m4b7096306b" x="57.570312" y="499.664558" style="stroke: #000000; stroke-width: 0.8"/>
      </g>
     </g>
     <g id="text_18">
      <!-- 0.0000 -->
      <g transform="translate(15.579687 503.463777) scale(0.1 -0.1)">
       <use xlink:href="#DejaVuSans-30"/>
       <use xlink:href="#DejaVuSans-2e" transform="translate(63.623047 0)"/>
       <use xlink:href="#DejaVuSans-30" transform="translate(95.410156 0)"/>
       <use xlink:href="#DejaVuSans-30" transform="translate(159.033203 0)"/>
       <use xlink:href="#DejaVuSans-30" transform="translate(222.65625 0)"/>
       <use xlink:href="#DejaVuSans-30" transform="translate(286.279297 0)"/>
      </g>
     </g>
    </g>
    <g id="ytick_16">
     <g id="line2d_52">
      <g>
       <use xlink:href="#m4b7096306b" x="57.570312" y="475.652276" style="stroke: #000000; stroke-width: 0.8"/>
      </g>
     </g>
     <g id="text_19">
      <!-- 0.0025 -->
      <g transform="translate(15.579687 479.451495) scale(0.1 -0.1)">
       <use xlink:href="#DejaVuSans-30"/>
       <use xlink:href="#DejaVuSans-2e" transform="translate(63.623047 0)"/>
       <use xlink:href="#DejaVuSans-30" transform="translate(95.410156 0)"/>
       <use xlink:href="#DejaVuSans-30" transform="translate(159.033203 0)"/>
       <use xlink:href="#DejaVuSans-32" transform="translate(222.65625 0)"/>
       <use xlink:href="#DejaVuSans-35" transform="translate(286.279297 0)"/>
      </g>
     </g>
    </g>
    <g id="ytick_17">
     <g id="line2d_53">
      <g>
       <use xlink:href="#m4b7096306b" x="57.570312" y="451.639994" style="stroke: #000000; stroke-width: 0.8"/>
      </g>
     </g>
     <g id="text_20">
      <!-- 0.0050 -->
      <g transform="translate(15.579687 455.439213) scale(0.1 -0.1)">
       <use xlink:href="#DejaVuSans-30"/>
       <use xlink:href="#DejaVuSans-2e" transform="translate(63.623047 0)"/>
       <use xlink:href="#DejaVuSans-30" transform="translate(95.410156 0)"/>
       <use xlink:href="#DejaVuSans-30" transform="translate(159.033203 0)"/>
       <use xlink:href="#DejaVuSans-35" transform="translate(222.65625 0)"/>
       <use xlink:href="#DejaVuSans-30" transform="translate(286.279297 0)"/>
      </g>
     </g>
    </g>
   </g>
   <g id="line2d_54">
    <path d="M 87.024858 500.661364 
L 145.933949 516.393372 
L 204.84304 519.758253 
L 263.752131 519.797715 
L 322.661222 512.135343 
L 381.570312 503.673622 
L 440.479403 498.594143 
L 499.388494 495.911085 
L 558.297585 493.719686 
L 617.206676 491.272218 
L 676.115767 488.669658 
" clip-path="url(#p54425f3229)" style="fill: none; stroke: #0000ff; stroke-width: 1.5; stroke-linecap: square"/>
   </g>
   <g id="line2d_55">
    <path d="M 87.024858 509.52728 
L 145.933949 530.840187 
L 204.84304 538.164119 
L 263.752131 541.517868 
L 322.661222 536.485472 
L 381.570312 531.160254 
L 440.479403 529.606233 
L 499.388494 530.553824 
L 558.297585 532.134674 
L 617.206676 533.467732 
L 676.115767 534.567529 
" clip-path="url(#p54425f3229)" style="fill: none; stroke-dasharray: 5.55,2.4; stroke-dashoffset: 0; stroke: #000000; stroke-width: 1.5"/>
   </g>
   <g id="line2d_56">
    <path d="M 87.024858 491.795447 
L 145.933949 501.946557 
L 204.84304 501.352387 
L 263.752131 498.077561 
L 322.661222 487.785214 
L 381.570312 476.186989 
L 440.479403 467.582054 
L 499.388494 461.268345 
L 558.297585 455.304697 
L 617.206676 449.076704 
L 676.115767 442.771787 
" clip-path="url(#p54425f3229)" style="fill: none; stroke-dasharray: 5.55,2.4; stroke-dashoffset: 0; stroke: #000000; stroke-width: 1.5"/>
   </g>
   <g id="line2d_57">
    <path d="M 57.570312 499.664558 
L 705.570312 499.664558 
" clip-path="url(#p54425f3229)" style="fill: none; stroke: #000000; stroke-width: 1.5; stroke-linecap: square"/>
   </g>
   <g id="patch_18">
    <path d="M 57.570312 546.455172 
L 57.570312 437.834483 
" style="fill: none; stroke: #000000; stroke-width: 0.8; stroke-linejoin: miter; stroke-linecap: square"/>
   </g>
   <g id="patch_19">
    <path d="M 705.570312 546.455172 
L 705.570312 437.834483 
" style="fill: none; stroke: #000000; stroke-width: 0.8; stroke-linejoin: miter; stroke-linecap: square"/>
   </g>
   <g id="patch_20">
    <path d="M 57.570312 546.455172 
L 705.570313 546.455172 
" style="fill: none; stroke: #000000; stroke-width: 0.8; stroke-linejoin: miter; stroke-linecap: square"/>
   </g>
   <g id="patch_21">
    <path d="M 57.570312 437.834483 
L 705.570313 437.834483 
" style="fill: none; stroke: #000000; stroke-width: 0.8; stroke-linejoin: miter; stroke-linecap: square"/>
   </g>
   <g id="text_21">
    <!-- Uncertainty$\rightarrow$Log_CPI -->
    <g transform="translate(315.750313 431.834483) scale(0.12 -0.12)">
     <defs>
      <path id="DejaVuSans-4c" d="M 628 4666 
L 1259 4666 
L 1259 531 
L 3531 531 
L 3531 0 
L 628 0 
L 628 4666 
z
" transform="scale(0.015625)"/>
      <path id="DejaVuSans-67" d="M 2906 1791 
Q 2906 2416 2648 2759 
Q 2391 3103 1925 3103 
Q 1463 3103 1205 2759 
Q 947 2416 947 1791 
Q 947 1169 1205 825 
Q 1463 481 1925 481 
Q 2391 481 2648 825 
Q 2906 1169 2906 1791 
z
M 3481 434 
Q 3481 -459 3084 -895 
Q 2688 -1331 1869 -1331 
Q 1566 -1331 1297 -1286 
Q 1028 -1241 775 -1147 
L 775 -588 
Q 1028 -725 1275 -790 
Q 1522 -856 1778 -856 
Q 2344 -856 2625 -561 
Q 2906 -266 2906 331 
L 2906 616 
Q 2728 306 2450 153 
Q 2172 0 1784 0 
Q 1141 0 747 490 
Q 353 981 353 1791 
Q 353 2603 747 3093 
Q 1141 3584 1784 3584 
Q 2172 3584 2450 3431 
Q 2728 3278 2906 2969 
L 2906 3500 
L 3481 3500 
L 3481 434 
z
" transform="scale(0.015625)"/>
      <path id="DejaVuSans-43" d="M 4122 4306 
L 4122 3641 
Q 3803 3938 3442 4084 
Q 3081 4231 2675 4231 
Q 1875 4231 1450 3742 
Q 1025 3253 1025 2328 
Q 1025 1406 1450 917 
Q 1875 428 2675 428 
Q 3081 428 3442 575 
Q 3803 722 4122 1019 
L 4122 359 
Q 3791 134 3420 21 
Q 3050 -91 2638 -91 
Q 1578 -91 968 557 
Q 359 1206 359 2328 
Q 359 3453 968 4101 
Q 1578 4750 2638 4750 
Q 3056 4750 3426 4639 
Q 3797 4528 4122 4306 
z
" transform="scale(0.015625)"/>
      <path id="DejaVuSans-50" d="M 1259 4147 
L 1259 2394 
L 2053 2394 
Q 2494 2394 2734 2622 
Q 2975 2850 2975 3272 
Q 2975 3691 2734 3919 
Q 2494 4147 2053 4147 
L 1259 4147 
z
M 628 4666 
L 2053 4666 
Q 2838 4666 3239 4311 
Q 3641 3956 3641 3272 
Q 3641 2581 3239 2228 
Q 2838 1875 2053 1875 
L 1259 1875 
L 1259 0 
L 628 0 
L 628 4666 
z
" transform="scale(0.015625)"/>
      <path id="DejaVuSans-49" d="M 628 4666 
L 1259 4666 
L 1259 0 
L 628 0 
L 628 4666 
z
" transform="scale(0.015625)"/>
     </defs>
     <use xlink:href="#DejaVuSans-55" transform="translate(0 0.015625)"/>
     <use xlink:href="#DejaVuSans-6e" transform="translate(73.193359 0.015625)"/>
     <use xlink:href="#DejaVuSans-63" transform="translate(136.572266 0.015625)"/>
     <use xlink:href="#DejaVuSans-65" transform="translate(191.552734 0.015625)"/>
     <use xlink:href="#DejaVuSans-72" transform="translate(253.076172 0.015625)"/>
     <use xlink:href="#DejaVuSans-74" transform="translate(294.189453 0.015625)"/>
     <use xlink:href="#DejaVuSans-61" transform="translate(333.398438 0.015625)"/>
     <use xlink:href="#DejaVuSans-69" transform="translate(394.677734 0.015625)"/>
     <use xlink:href="#DejaVuSans-6e" transform="translate(422.460938 0.015625)"/>
     <use xlink:href="#DejaVuSans-74" transform="translate(485.839844 0.015625)"/>
     <use xlink:href="#DejaVuSans-79" transform="translate(525.048828 0.015625)"/>
     <use xlink:href="#DejaVuSans-2192" transform="translate(603.710938 0.015625)"/>
     <use xlink:href="#DejaVuSans-4c" transform="translate(706.982422 0.015625)"/>
     <use xlink:href="#DejaVuSans-6f" transform="translate(762.695312 0.015625)"/>
     <use xlink:href="#DejaVuSans-67" transform="translate(823.876953 0.015625)"/>
     <use xlink:href="#DejaVuSans-5f" transform="translate(887.353516 0.015625)"/>
     <use xlink:href="#DejaVuSans-43" transform="translate(937.353516 0.015625)"/>
     <use xlink:href="#DejaVuSans-50" transform="translate(1007.177734 0.015625)"/>
     <use xlink:href="#DejaVuSans-49" transform="translate(1067.480469 0.015625)"/>
    </g>
   </g>
  </g>
  <g id="axes_5">
   <g id="patch_22">
    <path d="M 57.570312 676.8 
L 705.570312 676.8 
L 705.570312 568.17931 
L 57.570312 568.17931 
z
" style="fill: #ffffff"/>
   </g>
   <g id="matplotlib.axis_9">
    <g id="xtick_25">
     <g id="line2d_58">
      <g>
       <use xlink:href="#m6af2c21876" x="87.024858" y="676.8" style="stroke: #000000; stroke-width: 0.8"/>
      </g>
     </g>
     <g id="text_22">
      <!-- 0 -->
      <g transform="translate(83.843608 691.398437) scale(0.1 -0.1)">
       <use xlink:href="#DejaVuSans-30"/>
      </g>
     </g>
    </g>
    <g id="xtick_26">
     <g id="line2d_59">
      <g>
       <use xlink:href="#m6af2c21876" x="204.84304" y="676.8" style="stroke: #000000; stroke-width: 0.8"/>
      </g>
     </g>
     <g id="text_23">
      <!-- 2 -->
      <g transform="translate(201.66179 691.398437) scale(0.1 -0.1)">
       <use xlink:href="#DejaVuSans-32"/>
      </g>
     </g>
    </g>
    <g id="xtick_27">
     <g id="line2d_60">
      <g>
       <use xlink:href="#m6af2c21876" x="322.661222" y="676.8" style="stroke: #000000; stroke-width: 0.8"/>
      </g>
     </g>
     <g id="text_24">
      <!-- 4 -->
      <g transform="translate(319.479972 691.398437) scale(0.1 -0.1)">
       <use xlink:href="#DejaVuSans-34"/>
      </g>
     </g>
    </g>
    <g id="xtick_28">
     <g id="line2d_61">
      <g>
       <use xlink:href="#m6af2c21876" x="440.479403" y="676.8" style="stroke: #000000; stroke-width: 0.8"/>
      </g>
     </g>
     <g id="text_25">
      <!-- 6 -->
      <g transform="translate(437.298153 691.398437) scale(0.1 -0.1)">
       <use xlink:href="#DejaVuSans-36"/>
      </g>
     </g>
    </g>
    <g id="xtick_29">
     <g id="line2d_62">
      <g>
       <use xlink:href="#m6af2c21876" x="558.297585" y="676.8" style="stroke: #000000; stroke-width: 0.8"/>
      </g>
     </g>
     <g id="text_26">
      <!-- 8 -->
      <g transform="translate(555.116335 691.398437) scale(0.1 -0.1)">
       <defs>
        <path id="DejaVuSans-38" d="M 2034 2216 
Q 1584 2216 1326 1975 
Q 1069 1734 1069 1313 
Q 1069 891 1326 650 
Q 1584 409 2034 409 
Q 2484 409 2743 651 
Q 3003 894 3003 1313 
Q 3003 1734 2745 1975 
Q 2488 2216 2034 2216 
z
M 1403 2484 
Q 997 2584 770 2862 
Q 544 3141 544 3541 
Q 544 4100 942 4425 
Q 1341 4750 2034 4750 
Q 2731 4750 3128 4425 
Q 3525 4100 3525 3541 
Q 3525 3141 3298 2862 
Q 3072 2584 2669 2484 
Q 3125 2378 3379 2068 
Q 3634 1759 3634 1313 
Q 3634 634 3220 271 
Q 2806 -91 2034 -91 
Q 1263 -91 848 271 
Q 434 634 434 1313 
Q 434 1759 690 2068 
Q 947 2378 1403 2484 
z
M 1172 3481 
Q 1172 3119 1398 2916 
Q 1625 2713 2034 2713 
Q 2441 2713 2670 2916 
Q 2900 3119 2900 3481 
Q 2900 3844 2670 4047 
Q 2441 4250 2034 4250 
Q 1625 4250 1398 4047 
Q 1172 3844 1172 3481 
z
" transform="scale(0.015625)"/>
       </defs>
       <use xlink:href="#DejaVuSans-38"/>
      </g>
     </g>
    </g>
    <g id="xtick_30">
     <g id="line2d_63">
      <g>
       <use xlink:href="#m6af2c21876" x="676.115767" y="676.8" style="stroke: #000000; stroke-width: 0.8"/>
      </g>
     </g>
     <g id="text_27">
      <!-- 10 -->
      <g transform="translate(669.753267 691.398437) scale(0.1 -0.1)">
       <use xlink:href="#DejaVuSans-31"/>
       <use xlink:href="#DejaVuSans-30" transform="translate(63.623047 0)"/>
      </g>
     </g>
    </g>
   </g>
   <g id="matplotlib.axis_10">
    <g id="ytick_18">
     <g id="line2d_64">
      <g>
       <use xlink:href="#m4b7096306b" x="57.570312" y="641.88156" style="stroke: #000000; stroke-width: 0.8"/>
      </g>
     </g>
     <g id="text_28">
      <!-- −0.2 -->
      <g transform="translate(26.2875 645.680779) scale(0.1 -0.1)">
       <use xlink:href="#DejaVuSans-2212"/>
       <use xlink:href="#DejaVuSans-30" transform="translate(83.789062 0)"/>
       <use xlink:href="#DejaVuSans-2e" transform="translate(147.412109 0)"/>
       <use xlink:href="#DejaVuSans-32" transform="translate(179.199219 0)"/>
      </g>
     </g>
    </g>
    <g id="ytick_19">
     <g id="line2d_65">
      <g>
       <use xlink:href="#m4b7096306b" x="57.570312" y="606.906347" style="stroke: #000000; stroke-width: 0.8"/>
      </g>
     </g>
     <g id="text_29">
      <!-- 0.0 -->
      <g transform="translate(34.667187 610.705566) scale(0.1 -0.1)">
       <use xlink:href="#DejaVuSans-30"/>
       <use xlink:href="#DejaVuSans-2e" transform="translate(63.623047 0)"/>
       <use xlink:href="#DejaVuSans-30" transform="translate(95.410156 0)"/>
      </g>
     </g>
    </g>
    <g id="ytick_20">
     <g id="line2d_66">
      <g>
       <use xlink:href="#m4b7096306b" x="57.570312" y="571.931134" style="stroke: #000000; stroke-width: 0.8"/>
      </g>
     </g>
     <g id="text_30">
      <!-- 0.2 -->
      <g transform="translate(34.667187 575.730353) scale(0.1 -0.1)">
       <use xlink:href="#DejaVuSans-30"/>
       <use xlink:href="#DejaVuSans-2e" transform="translate(63.623047 0)"/>
       <use xlink:href="#DejaVuSans-32" transform="translate(95.410156 0)"/>
      </g>
     </g>
    </g>
   </g>
   <g id="line2d_67">
    <path d="M 87.024858 609.651067 
L 145.933949 631.137917 
L 204.84304 634.572011 
L 263.752131 633.572388 
L 322.661222 630.759364 
L 381.570312 629.379944 
L 440.479403 628.696718 
L 499.388494 627.483956 
L 558.297585 625.220342 
L 617.206676 622.072758 
L 676.115767 618.488405 
" clip-path="url(#p865b77991a)" style="fill: none; stroke: #0000ff; stroke-width: 1.5; stroke-linecap: square"/>
   </g>
   <g id="line2d_68">
    <path d="M 87.024858 619.172109 
L 145.933949 648.849609 
L 204.84304 660.60771 
L 263.752131 666.842578 
L 322.661222 668.891118 
L 381.570312 670.702548 
L 440.479403 671.862696 
L 499.388494 671.767807 
L 558.297585 670.266549 
L 617.206676 667.50346 
L 676.115767 663.860195 
" clip-path="url(#p865b77991a)" style="fill: none; stroke-dasharray: 5.55,2.4; stroke-dashoffset: 0; stroke: #000000; stroke-width: 1.5"/>
   </g>
   <g id="line2d_69">
    <path d="M 87.024858 600.130024 
L 145.933949 613.426225 
L 204.84304 608.536311 
L 263.752131 600.302198 
L 322.661222 592.62761 
L 381.570312 588.05734 
L 440.479403 585.53074 
L 499.388494 583.200106 
L 558.297585 580.174135 
L 617.206676 576.642056 
L 676.115767 573.116614 
" clip-path="url(#p865b77991a)" style="fill: none; stroke-dasharray: 5.55,2.4; stroke-dashoffset: 0; stroke: #000000; stroke-width: 1.5"/>
   </g>
   <g id="line2d_70">
    <path d="M 57.570312 606.906347 
L 705.570312 606.906347 
" clip-path="url(#p865b77991a)" style="fill: none; stroke: #000000; stroke-width: 1.5; stroke-linecap: square"/>
   </g>
   <g id="patch_23">
    <path d="M 57.570312 676.8 
L 57.570312 568.17931 
" style="fill: none; stroke: #000000; stroke-width: 0.8; stroke-linejoin: miter; stroke-linecap: square"/>
   </g>
   <g id="patch_24">
    <path d="M 705.570312 676.8 
L 705.570312 568.17931 
" style="fill: none; stroke: #000000; stroke-width: 0.8; stroke-linejoin: miter; stroke-linecap: square"/>
   </g>
   <g id="patch_25">
    <path d="M 57.570312 676.8 
L 705.570313 676.8 
" style="fill: none; stroke: #000000; stroke-width: 0.8; stroke-linejoin: miter; stroke-linecap: square"/>
   </g>
   <g id="patch_26">
    <path d="M 57.570312 568.17931 
L 705.570313 568.17931 
" style="fill: none; stroke: #000000; stroke-width: 0.8; stroke-linejoin: miter; stroke-linecap: square"/>
   </g>
   <g id="text_31">
    <!-- Uncertainty$\rightarrow$Interest_Rate -->
    <g transform="translate(298.950312 562.17931) scale(0.12 -0.12)">
     <use xlink:href="#DejaVuSans-55" transform="translate(0 0.015625)"/>
     <use xlink:href="#DejaVuSans-6e" transform="translate(73.193359 0.015625)"/>
     <use xlink:href="#DejaVuSans-63" transform="translate(136.572266 0.015625)"/>
     <use xlink:href="#DejaVuSans-65" transform="translate(191.552734 0.015625)"/>
     <use xlink:href="#DejaVuSans-72" transform="translate(253.076172 0.015625)"/>
     <use xlink:href="#DejaVuSans-74" transform="translate(294.189453 0.015625)"/>
     <use xlink:href="#DejaVuSans-61" transform="translate(333.398438 0.015625)"/>
     <use xlink:href="#DejaVuSans-69" transform="translate(394.677734 0.015625)"/>
     <use xlink:href="#DejaVuSans-6e" transform="translate(422.460938 0.015625)"/>
     <use xlink:href="#DejaVuSans-74" transform="translate(485.839844 0.015625)"/>
     <use xlink:href="#DejaVuSans-79" transform="translate(525.048828 0.015625)"/>
     <use xlink:href="#DejaVuSans-2192" transform="translate(603.710938 0.015625)"/>
     <use xlink:href="#DejaVuSans-49" transform="translate(706.982422 0.015625)"/>
     <use xlink:href="#DejaVuSans-6e" transform="translate(736.474609 0.015625)"/>
     <use xlink:href="#DejaVuSans-74" transform="translate(799.853516 0.015625)"/>
     <use xlink:href="#DejaVuSans-65" transform="translate(839.0625 0.015625)"/>
     <use xlink:href="#DejaVuSans-72" transform="translate(900.585938 0.015625)"/>
     <use xlink:href="#DejaVuSans-65" transform="translate(941.699219 0.015625)"/>
     <use xlink:href="#DejaVuSans-73" transform="translate(1003.222656 0.015625)"/>
     <use xlink:href="#DejaVuSans-74" transform="translate(1055.322266 0.015625)"/>
     <use xlink:href="#DejaVuSans-5f" transform="translate(1094.53125 0.015625)"/>
     <use xlink:href="#DejaVuSans-52" transform="translate(1144.53125 0.015625)"/>
     <use xlink:href="#DejaVuSans-61" transform="translate(1214.013672 0.015625)"/>
     <use xlink:href="#DejaVuSans-74" transform="translate(1275.292969 0.015625)"/>
     <use xlink:href="#DejaVuSans-65" transform="translate(1314.501953 0.015625)"/>
    </g>
   </g>
  </g>
  <g id="text_32">
   <!-- Impulse responses (orthogonalized) -->
   <g transform="translate(256.1675 17.837812) scale(0.14 -0.14)">
    <defs>
     <path id="DejaVuSans-20" transform="scale(0.015625)"/>
     <path id="DejaVuSans-28" d="M 1984 4856 
Q 1566 4138 1362 3434 
Q 1159 2731 1159 2009 
Q 1159 1288 1364 580 
Q 1569 -128 1984 -844 
L 1484 -844 
Q 1016 -109 783 600 
Q 550 1309 550 2009 
Q 550 2706 781 3412 
Q 1013 4119 1484 4856 
L 1984 4856 
z
" transform="scale(0.015625)"/>
     <path id="DejaVuSans-68" d="M 3513 2113 
L 3513 0 
L 2938 0 
L 2938 2094 
Q 2938 2591 2744 2837 
Q 2550 3084 2163 3084 
Q 1697 3084 1428 2787 
Q 1159 2491 1159 1978 
L 1159 0 
L 581 0 
L 581 4863 
L 1159 4863 
L 1159 2956 
Q 1366 3272 1645 3428 
Q 1925 3584 2291 3584 
Q 2894 3584 3203 3211 
Q 3513 2838 3513 2113 
z
" transform="scale(0.015625)"/>
     <path id="DejaVuSans-7a" d="M 353 3500 
L 3084 3500 
L 3084 2975 
L 922 459 
L 3084 459 
L 3084 0 
L 275 0 
L 275 525 
L 2438 3041 
L 353 3041 
L 353 3500 
z
" transform="scale(0.015625)"/>
     <path id="DejaVuSans-29" d="M 513 4856 
L 1013 4856 
Q 1481 4119 1714 3412 
Q 1947 2706 1947 2009 
Q 1947 1309 1714 600 
Q 1481 -109 1013 -844 
L 513 -844 
Q 928 -128 1133 580 
Q 1338 1288 1338 2009 
Q 1338 2731 1133 3434 
Q 928 4138 513 4856 
z
" transform="scale(0.015625)"/>
    </defs>
    <use xlink:href="#DejaVuSans-49"/>
    <use xlink:href="#DejaVuSans-6d" transform="translate(29.492188 0)"/>
    <use xlink:href="#DejaVuSans-70" transform="translate(126.904297 0)"/>
    <use xlink:href="#DejaVuSans-75" transform="translate(190.380859 0)"/>
    <use xlink:href="#DejaVuSans-6c" transform="translate(253.759766 0)"/>
    <use xlink:href="#DejaVuSans-73" transform="translate(281.542969 0)"/>
    <use xlink:href="#DejaVuSans-65" transform="translate(333.642578 0)"/>
    <use xlink:href="#DejaVuSans-20" transform="translate(395.166016 0)"/>
    <use xlink:href="#DejaVuSans-72" transform="translate(426.953125 0)"/>
    <use xlink:href="#DejaVuSans-65" transform="translate(465.816406 0)"/>
    <use xlink:href="#DejaVuSans-73" transform="translate(527.339844 0)"/>
    <use xlink:href="#DejaVuSans-70" transform="translate(579.439453 0)"/>
    <use xlink:href="#DejaVuSans-6f" transform="translate(642.916016 0)"/>
    <use xlink:href="#DejaVuSans-6e" transform="translate(704.097656 0)"/>
    <use xlink:href="#DejaVuSans-73" transform="translate(767.476562 0)"/>
    <use xlink:href="#DejaVuSans-65" transform="translate(819.576172 0)"/>
    <use xlink:href="#DejaVuSans-73" transform="translate(881.099609 0)"/>
    <use xlink:href="#DejaVuSans-20" transform="translate(933.199219 0)"/>
    <use xlink:href="#DejaVuSans-28" transform="translate(964.986328 0)"/>
    <use xlink:href="#DejaVuSans-6f" transform="translate(1004 0)"/>
    <use xlink:href="#DejaVuSans-72" transform="translate(1065.181641 0)"/>
    <use xlink:href="#DejaVuSans-74" transform="translate(1106.294922 0)"/>
    <use xlink:href="#DejaVuSans-68" transform="translate(1145.503906 0)"/>
    <use xlink:href="#DejaVuSans-6f" transform="translate(1208.882812 0)"/>
    <use xlink:href="#DejaVuSans-67" transform="translate(1270.064453 0)"/>
    <use xlink:href="#DejaVuSans-6f" transform="translate(1333.541016 0)"/>
    <use xlink:href="#DejaVuSans-6e" transform="translate(1394.722656 0)"/>
    <use xlink:href="#DejaVuSans-61" transform="translate(1458.101562 0)"/>
    <use xlink:href="#DejaVuSans-6c" transform="translate(1519.380859 0)"/>
    <use xlink:href="#DejaVuSans-69" transform="translate(1547.164062 0)"/>
    <use xlink:href="#DejaVuSans-7a" transform="translate(1574.947266 0)"/>
    <use xlink:href="#DejaVuSans-65" transform="translate(1627.4375 0)"/>
    <use xlink:href="#DejaVuSans-64" transform="translate(1688.960938 0)"/>
    <use xlink:href="#DejaVuSans-29" transform="translate(1752.4375 0)"/>
   </g>
  </g>
 </g>
 <defs>
  <clipPath id="p3219ab5804">
   <rect x="57.570312" y="46.8" width="648" height="108.62069"/>
  </clipPath>
  <clipPath id="p8b8067c16f">
   <rect x="57.570312" y="177.144828" width="648" height="108.62069"/>
  </clipPath>
  <clipPath id="pc8d047721c">
   <rect x="57.570312" y="307.489655" width="648" height="108.62069"/>
  </clipPath>
  <clipPath id="p54425f3229">
   <rect x="57.570312" y="437.834483" width="648" height="108.62069"/>
  </clipPath>
  <clipPath id="p865b77991a">
   <rect x="57.570312" y="568.17931" width="648" height="108.62069"/>
  </clipPath>
 </defs>
</svg>
